<svg height="512" viewBox="0 0 128 128" width="512" xmlns="http://www.w3.org/2000/svg"><g><g><path d="m80.792 115.5h-2.008l-2.356-14.888-5.925.938 2.214 14a6 6 0 0 0 -5.259 5.95h19.334a6 6 0 0 0 -6-6z" fill="#d78759"/><path d="m67.792 115.5h-2.008l-2.356-14.888-5.925.938 2.214 14a6 6 0 0 0 -5.259 5.95h19.334a6 6 0 0 0 -6-6z" fill="#f4a86c"/><g fill="#fc4b00"><path d="m103.7 12.673a5.042 5.042 0 0 0 -7.384.995l-.124.178.169-1.841a5.043 5.043 0 1 0 -10.043 0l.169 1.841-.123-.178a5.043 5.043 0 1 0 -7.7 6.45l9.78 9.709 2.892-2.427 2.894 2.425 9.781-9.709a5.043 5.043 0 0 0 -.311-7.443z"/><path d="m101.062 30.247c9.038 2.267 11.313 6.878 12.063 10.508-8.75-2.3-13.875-.88-13.875-.88z"/><path d="m101.917 39.042c1.666 4.6 9.785 5.851 8.458 10.8-1.281 4.781-7.917 5.768-12.667 2.888z"/></g><path d="m64.375 103.808c19.375 0 38.333-1.268 41.333-17.141 2.861-15.134-3.583-16.042-2.583-33.792s1.868-34.125-12.257-34.125c-7.056 0-11.743 4.583-12.91 29.75-.666 12.779-6.666 19.667-14.5 19 0 0-7.833-35.256-46.021-38.813.563 13.557 7.313 15.5 7.313 15.5h-9.875s3.375 12.557 12.375 14.432h-12.125a13.3 13.3 0 0 0 9.25 10.959s1 34.23 40 34.23z" fill="#f4a86c"/><circle cx="94.336" cy="33.247" fill="#d78759" r="3"/><path d="m90.611 74.892c0 13.652-30.242 11.18-35.832 9.567-8.009-2.293-9.872-10.373-9.872-10.373h12.7a24.026 24.026 0 0 1 -15.6-10.732h12.853a15.348 15.348 0 0 1 -9.767-9.854c28.791.833 45.518 6.5 45.518 21.392z" fill="#d78759"/></g><g fill="#111b35"><path d="m114.835 40.409c-1.067-5.208-4.452-8.79-10.325-10.93a21.91 21.91 0 0 0 -1.836-5.563l2.567-2.553a6.79 6.79 0 0 0 -5.7-11.554 6.729 6.729 0 0 0 -1.545.4 6.8 6.8 0 0 0 -13.325 0 6.793 6.793 0 0 0 -7.247 11.152l2.85 2.835a41.962 41.962 0 0 0 -2.94 11.335 1.75 1.75 0 1 0 3.465.5c2.057-14.331 6.101-15.531 10.071-15.531 3.091 0 5.406.86 7.078 2.628 4.809 5.087 4.105 17.571 3.425 29.643-.028.494-.048.972-.065 1.442 0 .017-.007.032-.007.05s0 .028 0 .043a49.842 49.842 0 0 0 1.956 16.269 30.411 30.411 0 0 1 .731 15.77c-2.743 14.513-20.3 15.715-39.61 15.715-12.885 0-22.826-3.827-29.546-11.374a1.749 1.749 0 1 0 -2.613 2.327c5.9 6.632 13.978 10.651 24.056 12.015l1.464 9.219a7.763 7.763 0 0 0 -5.029 7.253 1.75 1.75 0 0 0 1.75 1.75h32.33a1.75 1.75 0 0 0 1.75-1.75 7.759 7.759 0 0 0 -7.75-7.75h-.515l-1.375-8.667c14.249-1.183 26.09-5.183 28.53-18.083a33.738 33.738 0 0 0 -.786-17.307 46.057 46.057 0 0 1 -1.878-13.693c3.66-.408 6.446-2.522 7.3-5.711 1.061-3.983-2.1-6.221-4.647-8.019-.445-.315-.9-.635-1.328-.962a38.522 38.522 0 0 1 6.58 1.143 1.751 1.751 0 0 0 2.159-2.044zm-44.093 73.844c-.035.014-.068.033-.1.047a7.767 7.767 0 0 0 -2.849-.55h-.515l-1.3-8.194q1.7-.007 3.382-.036zm-3.282 5.5h-10.871a4.261 4.261 0 0 1 3.348-2.464 1.75 1.75 0 0 0 1.511-2.011l-1.569-9.878q1.257.088 2.55.126l1.623 10.25a1.75 1.75 0 0 0 1.728 1.477h2.01a4.18 4.18 0 0 1 2.016.509l.1.049a4.276 4.276 0 0 1 1.76 1.942zm9.592-3.977a1.75 1.75 0 0 0 1.728 1.477h2.01a4.256 4.256 0 0 1 3.873 2.5h-9.338a7.747 7.747 0 0 0 -1.385-2.953 1.678 1.678 0 0 0 .508-1.52l-1.559-9.848c.841-.03 1.678-.064 2.509-.108zm13.818-98.776a10.278 10.278 0 0 0 -8.757 4.086l-2.221-2.209a3.294 3.294 0 1 1 5.008-4.236l.12.18a1.75 1.75 0 0 0 3.2-1.132l-.17-1.848a3.3 3.3 0 1 1 6.565 0l-.17 1.85a1.75 1.75 0 0 0 3.2 1.125l.1-.148a3.294 3.294 0 1 1 5.028 4.212l-2.091 2.079c-.067-.075-.124-.161-.193-.234-2.333-2.472-5.57-3.725-9.619-3.725zm17.82 32.385a4.431 4.431 0 0 1 -3.794 3.068c.142-2.518.276-5.005.366-7.427.047.034.094.07.141.1 2.586 1.832 3.679 2.788 3.287 4.259zm-3.357-11.635c-.037-1.455-.114-2.864-.241-4.219a11.115 11.115 0 0 1 5.378 4.835 38.2 38.2 0 0 0 -5.137-.616z"/><path d="m28.048 78.85a35.813 35.813 0 0 1 -1.929-9.322 1.75 1.75 0 0 0 -1.213-1.614 11.4 11.4 0 0 1 -7.615-7.544h9.959a1.75 1.75 0 0 0 .357-3.463c-5.683-1.187-8.918-7.543-10.273-10.977h7.416a1.75 1.75 0 0 0 .483-3.432c-.051-.015-4.913-1.7-5.9-11.84 18.363 2.334 29.115 12.383 35.235 21.557-3.152-.231-6.318-.375-9.42-.465a1.7 1.7 0 0 0 -1.467.721 1.752 1.752 0 0 0 -.233 1.618 17.243 17.243 0 0 0 4.927 7.511h-6.361a1.75 1.75 0 0 0 -1.532 2.6 24.989 24.989 0 0 0 8.09 8.135h-3.665a1.751 1.751 0 0 0 -1.7 2.143c.085.371 2.2 9.115 11.092 11.662a58.827 58.827 0 0 0 13.601 1.368c7.317 0 15.586-1.069 20.33-4.638a9.606 9.606 0 0 0 4.13-7.978c0-9.165-5.7-14.7-14.025-18.05a35.6 35.6 0 0 0 1.372-8.261q.1-2.195.24-4.182a1.75 1.75 0 0 0 -3.492-.242c-.094 1.351-.175 2.771-.244 4.252a32.617 32.617 0 0 1 -1.153 7.26 82.319 82.319 0 0 0 -16.1-3.069c-6.441-10.732-18.769-23.555-41.358-25.653a1.75 1.75 0 0 0 -1.911 1.815c.288 6.994 2.183 11.186 4.12 13.668h-4.929a1.751 1.751 0 0 0 -1.691 2.2c.111.41 2.111 7.644 7.153 12.236h-5.222a1.751 1.751 0 0 0 -1.744 1.9 14.982 14.982 0 0 0 9.332 12.072 41.28 41.28 0 0 0 2.027 9.141 1.751 1.751 0 0 0 3.313-1.132zm60.813-3.958a6.194 6.194 0 0 1 -2.733 5.181c-7.566 5.693-26.961 3.831-30.867 2.7a12.5 12.5 0 0 1 -7.861-6.937h10.209a1.75 1.75 0 0 0 .343-3.466 22.516 22.516 0 0 1 -12.468-7.27h9.375a1.75 1.75 0 0 0 .625-3.384 13.553 13.553 0 0 1 -7.672-6.374c28.36 1.166 41.049 7.236 41.049 19.55z"/><path d="m30.259 84.023a1.75 1.75 0 0 0 -3.1 1.622c.431.823.89 1.63 1.365 2.4a1.75 1.75 0 1 0 2.976-1.845c-.433-.695-.85-1.428-1.241-2.177z"/><path d="m86.717 94.375a54.78 54.78 0 0 1 -6.582 1.047 1.75 1.75 0 0 0 .179 3.491 1.621 1.621 0 0 0 .184-.01 58.285 58.285 0 0 0 7-1.117 1.75 1.75 0 0 0 -.785-3.411z"/><path d="m99.086 33.247a4.75 4.75 0 1 0 -4.75 4.753 4.755 4.755 0 0 0 4.75-4.753zm-6 0a1.25 1.25 0 1 1 1.25 1.25 1.25 1.25 0 0 1 -1.25-1.25z"/></g></g></svg>