<svg id="Capa_1" enable-background="new 0 0 511.998 511.998" height="512" viewBox="0 0 511.998 511.998" width="512" xmlns="http://www.w3.org/2000/svg"><g><path d="m424.244 180.697h-16.472c-7.458-24.665-20.926-47.267-39.661-66.009-14.516-14.516-32.001-26.227-50.877-34.154.289-1.97.444-3.983.444-6.032 0-11.063-4.309-21.472-12.137-29.313-7.827-7.826-18.233-12.137-29.302-12.137h-9.064c-.808-18.362-15.998-33.05-34.555-33.05-9.239 0-17.927 3.6-24.463 10.136-.937.936-1.812 1.916-2.625 2.936-.982-1.229-2.056-2.401-3.216-3.509-6.908-6.591-15.962-9.979-25.542-9.525-18.462.875-32.925 16.39-32.925 35.321 0 21.522 8.384 41.759 23.607 56.983.588.588 1.195 1.151 1.799 1.719-31.396 20.556-54.194 51.42-64.925 86.633h-16.576c-12.291 0-23.843 4.783-32.535 13.475-8.68 8.704-13.46 20.253-13.46 32.52 0 25.362 20.634 45.995 45.995 45.995h9.878c2.844 60.79 40.08 112.735 92.647 136.776-21.365 16.604-34.158 42.239-34.158 69.865v25.17c0 4.142 3.357 7.5 7.5 7.5h184.758c4.143 0 7.5-3.358 7.5-7.5v-25.17c0-7.869-1.037-15.674-3.083-23.198-1.087-3.997-5.212-6.357-9.205-5.269-3.997 1.087-6.356 5.208-5.27 9.205 1.697 6.241 2.558 12.722 2.558 19.262v17.67h-169.759v-17.67c0-26.103 13.756-50.062 36.1-63.277 15.374 4.983 31.765 7.687 48.778 7.687 17.007 0 33.392-2.703 48.762-7.682 8.399 4.976 15.857 11.667 21.682 19.527 1.471 1.986 3.736 3.035 6.031 3.035 1.552 0 3.117-.48 4.46-1.475 3.327-2.466 4.026-7.164 1.56-10.491-4.775-6.444-10.462-12.242-16.797-17.181 52.578-24.037 89.823-75.988 92.668-136.786h9.879c12.291 0 23.843-4.783 32.528-13.468 8.684-8.684 13.467-20.236 13.467-32.527.001-25.358-20.633-45.992-45.994-45.992zm-367.485 45.995c0-8.268 3.226-16.056 9.074-21.921 5.852-5.852 13.637-9.074 21.921-9.074h12.793c-2.034 10.137-3.097 20.547-3.097 31.103v30.887h-9.696c-17.091 0-30.995-13.904-30.995-30.995zm342.788 38.498c0 79.153-64.396 143.549-143.549 143.549s-143.548-64.396-143.548-143.549v-38.39c0-50.336 26.503-97.037 69.463-122.976 3.108 1.932 6.353 3.654 9.723 5.157 3.787 1.687 8.218-.012 9.904-3.796 1.687-3.783-.012-8.217-3.795-9.904-7.351-3.277-13.973-7.834-19.681-13.543-12.391-12.391-19.214-28.861-19.214-46.377 0-10.727 8.359-19.851 18.632-20.338 5.445-.254 10.567 1.662 14.479 5.394 3.914 3.734 6.069 8.768 6.069 14.174 0 4.142 3.357 7.5 7.5 7.5s7.5-3.358 7.5-7.5c0-5.232 2.036-10.15 5.733-13.847 3.703-3.704 8.624-5.743 13.856-5.743 10.802 0 19.59 8.788 19.59 19.59v5.96c0 4.142 3.357 7.5 7.5 7.5h16.53c7.062 0 13.703 2.75 18.692 7.739 4.996 5.004 7.747 11.649 7.747 18.711 0 14.579-11.86 26.44-26.439 26.44h-51.81c-.281 0-.551.001-.831-.007-4.128-.119-7.591 3.147-7.706 7.288s3.147 7.591 7.288 7.706c.421.012.829.013 1.249.013h51.81c15.495 0 29.023-8.555 36.132-21.184 16.732 7.168 32.226 17.63 45.132 30.537 27.112 27.123 42.044 63.172 42.044 101.506zm46.618-16.577c-5.852 5.852-13.637 9.074-21.921 9.074h-9.697v-30.887c0-10.563-1.027-20.968-3.033-31.103h12.73c17.091 0 30.995 13.904 30.995 30.995 0 8.285-3.223 16.069-9.074 21.921z"/><path d="m304.877 261.244c-26.951 26.951-70.804 26.951-97.755 0-2.93-2.929-7.678-2.929-10.607 0s-2.929 7.678 0 10.606c16.4 16.4 37.943 24.6 59.485 24.6s43.085-8.2 59.485-24.6c2.929-2.929 2.929-7.678 0-10.606-2.93-2.929-7.678-2.929-10.608 0z"/><path d="m208.797 220.071c4.143 0 7.5-3.358 7.5-7.5v-29.409c0-4.142-3.357-7.5-7.5-7.5s-7.5 3.358-7.5 7.5v29.409c0 4.142 3.357 7.5 7.5 7.5z"/><path d="m303.202 220.071c4.143 0 7.5-3.358 7.5-7.5v-29.409c0-4.142-3.357-7.5-7.5-7.5s-7.5 3.358-7.5 7.5v29.409c0 4.142 3.358 7.5 7.5 7.5z"/></g></svg>