<svg id="Capa_1" enable-background="new 0 0 512 512" height="512" viewBox="0 0 512 512" width="512" xmlns="http://www.w3.org/2000/svg"><g><path d="m441.706 136.144c-22.484-34.769-54.117-62.469-91.477-80.104-3.745-1.768-8.216-.166-9.983 3.581-1.769 3.746-.165 8.216 3.581 9.984 71.787 33.887 118.173 107.051 118.173 186.395 0 19.146-2.624 38.103-7.798 56.344-1.131 3.985 1.184 8.132 5.168 9.262.685.194 1.373.287 2.051.287 3.27 0 6.275-2.154 7.211-5.455 5.553-19.573 8.368-39.907 8.368-60.438 0-42.707-12.204-84.152-35.294-119.856z"/><path d="m452.248 340.549c-3.738-1.773-8.215-.178-9.989 3.565-33.94 71.613-107.051 117.886-186.259 117.886-113.589 0-206-92.411-206-206s92.411-206 206-206c18.854 0 37.529 2.544 55.509 7.563 3.994 1.116 8.127-1.218 9.24-5.207 1.114-3.99-1.218-8.127-5.207-9.24-19.293-5.386-39.326-8.116-59.542-8.116-59.031 0-114.529 22.988-156.271 64.729s-64.729 97.24-64.729 156.271 22.988 114.529 64.729 156.271 97.24 64.729 156.271 64.729c42.646 0 84.043-12.172 119.714-35.202 34.734-22.425 62.433-53.982 80.1-91.26 1.774-3.743.177-8.215-3.566-9.989z"/><path d="m396.03 43.708 17.432 8.716 8.715 17.43c1.271 2.541 3.867 4.146 6.708 4.146s5.438-1.605 6.708-4.146l8.715-17.43 17.432-8.716c2.54-1.27 4.146-3.867 4.146-6.708s-1.605-5.438-4.146-6.708l-17.432-8.716-8.715-17.43c-1.271-2.541-3.867-4.146-6.708-4.146s-5.438 1.605-6.708 4.146l-8.715 17.43-17.432 8.716c-2.54 1.27-4.146 3.867-4.146 6.708s1.606 5.438 4.146 6.708zm26.376-9.833c1.451-.726 2.628-1.902 3.354-3.354l3.125-6.25 3.125 6.25c.726 1.452 1.902 2.628 3.354 3.354l6.25 3.125-6.251 3.125c-1.451.726-2.628 1.902-3.354 3.354l-3.125 6.25-3.125-6.25c-.726-1.452-1.902-2.628-3.354-3.354l-6.25-3.125z"/><path d="m504.5 376.5h-5v-5c0-4.142-3.357-7.5-7.5-7.5s-7.5 3.358-7.5 7.5v5h-5c-4.143 0-7.5 3.358-7.5 7.5s3.357 7.5 7.5 7.5h5v5c0 4.142 3.357 7.5 7.5 7.5s7.5-3.358 7.5-7.5v-5h5c4.143 0 7.5-3.358 7.5-7.5s-3.357-7.5-7.5-7.5z"/><path d="m102.854 468.292-17.432-8.716-8.715-17.43c-1.269-2.541-3.866-4.146-6.707-4.146s-5.438 1.605-6.708 4.146l-8.715 17.43-17.432 8.716c-2.54 1.27-4.145 3.867-4.145 6.708s1.605 5.438 4.146 6.708l17.432 8.716 8.715 17.43c1.27 2.541 3.866 4.146 6.707 4.146s5.438-1.605 6.708-4.146l8.715-17.43 17.432-8.716c2.54-1.27 4.146-3.867 4.146-6.708s-1.606-5.438-4.147-6.708zm-26.375 9.833c-1.451.726-2.628 1.902-3.354 3.354l-3.125 6.25-3.125-6.25c-.726-1.452-1.902-2.628-3.354-3.354l-6.25-3.125 6.251-3.125c1.451-.726 2.628-1.902 3.354-3.354l3.125-6.25 3.125 6.25c.726 1.452 1.902 2.628 3.354 3.354l6.249 3.125z"/><path d="m40 118c0-4.142-3.357-7.5-7.5-7.5h-5v-5c0-4.142-3.357-7.5-7.5-7.5s-7.5 3.358-7.5 7.5v5h-5c-4.143 0-7.5 3.358-7.5 7.5s3.357 7.5 7.5 7.5h5v5c0 4.142 3.357 7.5 7.5 7.5s7.5-3.358 7.5-7.5v-5h5c4.143 0 7.5-3.358 7.5-7.5z"/><path d="m201.5 224c0-25.089-20.411-45.5-45.5-45.5-10.938 0-21.51 3.938-29.77 11.09-3.132 2.711-3.472 7.448-.761 10.579 2.712 3.133 7.448 3.47 10.579.761 5.534-4.791 12.619-7.43 19.951-7.43 16.817 0 30.5 13.682 30.5 30.5s-13.683 30.5-30.5 30.5c-15.699 0-28.742-11.755-30.339-27.344-.422-4.12-4.092-7.127-8.226-6.697-4.12.422-7.118 4.104-6.696 8.225 2.384 23.269 21.842 40.816 45.262 40.816 25.089 0 45.5-20.411 45.5-45.5z"/><path d="m250.5 414c-1.62 0-3.244-.127-4.828-.379-4.092-.653-7.935 2.141-8.583 6.231-.649 4.091 2.141 7.934 6.231 8.583 2.359.375 4.774.564 7.18.564 25.089 0 45.5-20.411 45.5-45.5s-20.411-45.499-45.5-45.499-45.5 20.411-45.5 45.5c0 7.008 1.553 13.733 4.615 19.988 1.822 3.719 6.313 5.258 10.034 3.438 3.721-1.821 5.26-6.314 3.438-10.034-2.049-4.184-3.088-8.689-3.088-13.392 0-16.818 13.683-30.5 30.5-30.5s30.5 13.682 30.5 30.5-13.682 30.5-30.499 30.5z"/><path d="m355.5 142c-16.817 0-30.5 13.682-30.5 30.5s13.683 30.5 30.5 30.5 30.5-13.682 30.5-30.5-13.683-30.5-30.5-30.5zm0 46c-8.547 0-15.5-6.953-15.5-15.5s6.953-15.5 15.5-15.5 15.5 6.953 15.5 15.5-6.953 15.5-15.5 15.5z"/><path d="m403 348.5c0-16.818-13.683-30.5-30.5-30.5s-30.5 13.682-30.5 30.5 13.683 30.5 30.5 30.5 30.5-13.682 30.5-30.5zm-46 0c0-8.547 6.953-15.5 15.5-15.5s15.5 6.953 15.5 15.5-6.953 15.5-15.5 15.5-15.5-6.953-15.5-15.5z"/><path d="m287.5 110c0-12.682-10.317-23-23-23s-23 10.318-23 23 10.317 23 23 23 23-10.318 23-23zm-31 0c0-4.411 3.589-8 8-8s8 3.589 8 8-3.589 8-8 8-8-3.589-8-8z"/><path d="m229 243c0 13.785 11.215 25 25 25s25-11.215 25-25-11.215-25-25-25-25 11.215-25 25zm25-10c5.514 0 10 4.486 10 10s-4.486 10-10 10-10-4.486-10-10 4.486-10 10-10z"/><path d="m94 276c-12.131 0-22 9.869-22 22s9.869 22 22 22 22-9.869 22-22-9.869-22-22-22zm0 29c-3.859 0-7-3.14-7-7s3.141-7 7-7 7 3.14 7 7-3.141 7-7 7z"/><path d="m422 271c0-12.131-9.869-22-22-22s-22 9.869-22 22 9.869 22 22 22 22-9.869 22-22zm-22 7c-3.859 0-7-3.14-7-7s3.141-7 7-7 7 3.14 7 7-3.141 7-7 7z"/><circle cx="163.5" cy="149.504" r="7.496"/><circle cx="325.5" cy="107.5" r="7.496"/><circle cx="429.5" cy="218.503" r="7.496"/><circle cx="345.5" cy="399.5" r="7.496"/><circle cx="152.5" cy="351.5" r="7.496"/></g></svg>