<svg height="512" viewBox="0 0 512 512" width="512" xmlns="http://www.w3.org/2000/svg"><g id="Filled_outline" data-name="Filled outline"><path d="m352 200 136-112-24-24-152 96z" fill="#8bab43"/><path d="m312 160 112-136 24 24-96 152z" fill="#9bbc50"/><path d="m368 222.53a54.42 54.42 0 0 1 -19.57 41.78l-39.71 33.09-12.35 10.29-101.1 84.26-12.35 10.29-91.48 76.23a41.119 41.119 0 0 1 -57.91-57.91l6.08-7.3 11.97-14.36 10.29-12.35 18.8-22.56 10.29-12.35 18.8-22.56 10.29-12.35 55.17-66.19 10.29-12.35 18.8-22.56 10.29-12.35 18.8-22.56 10.29-12.35 4-4.8a54.334 54.334 0 0 1 70.65-11.27c.96.6 1.91 1.23 2.84 1.9a53.971 53.971 0 0 1 6.75 5.73l24.14 24.14a53.971 53.971 0 0 1 5.73 6.75c.67.93 1.3 1.88 1.9 2.84a54.334 54.334 0 0 1 8.3 28.87z" fill="#f98500"/><path d="m368 222.53a54.42 54.42 0 0 1 -19.57 41.78l-39.71 33.09-12.35 10.29-101.1 84.26-12.35 10.29-91.48 76.23a41.119 41.119 0 0 1 -57.91-57.91l6.08-7.3c115.44-29.77 234.94-98.79 308.96-232.69l3.5 3.5a53.971 53.971 0 0 1 5.73 6.75c.67.93 1.3 1.88 1.9 2.84a54.334 54.334 0 0 1 8.3 28.87z" fill="#f77c00"/><path d="m493.657 82.343-24-24a8 8 0 0 0 -9.929-1.107l-13.474 8.511 8.51-13.475a8 8 0 0 0 -1.107-9.929l-24-24a8 8 0 0 0 -11.832.572l-92.237 112 12.351 10.17 86.635-105.2 13.247 13.247-81.046 128.329-23.189-23.189a62.386 62.386 0 0 0 -92.039 4.175l-214.163 257a49.115 49.115 0 0 0 69.174 69.173l257-214.163a62.472 62.472 0 0 0 16.368-74.847l123.16-101.435a8 8 0 0 0 .571-11.832zm-150.347 175.818-40.274 33.562-25.379-25.38-11.314 11.314 24.351 24.351-101.112 84.26-15.925-15.925-11.314 11.314 14.9 14.9-90.929 75.768a33.115 33.115 0 0 1 -46.639-46.639l17.59-21.108 17.078 17.079 11.314-11.314-18.107-18.106 18.806-22.568 19.321 19.321 11.313-11.313-20.349-20.35 18.806-22.567 22.9 22.9 11.314-11.314-23.925-23.925 55.17-66.2 31.441 31.442 11.314-11.314-32.47-32.47 18.8-22.567 16.351 16.351 11.314-11.314-17.38-17.379 18.807-22.57 10.594 10.593 11.313-11.313-11.622-11.622 4.471-5.365a46.385 46.385 0 0 1 68.433-3.1l24.142 24.142a46.385 46.385 0 0 1 -3.1 68.433zm42.051-96 41.011-64.936 36.493-23.049 13.247 13.247z"/><path d="m269.167 197.846h16v30.641h-16z" transform="matrix(.707 -.707 .707 .707 -69.551 258.422)"/><path d="m226.333 290.319h16v16.028h-16z" transform="matrix(.707 -.707 .707 .707 -142.319 253.078)"/><path d="m170.333 303.006h16v38.655h-16z" transform="matrix(.707 -.707 .707 .707 -175.691 220.51)"/><path d="m121.667 392.71h16v17.913h-16z" transform="matrix(.707 -.707 .707 .707 -246.043 209.334)"/></g></svg>