<svg height="512" viewBox="0 0 512 512" width="512" xmlns="http://www.w3.org/2000/svg"><g id="Filled_outline" data-name="Filled outline"><path d="m475.62 248.55-38.32 8.56 22.17 14.77a16.943 16.943 0 0 1 4.66 4.66 17.669 17.669 0 0 1 2.97 9.81 17.072 17.072 0 0 1 -13.13 16.78 16.162 16.162 0 0 1 -12.53-2.35l-18.64-12.42a17.212 17.212 0 0 1 7.24 10.82 17.545 17.545 0 0 1 .38 3.65 17.072 17.072 0 0 1 -13.13 16.78 16.146 16.146 0 0 1 -12.52-2.35l-62.33-41.53-15.78-10.51 50.36-80.71a17.033 17.033 0 0 1 4.51-4.82 16.368 16.368 0 0 1 5.96-2.66 15.908 15.908 0 0 1 3.53-.39 16.767 16.767 0 0 1 16.24 13.56 17.665 17.665 0 0 1 -2.28 12.94l12.02-19.26a16.935 16.935 0 0 1 4.52-4.82 16.221 16.221 0 0 1 21.25 2 17.251 17.251 0 0 1 4.47 8.5v.01a17.621 17.621 0 0 1 -2.27 12.94l-14.3 22.91 38.33-8.55a15.689 15.689 0 0 1 18.64 12.42 16.207 16.207 0 0 1 -12.02 19.26z" fill="#809e39"/><path d="m442.77 181.06a461.153 461.153 0 0 1 -100.33 94.67l-15.78-10.51 50.36-80.71a17.033 17.033 0 0 1 4.51-4.82 16.368 16.368 0 0 1 5.96-2.66 15.908 15.908 0 0 1 3.53-.39 16.767 16.767 0 0 1 16.24 13.56 17.665 17.665 0 0 1 -2.28 12.94l12.02-19.26a16.935 16.935 0 0 1 4.52-4.82 16.221 16.221 0 0 1 21.25 2z" fill="#779632"/><g fill="#718f2d"><path d="m297.743 279.877-3.486-15.615 107.178-23.926a8 8 0 0 1 9.55 6.064 8 8 0 0 1 -6.064 9.551z"/><path d="m393.628 220.025a7.986 7.986 0 0 1 -2.277-11.408l6.343-8.9a8 8 0 0 1 11.022-2.553 8 8 0 0 1 2.553 11.022l-6.911 9.7a7.986 7.986 0 0 1 -10.73 2.139z"/><path d="m417.5 294.44-9.645-5.03a7.954 7.954 0 0 1 -2.941-11.463 7.954 7.954 0 0 1 10.3-2.642l11.159 5.82a8 8 0 0 1 2.222 11.093 8 8 0 0 1 -11.095 2.222z"/></g><path d="m295.03 96a16.971 16.971 0 0 0 -12 4.97l16-16a16.972 16.972 0 0 0 4.971-12 16.971 16.971 0 0 0 -16.971-16.97 16.972 16.972 0 0 0 -12 4.971l-19.03 19.029v-40a16 16 0 0 0 -32 0v40l-19.029-19.029a16.972 16.972 0 0 0 -12-4.971 16.971 16.971 0 0 0 -16.971 16.971 16.972 16.972 0 0 0 4.971 12l16 16a16.971 16.971 0 0 0 -12-4.97 16.971 16.971 0 0 0 -16.971 16.97 16.972 16.972 0 0 0 4.971 12l67.029 67.029 67.029-67.029a16.972 16.972 0 0 0 4.971-12 16.971 16.971 0 0 0 -16.97-16.971z" fill="#809e39"/><path d="m248 224h-16v-112a8 8 0 0 1 8-8 8 8 0 0 1 8 8z" fill="#718f2d"/><rect fill="#718f2d" height="25.941" rx="8" transform="matrix(.707 -.707 .707 .707 -15.447 173.05)" width="16" x="193.171" y="92.201"/><rect fill="#718f2d" height="16" rx="8" transform="matrix(.707 -.707 .707 .707 7.305 227.977)" width="25.941" x="265.858" y="97.171"/><path d="m488 88-74.66 79.18a777.222 777.222 0 0 0 -142.45 212.17 222.254 222.254 0 0 1 -44.58 64.82c-40.52 40.52-86.13 51.3-124.86 39.08-.23-.07-.46-.15-.69-.22a110.9 110.9 0 0 1 -44.25-27.54 110.766 110.766 0 0 1 -27.76-44.94c-12.22-38.73-1.44-84.34 39.08-124.86a222.2 222.2 0 0 1 62.53-43.53c69.37-32.4 133.2-75.55 190.43-126.42l103.21-91.74z" fill="#8fb045"/><path d="m455.94 55.94q-25.8 25.68-51.46 51.49c-35.78 35.96-71.43 72.07-106.56 108.66-35.65 37.13-81.07 76.6-100.46 125.01-17.05 42.56-21.15 87.87-58.82 119.44-9.87 8.27-24.03 16.08-37.88 22.49a110.9 110.9 0 0 1 -44.25-27.54 110.766 110.766 0 0 1 -27.76-44.94c-12.22-38.73-1.44-84.34 39.08-124.86a222.2 222.2 0 0 1 62.53-43.53c69.37-32.4 133.2-75.55 190.43-126.42l103.21-91.74z" fill="#9bbc50"/><path d="m104.61 480.61a23.28 23.28 0 0 1 -3.16 2.64 110.766 110.766 0 0 1 -44.94-27.76 110.766 110.766 0 0 1 -27.76-44.94 23.28 23.28 0 0 1 2.64-3.16c13.48-13.47 40.8-8.01 61.01 12.21s25.68 47.53 12.21 61.01z" fill="#aac962"/><path d="m484.942 212.234a23.111 23.111 0 0 0 -17.683-3.172l-19.69 4.392 4.187-6.708a25.454 25.454 0 0 0 3.352-18.631c-.011-.064-.024-.128-.037-.192a24.883 24.883 0 0 0 -22.571-19.876l-1 15.969a8.837 8.837 0 0 1 7.885 7.057c.01.05.019.1.03.149a9.663 9.663 0 0 1 -1.229 7.052l-14.3 22.91a8 8 0 0 0 8.527 12.044l38.331-8.55a7.229 7.229 0 0 1 5.532 1 8.4 8.4 0 0 1 -2.4 15.059l-38.32 8.56a8 8 0 0 0 -2.692 14.466l22.152 14.757a8.926 8.926 0 0 1 2.464 2.462c3.437 5.134 1.022 12.929-5.263 14.337a8.142 8.142 0 0 1 -6.342-1.2s-31.5-20.982-31.5-20.981l-8.869 13.317 12.8 8.523.113.079a9.158 9.158 0 0 1 3.8 5.787 9.508 9.508 0 0 1 .2 1.983 9.1 9.1 0 0 1 -6.887 8.975 8.118 8.118 0 0 1 -6.328-1.2l-52.769-35.155-8.872 13.315 52.773 35.157a24.393 24.393 0 0 0 13.483 4.081 23.7 23.7 0 0 0 5.212-.577 25.087 25.087 0 0 0 18.84-19.449 24.409 24.409 0 0 0 12.624 3.545 23.808 23.808 0 0 0 5.216-.576 25.2 25.2 0 0 0 19.389-24.593 25.67 25.67 0 0 0 -4.319-14.255 24.856 24.856 0 0 0 -6.876-6.873l-6.585-4.387 20.042-4.477c12.7-2.834 20.826-15.712 18.109-28.706a24.027 24.027 0 0 0 -10.529-15.418z"/><path d="m367.465 243.2h44.055v16h-44.055z" transform="matrix(.976 -.218 .218 .976 -45.379 90.912)"/><path d="m167.312 130.627 43.031 43.03 11.314-11.314-43.029-43.029a8.97 8.97 0 1 1 12.69-12.682l11.025 11.025 11.314-11.314-16-16-11.029-11.03a8.97 8.97 0 1 1 12.684-12.687l19.031 19.03a8 8 0 0 0 13.657-5.656v-40a8 8 0 0 1 16 0v40a8 8 0 0 0 13.657 5.657l19.031-19.031a8.971 8.971 0 0 1 12.685 0 8.916 8.916 0 0 1 2.627 6.344 9.029 9.029 0 0 1 -2.627 6.343l-27.03 27.03 11.314 11.314 27.031-27.031a25.143 25.143 0 0 0 7.312-17.656 24.972 24.972 0 0 0 -42.627-17.657l-5.373 5.374v-20.687a24 24 0 0 0 -48 0v20.687l-5.373-5.373a25.143 25.143 0 0 0 -17.657-7.314 24.972 24.972 0 0 0 -18.136 42.135 24.985 24.985 0 0 0 -7.522 40.492z"/><path d="m232 104h16v48h-16z"/><path d="m493.82 93.488a8 8 0 0 0 -.163-11.145l-16-16-11.314 11.314 10.507 10.507-69.331 73.528a783.416 783.416 0 0 0 -143.919 214.356 213.879 213.879 0 0 1 -42.951 62.465c-29.635 29.636-63.977 43.978-96.8 41.081a140.874 140.874 0 0 0 19.688-12.732c30.247-23.456 40.158-56.294 49.744-88.051 3.477-11.521 7.072-23.435 11.6-34.736 15.378-38.395 47.828-71 79.21-102.527 6.831-6.862 13.283-13.345 19.593-19.918 37.677-39.241 74.959-76.9 106.462-108.558 18-18.093 34.634-34.74 50.842-50.875a8.137 8.137 0 0 0 .621-.559 8.035 8.035 0 0 0 .042-11.295l-.032-.033-.079-.078-31.883-31.889a8 8 0 0 0 -10.971-.322l-103.21 91.74c-58.378 51.89-121.8 94-188.5 125.151a230.256 230.256 0 0 0 -64.8 45.121c-31.676 31.676-47.612 67.743-46.076 104.302l15.986-.67c-1.341-31.968 12.976-63.891 41.4-92.32a214.1 214.1 0 0 1 60.257-41.936c68.108-31.809 132.827-74.771 192.357-127.689l97.573-86.729 20.938 20.938c-14.624 14.573-29.67 29.636-45.805 45.859-31.552 31.709-68.9 69.429-106.661 108.761-6.211 6.469-12.614 12.9-19.392 19.712-31 31.144-66.133 66.443-82.724 107.864-4.788 11.955-8.487 24.21-12.065 36.063-9.267 30.7-18.02 59.7-44.227 80.027a123.879 123.879 0 0 1 -13.75 9.22c.619-10.7-2.7-22.656-9.647-33.988.234-15.69 6.157-40.582 22.569-63.952a227.142 227.142 0 0 1 47.39-49.308l-9.272-13.041c-1.132.806-28 20.1-51.212 53.154a142.924 142.924 0 0 0 -23.706 55.764 79.431 79.431 0 0 0 -22.895-15.259c4.687-32.877 19.654-61.313 43.526-82.535 14.049-12.485 30.873-22.318 47.145-31.828 3.886-2.272 7.906-4.621 11.84-6.977 57.418-34.365 108.191-78.565 146.011-113.238l-10.812-11.794c-37.262 34.16-87.236 77.683-143.415 111.3-3.863 2.314-7.844 4.641-11.695 6.891-16.943 9.9-34.464 20.143-49.7 33.683-26.232 23.32-42.848 54.322-48.41 90.082-12.391-1.695-23.891 1.267-31.969 9.339a31.338 31.338 0 0 0 -3.549 4.245 8 8 0 0 0 -1.064 6.983 118.107 118.107 0 0 0 29.729 48.185 118.1 118.1 0 0 0 48.189 29.737 110.206 110.206 0 0 0 33.269 5.133c34.417 0 69.414-15.944 99.654-46.184a230.082 230.082 0 0 0 46.211-67.175 767.468 767.468 0 0 1 140.986-209.984zm-431.655 356.344a103.1 103.1 0 0 1 -24.354-37.5c10.506-9.169 32.57-3.448 48.934 12.923s22.088 38.423 12.92 48.932a103.1 103.1 0 0 1 -37.5-24.355z"/><path d="m202.1 373.008 11.8 10.815c16.83-18.349 33.379-40.287 49.192-65.2 18.884-29.756 61.974-75.678 62.406-76.139l-11.658-10.965c-1.81 1.924-44.561 47.484-64.262 78.528-15.307 24.122-31.278 45.305-47.478 62.961z"/></g></svg>