<svg height="512" viewBox="0 0 512 512" width="512" xmlns="http://www.w3.org/2000/svg"><g id="Filled_outline" data-name="Filled outline"><rect fill="#804a32" height="280" rx="24" width="464" x="24" y="208"/><rect fill="#92563a" height="232" rx="24" width="464" x="24" y="208"/><path d="m456 208v136a39.972 39.972 0 0 1 -40 40h-312v-80a24 24 0 0 0 0-48v-48z" fill="#875036"/><path d="m432 168v176a39.972 39.972 0 0 1 -40 40h-312v-80a24 24 0 0 0 0-48v-80l208-152a143.875 143.875 0 0 1 144 144z" fill="#ffb531"/><path d="m432 168v176a40.008 40.008 0 0 1 -35.88 39.79l-2.09-180.14c4.42-109.49-46.79-157.64-89.66-178.73a144.028 144.028 0 0 1 127.63 143.08z" fill="#fcac1f"/><path d="m80 176v80a24 24 0 0 1 0 48v80h312a40 40 0 0 0 40-40v-128a40 40 0 0 0 -40-40z" fill="#fad86b"/><path d="m384 208h-304v48a24 24 0 0 1 0 48v48h304a16 16 0 0 0 16-16v-112a16 16 0 0 0 -16-16z" fill="#ffe287"/><path d="m464 200h-8.8v16h8.8a16.019 16.019 0 0 1 16 16v184a16.019 16.019 0 0 1 -16 16h-416a16.019 16.019 0 0 1 -16-16v-184a16.019 16.019 0 0 1 16-16h8v-16h-8a32.036 32.036 0 0 0 -32 32v232a32.036 32.036 0 0 0 32 32h416a32.036 32.036 0 0 0 32-32v-232a32.036 32.036 0 0 0 -32-32zm16 264a16.019 16.019 0 0 1 -16 16h-416a16.019 16.019 0 0 1 -16-16v-20.3a31.8 31.8 0 0 0 16 4.3h416a31.8 31.8 0 0 0 16-4.305z"/><path d="m80 392h312a47.971 47.971 0 0 0 48-48v-176c0-83.813-68.187-152-152-152a8 8 0 0 0 -4.72 1.541l-208 152a8 8 0 0 0 -3.28 6.459v80a8 8 0 0 0 8 8 16 16 0 0 1 0 32 8 8 0 0 0 -8 8v80a8 8 0 0 0 8 8zm210.579-359.976c73.807 1.376 133.421 61.846 133.421 135.976v12.261a47.8 47.8 0 0 0 -32-12.261h-287.493zm-202.579 278.964a32.005 32.005 0 0 0 0-61.976v-33.012h296a8.009 8.009 0 0 1 8 8v112a8.009 8.009 0 0 1 -8 8h-296zm0 49.012h296a24.027 24.027 0 0 0 24-24v-112a24.027 24.027 0 0 0 -24-24h-296v-16h304a32.036 32.036 0 0 1 32 32v128a32.036 32.036 0 0 1 -32 32h-304z"/><path d="m312 232a32 32 0 1 0 32 32 32.036 32.036 0 0 0 -32-32zm0 48a16 16 0 1 1 16-16 16.019 16.019 0 0 1 -16 16z"/><path d="m232 280a24 24 0 1 0 24 24 24.027 24.027 0 0 0 -24-24zm0 32a8 8 0 1 1 8-8 8.009 8.009 0 0 1 -8 8z"/><path d="m144 240h16v16h-16z"/></g></svg>