<svg height="512" viewBox="0 0 512 512" width="512" xmlns="http://www.w3.org/2000/svg"><g id="Filled_outline" data-name="Filled outline"><path d="m420.71 196.76c-11.86 50.16-42.17 95.87-73.05 136.35-26.93 35.32-56.84 69.45-90.37 98.73-7.32 6.39-14.87 12.52-22.69 18.28-53.13 39.1-122.67 57.59-175.46 7.46a112.557 112.557 0 0 1 -15.69-144.85c30.75-44.96 85.31-63.4 129.32-92.8 34.42-23 66.54-49.97 92.49-82.34 26.64-33.24 66.61-58.41 110.41-46.65a59.449 59.449 0 0 1 16.81 7.34 57.582 57.582 0 0 1 9.79 7.9c22.03 22.16 25.48 60.81 18.44 90.58z" fill="#34507b"/><path d="m420.71 196.76c-11.86 50.16-42.17 95.87-73.05 136.35-26.93 35.32-56.84 69.45-90.37 98.73-7.32 6.39-14.87 12.52-22.69 18.28-53.13 39.1-122.67 57.59-175.46 7.46a112.52 112.52 0 0 1 -30.95-51.39c142-26.88 298.62-110.36 374.08-300.01 22.03 22.16 25.48 60.81 18.44 90.58z" fill="#2f486e"/><path d="m415.453 105.277c29.283-35.109 72.547-57.277 72.547-57.277l-8.286-24c-33.737 5.429-78.234 39.681-103.731 61.5a8.026 8.026 0 0 1 -7.784 1.476c-60.635-20.346-80.842 24.724-108.459 11.976-.718-.331-3.618-2.011-3.74-2.952 0 0 4.049 61.666 70.333 45.667 0 0-16.833 24.833-5.333 63.833 0 0 32 6.5 67.571-29.5 0 0 0 40 58 40-5.321-3-9.571-11.75-8.774-17.929a109.491 109.491 0 0 0 -22.449-82.634 8.01 8.01 0 0 1 .105-10.16z" fill="#9bbc50"/><path d="m246.479 192.732 10.873 11.739c4.5-4.173 8.927-8.455 13.145-12.728l-11.387-11.243c-4.05 4.106-8.3 8.221-12.631 12.232z"/><path d="m143.219 265.245c-5.669 3.143-11.531 6.393-17.164 9.621l7.954 13.883c5.536-3.172 11.089-6.251 16.989-9.522 14.516-8.049 29.526-16.372 44-26.04a527.729 527.729 0 0 0 48.013-36.009l-10.351-12.2a511.452 511.452 0 0 1 -46.551 34.906c-13.922 9.3-28.638 17.459-42.89 25.361z"/><path d="m495.562 45.389-8.286-24a8 8 0 0 0 -8.833-5.287c-18.91 3.043-52.94 16.5-107.7 63.285-38.187-12.81-62.326-1.415-79.952 6.905-12.761 6.023-19.8 9.008-27.63 5.429-.172-.091-.434-.247-.67-.4a8 8 0 0 0 -14.473 5.221c.081 1.2 2.245 29.582 23.9 45.477 11.02 8.085 24.8 11.422 41.091 9.98-3.916 12.269-6.822 31.57.312 55.763a8 8 0 0 0 6.081 5.577c1.344.272 30.561 5.77 64.546-22.269a47.287 47.287 0 0 0 5.39 9.625 49.75 49.75 0 0 0 17.567 14.926c-8.063 23.691-23.745 57.744-65.613 112.637-30.09 39.465-59.29 71.375-89.269 97.554-7.456 6.509-14.916 12.52-22.171 17.864-27.815 20.469-56.847 32.807-83.958 35.679-31.165 3.3-58.505-5.977-81.252-27.578a104.978 104.978 0 0 1 -32.025-64.657 103.812 103.812 0 0 1 17.431-69.875c20.537-30.029 52.064-47.509 85.442-66.015 13.941-7.73 28.357-15.723 41.719-24.649 35.48-23.709 64.059-48.454 87.372-75.649l-12.142-10.412c-22.35 26.072-49.864 49.872-84.113 72.758-12.811 8.558-26.932 16.388-40.589 23.96-33.536 18.6-68.215 37.822-90.89 70.975a120.488 120.488 0 0 0 16.784 155.168c22.615 21.475 50.214 32.608 80.476 32.607a128.019 128.019 0 0 0 13.478-.721c29.93-3.17 61.659-16.554 91.76-38.706 7.611-5.606 15.419-11.9 23.207-18.695 30.8-26.9 60.72-59.575 91.469-99.9 23.64-31 52.291-71.844 67.866-116.77a102.956 102.956 0 0 0 24.684 2.804 8 8 0 0 0 3.929-14.969c-2.478-1.4-5.151-6.969-4.769-9.937a117.594 117.594 0 0 0 -24.148-88.661.043.043 0 0 1 .014-.032c27.843-33.383 69.635-55.068 70.051-55.281a8 8 0 0 0 3.914-9.731zm-86.252 54.764a16.058 16.058 0 0 0 -.191 20.3c7.937 9.85 25.846 37.031 20.744 76.59a24.2 24.2 0 0 0 .9 9.693c-12.647-2.19-22.187-7.2-28-14.812a30.241 30.241 0 0 1 -6.192-15.924 8 8 0 0 0 -13.69-5.623c-24.252 24.543-46.024 27.623-55.419 27.623h-.178a78.256 78.256 0 0 1 -.346-36.371 53.329 53.329 0 0 1 6.018-15.473 8 8 0 0 0 -8.5-12.265c-18.223 4.4-32.691 2.808-43.006-4.725-7.44-5.435-11.749-13.25-14.225-19.987 10.563.947 20.268-3.636 30.4-8.417 16.848-7.955 35.944-16.97 68.032-6.2a16.109 16.109 0 0 0 15.529-2.983c21.9-18.738 61.858-50.009 93.276-58.279l3.775 10.936c-13.276 7.576-45.237 27.515-68.927 55.917z"/><path d="m338.1 122.594 11.8 10.812c3.788-4.132 11.657-11.453 16.649-13.509l-6.095-14.797c-9.863 4.064-21.102 16.131-22.354 17.494z"/></g></svg>