<?xml version="1.0"?>
<svg xmlns="http://www.w3.org/2000/svg" viewBox="0 0 512 512" width="512" height="512"><g id="Filled_outline" data-name="Filled outline"><path d="M280,240c0,101.62-57.31,152-128,152-42.99,0-81.03-18.63-104.24-56.09C32.8,311.78,24,279.82,24,240,24,138.38,81.31,24,152,24c48.39,0,90.51,53.6,112.27,120.01C274.3,174.62,280,207.94,280,240Z" style="fill:#f2dec2"/><path d="M280,240c0,101.62-57.31,152-128,152-42.99,0-81.03-18.63-104.24-56.09,82.76-36.84,161.18-97.57,216.51-191.9C274.3,174.62,280,207.94,280,240Z" style="fill:#eed8ba"/><path d="M488,336c0,101.62-57.31,152-128,152-57.99,0-106.97-33.9-122.7-102.17A221.748,221.748,0,0,1,232,336c0-101.62,57.31-216,128-216,33.02,0,63.13,24.97,85.83,61.93C471.73,224.09,488,281.86,488,336Z" style="fill:#fae5c9"/><path d="M488,336c0,101.62-57.31,152-128,152-57.99,0-106.97-33.9-122.7-102.17,78.58-39.96,153.43-104.73,208.53-203.9C471.73,224.09,488,281.86,488,336Z" style="fill:#f2dec2"/><path d="M440,360a79.976,79.976,0,1,1-39.6-69.06A80,80,0,0,1,440,360Z" style="fill:#ffb531"/><path d="M440,360a80.006,80.006,0,0,1-156.06,24.83C336,384,392,344,400.4,290.94A79.969,79.969,0,0,1,440,360Z" style="fill:#fcac1f"/><path d="M214.165,66.733c18.53,21.7,34.428,52.591,44.765,86.988l15.323-4.606c-10.962-36.476-27.981-69.423-47.921-92.772C203.793,29.95,178.089,16,152,16c-36.106,0-70.728,26.273-97.486,73.979C30.4,132.974,16,189.057,16,240c0,49.9,13.69,91.224,39.591,119.51C79.846,386,113.183,400,152,400c22.582,0,43.432-4.8,61.971-14.256L206.7,371.492C190.433,379.792,172.029,384,152,384c-34.208,0-63.466-12.2-84.608-35.3C44.238,323.419,32,285.829,32,240c0-48.325,13.633-101.481,36.469-142.194C91.926,55.985,122.372,32,152,32,178.864,32,200.633,50.888,214.165,66.733Z"/><path d="M107.082,92.936,94.49,83.064a170.164,170.164,0,0,0-10.269,14.7l13.564,8.486A154.151,154.151,0,0,1,107.082,92.936Z"/><path d="M49.054,207.274l15.933,1.452c2.886-31.677,11.934-63.51,25.478-89.634l-14.2-7.364C61.785,139.649,52.123,173.582,49.054,207.274Z"/><path d="M457.487,185.979C430.729,138.273,396.107,112,360,112s-70.729,26.273-97.487,73.979C238.4,228.974,224,285.057,224,336c0,49.9,13.69,91.224,39.59,119.51C287.844,482,321.182,496,360,496s72.156-14,96.41-40.49C482.31,427.224,496,385.9,496,336,496,285.057,481.6,228.974,457.487,185.979ZM444.609,444.705C423.467,467.8,394.209,480,360,480s-63.467-12.2-84.609-35.3C252.238,419.419,240,381.83,240,336c0-48.326,13.633-101.482,36.468-142.194C299.925,151.985,330.371,128,360,128s60.075,23.985,83.532,65.806C466.367,234.518,480,287.674,480,336,480,381.83,467.762,419.419,444.609,444.705Z"/><path d="M360,272a88,88,0,1,0,88,88A88.1,88.1,0,0,0,360,272Zm0,160a72,72,0,1,1,72-72A72.081,72.081,0,0,1,360,432Z"/></g></svg>
