<svg viewBox="0 0 512 512" xmlns="http://www.w3.org/2000/svg"><g id="Filled_outline" data-name="Filled outline"><path d="m487.825 128c-47.737-8-107.827 5.7-143.577 42.4l-240.248 246.618a33.679 33.679 0 0 1 39.874 6.281l1 1.026a104.352 104.352 0 0 0 75.858 31.675 108.281 108.281 0 0 0 76.429-33.082l148.779-150.918c49.885-56 41.885-144 41.885-144z" fill="#6a9c46"/><ellipse cx="416.219" cy="225.608" fill="#649441" rx="39.781" ry="40"/><ellipse cx="337.457" cy="304.804" fill="#649441" rx="39.781" ry="40"/><ellipse cx="258.696" cy="384" fill="#649441" rx="39.781" ry="40"/><path d="m429.4 245.22a39.736 39.736 0 0 1 -65.77-15.33h-.01a40.184 40.184 0 0 1 9.52-41.24 39.632 39.632 0 0 1 55.09-1.13c.39.37.79.74 1.17 1.13a40.149 40.149 0 0 1 0 56.57z" fill="#9bbc50"/><ellipse cx="322.512" cy="296.13" fill="#9bbc50" rx="39.781" ry="40"/><ellipse cx="243.75" cy="375.326" fill="#9bbc50" rx="39.781" ry="40"/><path d="m429.4 245.22a39.736 39.736 0 0 1 -65.77-15.33 58.938 58.938 0 0 0 64.6-42.37c.39.37.79.74 1.17 1.13a40.149 40.149 0 0 1 0 56.57z" fill="#94b54a"/><path d="m350.638 324.416a39.736 39.736 0 0 1 -65.77-15.33 58.947 58.947 0 0 0 64.6-42.37c.39.37.79.74 1.17 1.129a40.151 40.151 0 0 1 0 56.571z" fill="#94b54a"/><path d="m271.876 403.611a39.737 39.737 0 0 1 -65.77-15.329 58.947 58.947 0 0 0 64.6-42.37c.39.37.79.74 1.17 1.129a40.149 40.149 0 0 1 0 56.57z" fill="#94b54a"/><path d="m488 128s-10 18-30.3 36-50.88 36-92.06 36h-208.39a109.273 109.273 0 0 1 -109.25-109.25v-1.45a35.1 35.1 0 0 0 -24-33.3h341.64c40.19 0 83.33 10 107.52 41.88a90.271 90.271 0 0 1 14.84 30.12z" fill="#79ad54"/><path d="m488 128s-10 18-30.3 36-50.88 36-92.06 36h-208.39a109.237 109.237 0 0 1 -103.27-73.62 132.147 132.147 0 0 0 57.58 13.2h252.29c48.42 0 84.75-20.55 109.31-41.7a90.271 90.271 0 0 1 14.84 30.12z" fill="#72a64e"/><g fill="#6a9c46"><path d="m153.433 175.979a47.62 47.62 0 0 1 -33.389-12.137 7.99 7.99 0 0 1 .591-12.315 7.973 7.973 0 0 1 10.1.4 31.755 31.755 0 0 0 22.231 8.057 32.191 32.191 0 0 0 31.034-32.502 31.741 31.741 0 0 0 -3.109-13.282 7.925 7.925 0 0 1 2.471-9.716 8.016 8.016 0 0 1 12.055 3 47.537 47.537 0 0 1 4.548 18.571c1.035 26.266-20.254 49.171-46.532 49.924z"/><path d="m267.1 175.9a47.694 47.694 0 0 1 -35.051-12.062 7.99 7.99 0 0 1 .591-12.315 7.973 7.973 0 0 1 10.1.4 31.753 31.753 0 0 0 22.226 8.057 32.19 32.19 0 0 0 31.034-32.496 31.761 31.761 0 0 0 -3.11-13.287 7.922 7.922 0 0 1 2.469-9.715 8.017 8.017 0 0 1 12.057 2.994 48.042 48.042 0 0 1 -40.316 68.424z"/><path d="m379.093 175.9a47.69 47.69 0 0 1 -35.049-12.062 7.99 7.99 0 0 1 .591-12.315 7.973 7.973 0 0 1 10.1.4 31.755 31.755 0 0 0 22.231 8.057 32.191 32.191 0 0 0 31.034-32.498 31.741 31.741 0 0 0 -3.109-13.282 7.925 7.925 0 0 1 2.471-9.716 8.016 8.016 0 0 1 12.055 3 47.662 47.662 0 0 1 4.586 20.4 48.144 48.144 0 0 1 -44.91 48.016z"/></g><path d="m495.964 127.276c-.045-.496-7.464-79.276-130.329-79.276h-341.635a8 8 0 0 0 -7.9 6.719c-.629 3.873 1.444 8.985 5.367 8.871 11.019-.319 18.533 12.16 18.533 27.155a117.254 117.254 0 0 0 117.255 117.255h197.251a48.319 48.319 0 0 0 13.143 42.862 47.629 47.629 0 0 0 67.6 0 48.242 48.242 0 0 0 3.928-63.358 158.981 158.981 0 0 0 23.832-17.517 174.8 174.8 0 0 0 17.2-17.587c-1.276 29-8.424 78.645-39.932 114.131l-148.67 150.8a101.7 101.7 0 0 1 -32.595 22.529 98.071 98.071 0 0 1 -38.175 8.14c-51.837 1.167-66.17-43.167-94.37-42.395l172.691-177.273-11.458-11.164-189.251 194.27a8 8 0 0 0 9.425 12.677c10.242-5.33 20.486-6.923 32.959 4.718 20 18.667 36.667 35.167 80.155 35.167 13.345 0 30.22-3.332 44.379-9.458a117.571 117.571 0 0 0 37.67-26.016l148.78-150.91c.095-.095.187-.194.277-.295 51.306-57.601 43.87-150.045 43.87-150.045zm-72.055 112.3a31.63 31.63 0 0 1 -44.918 0 32.265 32.265 0 0 1 -8.039-31.684 141.175 141.175 0 0 0 53.748-12.766 32.19 32.19 0 0 1 -.791 44.451zm28.07-81.193c-25.336 22.306-54.386 33.617-86.344 33.617h-208.38a101.255 101.255 0 0 1 -101.255-101.255s.25-17.745-8.189-26.745h317.824c27.511 0 51.959 4.9 70.7 14.171 21.424 10.599 35.865 26.981 42.965 48.729a154.944 154.944 0 0 1 -27.321 31.484z"/><path d="m356.489 330.057a48.221 48.221 0 0 0 0-67.853 47.63 47.63 0 0 0 -67.6 0 48.222 48.222 0 0 0 0 67.853 47.629 47.629 0 0 0 67.6 0zm-56.26-56.57a31.631 31.631 0 0 1 44.915 0 32.183 32.183 0 0 1 0 45.286 31.625 31.625 0 0 1 -44.914 0 32.184 32.184 0 0 1 -.001-45.286z"/><path d="m243.925 327.326a47.357 47.357 0 0 0 -33.8 14.074 48.223 48.223 0 0 0 0 67.852 47.63 47.63 0 0 0 67.605 0 48.223 48.223 0 0 0 0-67.852 47.361 47.361 0 0 0 -33.805-14.074zm22.457 70.643a31.626 31.626 0 0 1 -44.913 0 32.182 32.182 0 0 1 0-45.285 31.624 31.624 0 0 1 44.913 0 32.182 32.182 0 0 1 0 45.285z"/><path d="m152 176a47.636 47.636 0 0 1 -38.4-19.19l12.8-9.61a32 32 0 0 0 51.21-38.393l12.79-9.607a48 48 0 0 1 -38.4 76.8z"/><path d="m264 176a47.636 47.636 0 0 1 -38.4-19.19l12.8-9.61a32 32 0 0 0 51.2-38.4l12.8-9.609a48 48 0 0 1 -38.4 76.809z"/><path d="m376 176a47.636 47.636 0 0 1 -38.4-19.19l12.8-9.61a32 32 0 0 0 51.21-38.393l12.79-9.607a48 48 0 0 1 -38.4 76.8z"/></g></svg>