<svg height="512" viewBox="0 0 512 512" width="512" xmlns="http://www.w3.org/2000/svg"><g id="Filled_outline" data-name="Filled outline"><path d="m376 112a88.018 88.018 0 0 1 -88 88h-176a88 88 0 0 1 0-176h176a87.948 87.948 0 0 1 88 88z" fill="#92563a"/><path d="m376 112a88.018 88.018 0 0 1 -88 88h-176a87.519 87.519 0 0 1 -42.47-10.92c93.1-24.99 186.71-73.43 255.04-157.14a88 88 0 0 1 51.43 80.06z" fill="#875036"/><path d="m299.25 352h-107.25a88.012 88.012 0 0 1 -14.05-1.12c-1.47-.24-2.92-.51-4.36-.82a88 88 0 0 1 18.41-174.06h21.02l59.83 122.11z" fill="#92563a"/><path d="m299.25 352h-107.25a88.012 88.012 0 0 1 -14.05-1.12 496.281 496.281 0 0 0 94.9-52.77z" fill="#875036"/><ellipse cx="256" cy="264" fill="#fedb6d" rx="31.644" ry="99.365" transform="matrix(.872 -.49 .49 .872 -96.562 159.443)"/><path d="m136 392h96a0 0 0 0 1 0 0v64a0 0 0 0 1 0 0h-32a64 64 0 0 1 -64-64 0 0 0 0 1 0 0z" fill="#fedb6d"/><path d="m192 392h80a0 0 0 0 1 0 0v24a40 40 0 0 1 -40 40 40 40 0 0 1 -40-40v-24a0 0 0 0 1 0 0z" fill="#f7cf59"/><path d="m392 328h96a0 0 0 0 1 0 0v64a0 0 0 0 1 0 0h-32a64 64 0 0 1 -64-64 0 0 0 0 1 0 0z" fill="#f7cf59" transform="matrix(-1 0 0 -1 880 720)"/><path d="m352 328h80a0 0 0 0 1 0 0v24a40 40 0 0 1 -40 40 40 40 0 0 1 -40-40v-24a0 0 0 0 1 0 0z" fill="#fedb6d" transform="matrix(-1 0 0 -1 784 720)"/><path d="m408 232h56a0 0 0 0 1 0 0v64a0 0 0 0 1 0 0h-96a0 0 0 0 1 0 0v-24a40 40 0 0 1 40-40z" fill="#f7cf59" transform="matrix(-1 0 0 -1 832 528)"/><path d="m368 232a40 40 0 0 1 40 40v24a0 0 0 0 1 0 0h-80a0 0 0 0 1 0 0v-24a40 40 0 0 1 40-40z" fill="#fedb6d" transform="matrix(-1 0 0 -1 736 528)"/><path d="m337 424h56a0 0 0 0 1 0 0v64a0 0 0 0 1 0 0h-96a0 0 0 0 1 0 0v-24a40 40 0 0 1 40-40z" fill="#fedb6d"/><path d="m393 424a40 40 0 0 1 40 40v24a0 0 0 0 1 0 0h-80a0 0 0 0 1 0 0v-24a40 40 0 0 1 40-40z" fill="#f7cf59"/><path d="m100.3 191.15a80.014 80.014 0 0 1 .161-158.321c-.082.336-.165.665-.247 1.017-2.798 11.954-4.214 27.478-4.214 46.154h16c0-27.519 3.3-41.826 5.321-48h170.679a80 80 0 0 1 0 160h-9v16h9a96 96 0 0 0 0-192h-176a96.007 96.007 0 0 0 -14.022 190.982z"/><path d="m123.036 177.3 15.789-2.594a332.645 332.645 0 0 1 -4.041-41.687l-15.99.578a348.834 348.834 0 0 0 4.242 43.703z"/><path d="m135.969 100.029-15.938-1.409c-.03.339-.735 8.438-.815 21.33l16 .1c.075-12.175.746-19.944.753-20.021z"/><path d="m176.042 103.909c-.182 15.861.222 32.311 1.2 48.894l15.973-.94c-.953-16.211-1.347-32.283-1.171-47.772z"/><path d="m294.7 130.624c1.263-34.648-.712-68.43-.732-68.767l-15.968.952c.021.33 1.948 33.377.714 67.233z"/><path d="m334.04 144.84a440.672 440.672 0 0 0 1.89-49.7l-16 .388a431.161 431.161 0 0 1 -1.806 47.633z"/><path d="m72 104-7.59-2.53c-.369 1.108-8.848 27.542 8.435 62.108l14.31-7.156c-14.155-28.322-7.825-49.074-7.549-49.944z"/><path d="m240 56h16v16h-16z"/><path d="m248 128h16v16h-16z"/><path d="m320 56h16v16h-16z"/><path d="m144 48h16v16h-16z"/><path d="m183.211 359.594c2.917.269 5.874.406 8.789.406h107.027.078.114.031a18.662 18.662 0 0 0 12.821-4.921c18.792-17.3 1.474-72.022-25.345-117.13-23.5-39.527-51.1-66.881-70.3-69.686a24.338 24.338 0 0 0 -3.505-.254v-.009h-20.921a96 96 0 0 0 -9.112 191.564c.112.012.212.022.323.03zm30.9-175.5c11.961 1.747 36.021 23.616 58.862 62.032 13.142 22.1 23.068 45.021 27.946 64.525 5.288 21.138 2.684 30.474.312 32.658-.3.281-1.017.939-3.344.6-11.961-1.747-36.021-23.616-58.862-62.032-13.142-22.105-23.068-45.021-27.946-64.525-5.288-21.138-2.684-30.474-.312-32.658a2.757 2.757 0 0 1 2.1-.691h.094a8.174 8.174 0 0 1 1.151.091zm-102.111 79.906a80.031 80.031 0 0 1 80-80h1.562c-6.593 23.6 9.21 68.2 31.712 106.052 13.589 22.854 28.543 41.625 42.455 53.948h-75.729c-1.179 0-2.366-.03-3.554-.083-5.135-9.24-10.083-23.543-14.426-41.771l-15.565 3.708a235.624 235.624 0 0 0 10.777 34.822 79.989 79.989 0 0 1 -57.232-76.676z"/><path d="m167.919 270.867-15.839 2.265c.039.273.979 6.8 2.85 16.4l15.7-3.062c-1.784-9.17-2.701-15.539-2.711-15.603z"/><path d="m152 216h16v16h-16z"/><path d="m200 312h16v16h-16z"/><path d="m272 384h-136a8 8 0 0 0 -8 8 72.081 72.081 0 0 0 72 72h32a48.053 48.053 0 0 0 48-48v-24a8 8 0 0 0 -8-8zm-127.431 16h39.431v16a47.793 47.793 0 0 0 12.134 31.853 56.1 56.1 0 0 1 -51.565-47.853zm119.431 16a32 32 0 0 1 -64 0v-16h64z"/><path d="m424 320h-32a48.053 48.053 0 0 0 -48 48v24a8 8 0 0 0 8 8h136a8 8 0 0 0 8-8 72.081 72.081 0 0 0 -72-72zm-32 64h-32v-16a32 32 0 0 1 64 0v16zm48 0v-16a47.793 47.793 0 0 0 -12.134-31.853 56.1 56.1 0 0 1 51.565 47.853z"/><path d="m328 224a8 8 0 0 0 -8 8v24a48.053 48.053 0 0 0 48 48h56a48.055 48.055 0 0 0 48-48v-24a8 8 0 0 0 -8-8zm128 32a32.036 32.036 0 0 1 -32 32h-20.261a47.8 47.8 0 0 0 12.261-32v-16h40zm-56-16v16a32 32 0 0 1 -64 0v-16z"/><path d="m393 416h-56a48.055 48.055 0 0 0 -48 48v24a8 8 0 0 0 8 8h136a8 8 0 0 0 8-8v-24a48.053 48.053 0 0 0 -48-48zm-88 48a32.036 32.036 0 0 1 32-32h20.261a47.8 47.8 0 0 0 -12.261 32v16h-40zm120 16h-64v-16a32 32 0 0 1 64 0z"/></g></svg>