<svg viewBox="0 0 512 512" xmlns="http://www.w3.org/2000/svg"><g id="Filled_outline" data-name="Filled outline"><path d="m460 112h-.583a8.043 8.043 0 0 1 -5.687-13.73l14.27-14.27a28.284 28.284 0 0 0 0-40 28.284 28.284 0 0 0 -40 0l-14.27 14.27a8.043 8.043 0 0 1 -13.73-5.687c0-15.256-11.962-28.153-27.213-28.571a28 28 0 0 0 -28.787 27.988v56a28 28 0 0 0 -28.787-27.989c-15.251.418-27.213 13.315-27.213 28.571v115.418h116a28 28 0 0 0 28-28 28 28 0 0 0 -28-28h56a28 28 0 0 0 28-28 28 28 0 0 0 -28-28z" fill="#79ad54"/><path d="m432 144v-16h-36.686l34.343-34.343-11.314-11.314-34.343 34.343v-36.686h-16v52.686l-32 32v-36.686h-16v52.686l-117.323 117.323 11.313 11.315 117.324-117.324h52.686v-16h-36.686l32-32z" fill="#89ba66"/><path d="m354.281 439.156a30.767 30.767 0 0 0 -.274-42.006l40.274 41.718a27.339 27.339 0 0 0 40-.287 30.767 30.767 0 0 0 -.274-42.006l-.419-.434c-5.153-5.338-1.588-14.554 5.65-14.606l20.386-.147c15.779-.113 28.483-13.639 28.375-30.209s-12.987-29.913-28.767-29.8l-20.385.146c-7.238.052-10.923-9.112-5.84-14.524 10.823-11.522 11.369-30.174.7-41.851a27.354 27.354 0 0 0 -40.558-.307l-39.729 42.295a30.751 30.751 0 0 0 -.847-42.584c-11.265-11.046-29.016-10.218-39.839 1.305l-81.877 87.168 83.424 86.416a27.339 27.339 0 0 0 40-.287z" fill="#79ad54"/><path d="m424 344h-52.674l26.332-26.345-11.316-11.31-37.637 37.655h-41.391l26.343-26.343-11.314-11.314-37.657 37.657h-68.686v16h68.686l37.657 37.657 11.314-11.314-26.343-26.343h41.354l37.677 37.658 11.31-11.316-26.354-26.342h52.699z" fill="#89ba66"/><path d="m247.156 157.719a30.767 30.767 0 0 0 -42.006.274l41.718-40.274a27.339 27.339 0 0 0 -.287-40 30.767 30.767 0 0 0 -42.006.274l-.434.419c-5.338 5.153-14.554 1.588-14.606-5.65l-.147-20.386c-.113-15.776-13.639-28.483-30.209-28.376s-29.913 12.987-29.8 28.767l.146 20.385c.052 7.238-9.112 10.923-14.524 5.84-11.521-10.822-30.173-11.368-41.85-.692a27.354 27.354 0 0 0 -.307 40.558l42.294 39.727a30.751 30.751 0 0 0 -42.584.847c-11.046 11.265-10.218 29.016 1.3 39.839l87.168 81.877 86.416-83.424a27.339 27.339 0 0 0 -.282-40.005z" fill="#79ad54"/><path d="m194.343 178.343-26.343 26.343v-41.354l37.658-37.677-11.316-11.31-26.342 26.355v-52.7h-16v52.673l-26.345-26.331-11.31 11.316 37.655 37.637v41.391l-26.343-26.343-11.314 11.314 37.657 37.657v68.686h16v-68.686l37.657-37.657z" fill="#89ba66"/><path d="m248 376a112 112 0 0 1 -176.43 91.61l-47.57 20.39 20.39-47.57q-3.075-4.35-5.72-8.99a112.18 112.18 0 0 1 -10.01-87.46 108.447 108.447 0 0 1 6.3-16.34 112.324 112.324 0 0 1 50-51.36 109.972 109.972 0 0 1 15.97-6.67 112.41 112.41 0 0 1 78.31 3.04v.01a112.008 112.008 0 0 1 68.76 103.34z" fill="#bf382e"/><path d="m248 376a112 112 0 0 1 -176.43 91.61l-47.57 20.39 20.39-47.57q-3.075-4.35-5.72-8.99a120.414 120.414 0 0 0 140.57-158.78 112.008 112.008 0 0 1 68.76 103.34z" fill="#b33522"/><g fill="#ab2c22"><path d="m138 317.515h16v16.971h-16z" transform="matrix(.707 -.707 .707 .707 -187.754 198.721)"/><path d="m137.66 306.34-11.32 11.32-41.38-41.38a109.972 109.972 0 0 1 15.97-6.67z"/><path d="m84 303.716h16v56.569h-16z" transform="matrix(.707 -.707 .707 .707 -207.813 162.294)"/><path d="m64 353.373h16v45.255h-16z" transform="matrix(.707 -.707 .707 .707 -244.784 161.04)"/><path d="m53.66 346.34-11.32 11.32-13.68-13.68a108.447 108.447 0 0 1 6.3-16.34z"/><path d="m224.86 444.18-38.52-38.52 11.32-11.32 36.19 36.19z"/><path d="m190.53 473.85-28.19-28.19 11.32-11.32 30.52 30.52z"/><path d="m104 420.686h16v22.627h-16z" transform="matrix(.707 -.707 .707 .707 -272.666 205.726)"/></g><path d="m459.425 313.379h-.254l-20.333.148-1.171-.007s1.062-.924 1.173-1.043a39.238 39.238 0 0 0 10.58-27 37.936 37.936 0 0 0 -9.815-25.727 35.353 35.353 0 0 0 -52.286-.39l-18.406 19.6a38.055 38.055 0 0 0 -10.742-20.121 35.018 35.018 0 0 0 -25.382-10.105 36.355 36.355 0 0 0 -25.89 11.65l-53.013 56.439 11.662 10.955 53.011-56.437a20.48 20.48 0 0 1 14.555-6.611 18.963 18.963 0 0 1 13.855 5.534c12.37 12.37 2.647 28.471.193 32.623-2.579 4.364-1.68 7.84.867 10.164a8 8 0 0 0 11.221-.433l.023-.024 39.708-42.276a19.483 19.483 0 0 1 14.3-6.315h.132a19.554 19.554 0 0 1 14.39 6.55 21.98 21.98 0 0 1 5.621 14.928 23.3 23.3 0 0 1 -6.237 16.039 16.778 16.778 0 0 0 -3.108 18.236 15.907 15.907 0 0 0 14.719 9.775h.115l20.377-.15a19.714 19.714 0 0 1 14.45 6.2 22.6 22.6 0 0 1 6.26 15.651c.081 12.132-9.089 22.072-20.435 22.158l-20.391.14a15.929 15.929 0 0 0 -14.692 10 16.755 16.755 0 0 0 3.318 18.13l.454.477a22.709 22.709 0 0 1 .194 30.967 19.525 19.525 0 0 1 -14.177 6.321h-.133a19.492 19.492 0 0 1 -14.1-6.112l-40.238-41.685-.032-.034a7.765 7.765 0 0 0 -8.5-2.007 8.048 8.048 0 0 0 -3.014 13.119 22.716 22.716 0 0 1 .2 30.974 19.538 19.538 0 0 1 -14.183 6.32h-.129a19.5 19.5 0 0 1 -14.107-6.113l-64.358-66.665q-.264-3.641-.746-7.219h29.755l37.657 37.657 11.314-11.314-26.343-26.346h41.354l37.677 37.658 11.31-11.316-26.355-26.342h52.7v-16h-52.674l26.332-26.345-11.316-11.31-37.637 37.655h-41.391l26.343-26.343-11.314-11.314-37.657 37.657h-33.025a119.891 119.891 0 0 0 -25.382-46.965l65.035-65.035h111.986c19.389 0 35.831-15.047 36.666-34.418a35.823 35.823 0 0 0 -6.046-21.582h25.4c19.658 0 36.2-15.479 36.665-35.133a36.04 36.04 0 0 0 -35.985-36.867l-.583.04c-.027-.027-.058-.1-.03-.113l13.754-13.754a37.237 37.237 0 0 0 11.143-25.973 36.163 36.163 0 0 0 -13.828-28.71 35.725 35.725 0 0 0 -17.85-7.49 36.174 36.174 0 0 0 -30.263 10.345l-14.243 14.297c-.038 0-.114-.033-.1-.06 0-19.635-15.7-36.039-34.994-36.568a35.788 35.788 0 0 0 -26.424 10.493 36.887 36.887 0 0 0 -10.582 26.193v25.353a35.848 35.848 0 0 0 -21.006-6.039c-19.294.529-34.994 16.933-34.994 36.568v112.1l-65.035 65.035a120.368 120.368 0 0 0 -28.106-18.393l66.141-63.848a35.346 35.346 0 0 0 -.359-51.587 37.958 37.958 0 0 0 -19.6-9.7l19.391-18.717a35.338 35.338 0 0 0 -.369-51.587c-14.722-13.827-38.513-13.671-53 .314l-.476.454a.576.576 0 0 1 -.508.19 1.063 1.063 0 0 1 -.544-.187l-.139-20.341c-.153-20.081-17.172-36.32-38-36.32h-.267a38.537 38.537 0 0 0 -26.659 10.754 35.64 35.64 0 0 0 -11.09 26.079l.148 20.334a1.064 1.064 0 0 1 -.535.187.64.64 0 0 1 -.516-.19 39.241 39.241 0 0 0 -27-10.579 37.938 37.938 0 0 0 -25.725 9.82 35.353 35.353 0 0 0 -.389 52.285l19.6 18.406a38.076 38.076 0 0 0 -20.122 10.742 34.985 34.985 0 0 0 -10.1 25.384 36.354 36.354 0 0 0 11.642 25.883l43.765 41.107 10.952-11.661-43.761-41.106a20.473 20.473 0 0 1 -6.609-14.553 19.107 19.107 0 0 1 5.532-13.857 22.856 22.856 0 0 1 31.4-.619 8.029 8.029 0 0 0 12.818-2.587 7.88 7.88 0 0 0 -1.863-9.075l-.029-.026-42.272-39.7a19.357 19.357 0 0 1 .235-28.823 21.984 21.984 0 0 1 14.929-5.62 23.3 23.3 0 0 1 16.038 6.237 16.778 16.778 0 0 0 18.237 3.107 15.908 15.908 0 0 0 9.775-14.832l-.15-20.378a19.775 19.775 0 0 1 6.2-14.449 22.6 22.6 0 0 1 15.653-6.265h.16c12.058 0 21.911 9.14 22 20.436l.14 20.391a15.93 15.93 0 0 0 10 14.693 16.761 16.761 0 0 0 18.131-3.32l.472-.451a22.712 22.712 0 0 1 30.967-.195 19.342 19.342 0 0 1 .211 28.413l-41.477 40.033a8.225 8.225 0 0 0 -.61 11.368 8 8 0 0 0 11.479.378 22.717 22.717 0 0 1 30.975-.2 19.347 19.347 0 0 1 .2 28.415l-71.525 69.059q-1.173-.351-2.356-.681v-33.025l37.657-37.657-11.314-11.314-26.343 26.343v-41.354l37.658-37.677-11.316-11.31-26.342 26.355v-52.7h-16v52.673l-26.345-26.331-11.31 11.316 37.655 37.637v41.391l-26.343-26.343-11.314 11.314 37.657 37.657v29.755a120.017 120.017 0 0 0 -136 118.931 119.209 119.209 0 0 0 19.311 65.3l-19.243 44.651a7.563 7.563 0 0 0 1.69 8.43 7.56 7.56 0 0 0 8.242 1.509l44.705-19.2a120.012 120.012 0 0 0 184.505-86.921l53.314 55.231a35.351 35.351 0 0 0 25.614 11h.239a35.387 35.387 0 0 0 25.734-11.359 37.973 37.973 0 0 0 9.7-19.6l18.717 19.392a35.339 35.339 0 0 0 51.587-.37c13.827-14.721 13.672-38.512-.311-53l-1.488-1.5 21.369-.172c20.165-.154 36.458-17.319 36.319-38.263a38.532 38.532 0 0 0 -10.753-26.658 35.639 35.639 0 0 0 -25.826-11.091zm-163.425-204.797c0-11.051 8.717-20.28 19.433-20.574a20 20 0 0 1 20.567 19.992 8 8 0 0 0 16 0v-56a20 20 0 0 1 20.567-19.992c10.716.292 19.433 9.523 19.433 20.575a16.043 16.043 0 0 0 27.387 11.344l14.27-14.27a20.284 20.284 0 0 1 28.686 28.686l-14.27 14.27a16.043 16.043 0 0 0 11.344 27.387h.583a20 20 0 0 1 0 40h-56a8 8 0 0 0 0 16 20 20 0 0 1 0 40h-96.686l24-24h52.686v-16h-36.686l32-32h52.686v-16h-36.686l34.343-34.343-11.314-11.314-34.343 34.343v-36.686h-16v52.686l-32 32v-36.686h-16v52.686l-24 24zm-68.081 316.023-30.262-30.262-11.314 11.314 32.778 32.778a104.922 104.922 0 0 1 -20.686 20.686l-24.778-24.778-11.314 11.314 22.262 22.262a103.359 103.359 0 0 1 -48.605 12.081c-32.125 0-59.826-18.926-59.826-18.926l-.2-.127a8.185 8.185 0 0 0 -7.561-.686l-29.182 12.508 12.507-29.183a8 8 0 0 0 -.813-7.759 104.086 104.086 0 0 1 -15.754-85.342l7.172 7.172 11.314-11.314-12.657-12.653a104.656 104.656 0 0 1 49.952-51.42l35.387 35.387 11.314-11.314-30.319-30.323a103.916 103.916 0 0 1 32.3-3.958c53.862 1.848 97.766 45.2 100.255 99.037a103.482 103.482 0 0 1 -11.97 53.506z"/><path d="m138 317.515h16v16.971h-16z" transform="matrix(.707 -.707 .707 .707 -187.754 198.721)"/><path d="m84 303.716h16v56.569h-16z" transform="matrix(.707 -.707 .707 .707 -207.813 162.294)"/><path d="m64 353.373h16v45.255h-16z" transform="matrix(.707 -.707 .707 .707 -244.784 161.04)"/><path d="m104 420.686h16v22.627h-16z" transform="matrix(.707 -.707 .707 .707 -272.666 205.726)"/></g></svg>