<?xml version="1.0"?>
<svg xmlns="http://www.w3.org/2000/svg" viewBox="0 0 512 512" width="512" height="512"><g id="Filled_outline" data-name="Filled outline"><path d="M328,248A120.01,120.01,0,0,1,208,368H144a120,120,0,0,1,0-240h64A120.009,120.009,0,0,1,328,248Z" style="fill:#f35244"/><path d="M192,112l48-24-32,56,40,40-56-8-16,48-16-48-56,8,40-40L112,88l48,24V90.6A70.2,70.2,0,0,1,208,24h0l8,24h0a53.9,53.9,0,0,0-24,44.844Z" style="fill:#79ad54"/><path d="M192,136a8,8,0,0,1-8-8V112a8,8,0,0,1,16,0v16A8,8,0,0,1,192,136Z" style="fill:#6a9c46"/><path d="M160,136a8,8,0,0,1-8-8V112a8,8,0,0,1,16,0v16A8,8,0,0,1,160,136Z" style="fill:#6a9c46"/><path d="M328,248A120.01,120.01,0,0,1,208,368H144A119.978,119.978,0,0,1,41.29,310.1c121.33-5.15,206.82-46.67,258.17-139.78A119.493,119.493,0,0,1,328,248Z" style="fill:#e64c3f"/><path d="M488,368A120.01,120.01,0,0,1,368,488H304a120,120,0,0,1,0-240h64A120.007,120.007,0,0,1,488,368Z" style="fill:#fc685b"/><path d="M300,312a20,20,0,0,1,20,20V294.878A14.878,14.878,0,0,0,305.122,280H304a88.1,88.1,0,0,0-88,88.868c.47,48.446,40.67,87.132,89.118,87.132h0A14.878,14.878,0,0,0,320,441.122V396a20,20,0,1,1-35.972-12H284a20,20,0,0,1,0-40h.028A19.973,19.973,0,0,1,300,312Z" style="fill:#e04538"/><path d="M366.878,280h0A14.878,14.878,0,0,0,352,294.878V332a20,20,0,1,1,35.972,12H388a20,20,0,0,1,0,40h-.028A19.991,19.991,0,1,1,352,396v45.122A14.878,14.878,0,0,0,366.878,456H368a88.1,88.1,0,0,0,88-88.868C455.526,318.686,415.326,280,366.878,280Z" style="fill:#e04538"/><path d="M70,186.9a96.521,96.521,0,0,0-11.493,17.45l14.238,7.3a80.435,80.435,0,0,1,9.585-14.55Z"/><path d="M51.645,221.766a95.967,95.967,0,0,0,11.931,78.609l13.4-8.75a79.982,79.982,0,0,1-9.938-65.482Z"/><path d="M183.59,226.53l13.889-41.666,49.389,7.056a8,8,0,0,0,6.789-13.577l-35.679-35.679,3.355-5.871A112.083,112.083,0,0,1,317.2,223.005l15.6-3.555a128.084,128.084,0,0,0-102.947-97.572l17.091-29.909a8,8,0,0,0-10.524-11.124L200,99.056V92.845a45.807,45.807,0,0,1,20.438-38.189,8,8,0,0,0,3.152-9.186l-8-24a8,8,0,0,0-10.119-5.06A78.1,78.1,0,0,0,152,90.6v8.459L115.578,80.845a8,8,0,0,0-10.524,11.124l17.088,29.905A128,128,0,0,0,144,376h14V360H144a112.006,112.006,0,0,1-13.335-223.212l3.357,5.876L98.343,178.343a8,8,0,0,0,6.789,13.577l49.389-7.056L168.41,226.53a8,8,0,0,0,15.18,0Zm-16-53.06A8,8,0,0,0,160.005,168a8.125,8.125,0,0,0-1.137.081l-32.241,4.607,23.03-23.03a8,8,0,0,0,1.289-9.626l-18.891-33.059L152,116.944V128h16V90.6A62.112,62.112,0,0,1,203.1,34.6l3.476,10.432A61.753,61.753,0,0,0,184,92.845V128h16V116.944l19.945-9.972-18.891,33.059a8,8,0,0,0,1.289,9.626l23.03,23.03-32.241-4.607a8,8,0,0,0-8.722,5.39L176,198.7Z"/><path d="M368,240H304a128,128,0,0,0,0,256h64a128,128,0,0,0,0-256Zm0,240H304a112,112,0,0,1,0-224h64a112,112,0,0,1,0,224Z"/><path d="M305.122,272H304a95.628,95.628,0,0,0-50.78,14.556l8.486,13.564A79.654,79.654,0,0,1,304,288h1.122A6.885,6.885,0,0,1,312,294.878V306.7a28.011,28.011,0,0,0-39.271,31.665,28,28,0,0,0,0,51.262A28,28,0,0,0,312,421.3v19.826A6.885,6.885,0,0,1,305.122,448c-44.306,0-80.7-35.533-81.118-79.209a80.092,80.092,0,0,1,26.44-60.166L239.722,296.75A96.1,96.1,0,0,0,208,368.945C208.513,421.358,252.079,464,305.122,464A22.9,22.9,0,0,0,328,441.122V396a8,8,0,0,0-16,0,12,12,0,0,1-24,0,11.873,11.873,0,0,1,2.421-7.191A8,8,0,0,0,284.028,376h-.145a12,12,0,0,1,0-24h.145a8,8,0,0,0,6.393-12.811A11.873,11.873,0,0,1,288,332a12,12,0,0,1,24,0,8,8,0,0,0,16,0V294.878A22.9,22.9,0,0,0,305.122,272Z"/><path d="M366.878,272A22.9,22.9,0,0,0,344,294.878V332a8,8,0,0,0,16,0,12,12,0,0,1,24,0,11.873,11.873,0,0,1-2.421,7.191A8,8,0,0,0,388.117,352a12,12,0,0,1,0,24,8,8,0,0,0-6.538,12.81A11.873,11.873,0,0,1,384,396a12,12,0,0,1-24,0,8,8,0,0,0-16,0v45.122A22.9,22.9,0,0,0,366.878,464H368a96.1,96.1,0,0,0,96-96.945C463.487,314.642,419.921,272,366.878,272Zm57.937,152.263A79.428,79.428,0,0,1,368,448h-1.122A6.885,6.885,0,0,1,360,441.122V421.3a28.011,28.011,0,0,0,39.271-31.665,28,28,0,0,0,0-51.262A28,28,0,0,0,360,306.7V294.878A6.885,6.885,0,0,1,366.878,288c44.306,0,80.695,35.533,81.118,79.209A79.435,79.435,0,0,1,424.815,424.263Z"/></g></svg>
