<svg id="Layer_1" enable-background="new 0 0 512.006 512.006" height="512" viewBox="0 0 512.006 512.006" width="512" xmlns="http://www.w3.org/2000/svg"><g><g clip-rule="evenodd" fill-rule="evenodd"><path d="m423.375 29.346c10.297 28.227 4.652 52.071-1.491 81.436-3.103-1.898-6.291-3.791-9.562-5.679-9.499-5.484-18.683-10.34-27.533-14.55 1.92-18.318-.517-36.495-6.829-53.797-3.786-10.356 1.541-21.821 11.898-25.607 10.356-3.785 27.434 1.556 33.517 18.197z" fill="#c68a65"/><path d="m384.789 90.554c8.85 4.21 18.034 9.065 27.533 14.55 3.271 1.889 6.458 3.782 9.562 5.679 81.332 49.741 104.829 102.649 51.516 152.223-2.082 1.936-5.3 1.958-9.392.535-21.744-7.56-68.179-55.894-100.211-74.388-32.032-18.493-97.108-34.541-114.527-49.591-3.279-2.832-4.869-5.63-4.233-8.401 15.092-65.802 65.696-75.834 139.752-40.607z" fill="#ff9346"/><path d="m363.796 189.153c32.032 18.494 78.468 66.828 100.213 74.385-95.791 165.914-168.257 107.057-211.687 118.694-11.637-43.43-98.842-76.758-3.053-242.67 17.419 15.05 82.495 31.098 114.527 49.591z" fill="#c68a65"/><path d="m41.688 184.368c-2.64 29.93 8.983 51.501 22.518 78.276 2.506-2.636 5.095-5.29 7.766-7.961 7.756-7.756 15.371-14.823 22.829-21.18-6.595-17.197-8.946-35.385-7.327-53.732.976-10.983-7.136-20.679-18.12-21.655-10.983-.976-26.097 8.604-27.666 26.252z" fill="#c68a65"/><path d="m94.801 233.503c-7.459 6.357-15.073 13.424-22.829 21.18-2.671 2.671-5.259 5.324-7.766 7.961-65.687 69.096-74.689 126.283-10.362 160.369 2.513 1.332 5.626.519 9.211-1.914 19.046-12.93 51.39-71.635 77.544-97.789s84.86-58.497 97.789-77.544c2.434-3.585 3.246-6.698 1.914-9.211-31.61-59.653-83.085-56.246-145.501-3.052z" fill="#ff9346"/><path d="m140.598 323.309c-26.154 26.154-58.497 84.86-77.546 97.787 135.469 135.469 190.232 59.861 235.194 59.861 0-44.962 75.608-99.725-59.858-235.191-12.93 19.046-71.636 51.389-97.79 77.543z" fill="#c68a65"/></g><g><path d="m215.829 451.566c-11.743 1.339-23.59-.655-37.292-6.274-5.112-2.096-10.952.349-13.046 5.458-2.095 5.11.349 10.951 5.458 13.046 13.328 5.465 25.833 8.161 37.966 8.161 3.081 0 6.14-.174 9.18-.521 5.487-.625 9.429-5.581 8.803-11.068-.626-5.486-5.581-9.428-11.069-8.802z"/><path d="m511.575 200.431c-3.61-31.89-29.986-63.609-78.47-94.435 5.721-27.369 10.105-51.458-.338-80.083-3.673-10.05-10.893-18.002-20.33-22.392-8.496-3.953-18.221-4.611-26.012-1.764-7.518 2.748-13.516 8.259-16.888 15.518-3.373 7.259-3.717 15.396-.971 22.908 4.225 11.58 6.497 23.381 6.816 35.228-39.038-16.267-70.965-19.175-95.242-8.599-22.561 9.829-37.651 30.727-44.85 62.112-1.016 4.43-.105 8.324 1.864 11.712-9.97 17.76-18.234 34.726-24.665 50.639-7.092-3.971-14.679-6.579-22.748-7.791-26.187-3.932-56.274 7.141-89.772 32.958-2.758-11.525-3.617-23.511-2.533-35.785.708-7.973-1.729-15.745-6.866-21.883s-12.356-9.91-20.329-10.619c-8.261-.737-17.486 2.419-24.67 8.437-7.979 6.683-12.895 16.233-13.843 26.897-2.677 30.345 7.792 52.48 20.402 77.435-38.855 42.324-56.122 79.789-51.356 111.526 3.655 24.337 19.935 44.321 48.388 59.399 2.461 1.304 4.913 1.86 7.315 1.86 1.518 0 3.015-.229 4.48-.626 45.697 44.634 86.626 69.786 124.974 76.826 7.977 1.464 15.5 2.089 22.616 2.089 24.04 0 43.402-7.135 59.69-13.138 11.507-4.241 21.444-7.903 30.009-7.903 5.523 0 10-4.477 10-10 0-8.564 3.663-18.502 7.903-30.009 5.912-16.042 12.915-35.069 13.126-58.608 22.165-2.633 42.572-10.852 62.145-25.033 26.785-19.407 52.239-49.773 77.713-92.729.019 0 .038.002.057.002 3.899 0 7.707-1.171 11.019-4.251 23.581-21.928 34.134-45.445 31.366-69.898zm-124.223-167.108c-.914-2.5-.799-5.207.322-7.621s3.116-4.247 5.617-5.161c2.149-.786 6.243-.966 10.709 1.113 3.251 1.513 7.623 4.67 9.979 11.119 7.755 21.258 5.405 40.092.949 62.31-6.718-3.826-13.276-7.344-19.661-10.534.853-17.252-1.796-34.452-7.915-51.226zm-335.703 151.93c.608-6.845 4.013-11.026 6.763-13.329 3.777-3.165 7.781-4.052 10.057-3.847 2.651.235 5.052 1.49 6.76 3.531 1.708 2.042 2.519 4.626 2.283 7.284-1.569 17.779.327 35.079 5.614 51.521-5.343 4.735-10.767 9.831-16.267 15.266-10.053-20.308-17.198-37.891-15.21-60.426zm-31.097 184.227c-4.205-28.005 16.021-65.256 58.491-107.727 38.802-38.803 73.245-59.035 100.263-59.035 2.554 0 5.045.181 7.464.544 17.259 2.592 31.977 14.785 43.767 36.251-1.002 1.688-4.058 5.67-13.21 13.118-8.762 7.129-20.156 15.121-32.22 23.581-19.019 13.338-38.685 27.131-51.579 40.025-12.893 12.894-26.686 32.56-40.024 51.579-8.46 12.063-16.452 23.458-23.581 32.22-7.448 9.153-11.43 12.208-13.118 13.21-21.468-11.789-33.661-26.506-36.253-43.766zm276.831 74.552c-3.509 9.521-6.873 18.647-8.351 27.711-9.063 1.479-18.19 4.842-27.711 8.351-39.678 14.625-88.826 32.713-183.575-58.596 1.44-1.519 2.683-2.939 3.686-4.084 8.63-9.858 18.255-23.583 28.445-38.113 12.847-18.317 26.131-37.259 37.792-48.92 11.662-11.662 30.604-24.946 48.921-37.792 14.53-10.19 28.254-19.815 38.113-28.445 1.145-1.003 2.566-2.248 4.084-3.687 91.309 94.748 73.219 143.895 58.596 183.575zm30.443-71.636c-.191-1.242-.396-2.491-.628-3.755-7.04-38.348-32.193-79.277-76.828-124.976 1.024-3.782.896-7.778-1.232-11.793-5.953-11.235-12.675-20.563-20.124-27.974 5.968-15.567 13.897-32.341 23.668-50.046 1.84.998 3.536 1.834 4.902 2.506 11.756 5.784 27.504 11.529 44.176 17.612 21.019 7.668 42.753 15.597 57.036 23.843 14.282 8.246 32.017 23.104 49.167 37.473 13.604 11.397 26.453 22.163 37.34 29.452 1.265.847 2.834 1.896 4.617 2.991-50.193 83.159-92.529 100.97-122.094 104.667zm140.187-118.057c-1.89-.532-6.527-2.452-16.09-9.366-9.154-6.618-19.822-15.556-31.116-25.018-17.807-14.919-36.219-30.345-52.011-39.462s-38.357-17.35-60.181-25.312c-13.842-5.05-26.917-9.82-37.225-14.438-10.769-4.825-14.75-7.881-16.156-9.252 5.832-23.787 16.892-39.373 32.893-46.343 25.962-11.311 67.18-1.416 119.195 28.616 52.016 30.031 81.193 60.778 84.379 88.917 1.964 17.342-6.004 34.714-23.688 51.658z"/><path d="m135.855 421.897h-.007c-5.523 0-9.996 4.477-9.996 10s4.48 10 10.003 10 10-4.477 10-10-4.477-10-10-10z"/></g></g></svg>