<?xml version="1.0" encoding="UTF-8"?>
<svg xmlns="http://www.w3.org/2000/svg" id="Filled" viewBox="0 0 512 512" width="512" height="512"><path d="M232,184h0a24,24,0,0,0-24,24V80a24,24,0,0,0-48,0V48a24,24,0,0,0-48,0V80a24,24,0,0,0-48,0v40a24,24,0,0,0-48,0V360l16,32v16H240V392l16-32V208A24,24,0,0,0,232,184Z" style="fill:#e07e30"/><rect x="24" y="392" width="224" height="96" rx="16" ry="16" style="fill:#c46f2a"/><path d="M472,184h0a24,24,0,0,0-24,24V80a24,24,0,0,0-48,0V48a24,24,0,0,0-48,0V80a24,24,0,0,0-48,0v40a24,24,0,0,0-48,0V360l16,32v16H480V392l16-32V208A24,24,0,0,0,472,184Z" style="fill:#e07e30"/><rect x="264" y="392" width="224" height="96" rx="16" ry="16" style="fill:#c46f2a"/><path d="M112,240a8,8,0,0,0-8,8v96a8,8,0,0,0,16,0V248A8,8,0,0,0,112,240Z"/><path d="M71.871,254.569a8,8,0,1,0-15.742,2.862l16,88a8,8,0,0,0,15.742-2.862Z"/><path d="M161.431,248.129a8,8,0,0,0-9.3,6.44l-16,88a8,8,0,1,0,15.742,2.862l16-88A8,8,0,0,0,161.431,248.129Z"/><path d="M472,176a31.808,31.808,0,0,0-16,4.294V80a31.991,31.991,0,0,0-48-27.706V48a32,32,0,0,0-64,0v4.294A31.991,31.991,0,0,0,296,80V92.294A31.991,31.991,0,0,0,248,120v60.305a31.921,31.921,0,0,0-32-.011V80a31.991,31.991,0,0,0-48-27.706V48a32,32,0,0,0-64,0v4.294A31.991,31.991,0,0,0,56,80V92.294A31.991,31.991,0,0,0,8,120V360a7.994,7.994,0,0,0,.845,3.578l13.889,27.778A23.908,23.908,0,0,0,16,408v64a24.027,24.027,0,0,0,24,24H232a24.027,24.027,0,0,0,24-24V408a23.908,23.908,0,0,0-6.734-16.644L256,377.888l8.845,17.69a7.969,7.969,0,0,0,1.507,2.066A23.865,23.865,0,0,0,264,408v64a24.027,24.027,0,0,0,24,24H480a24.027,24.027,0,0,0,24-24V408a24.02,24.02,0,0,0-12.52-21.071l11.675-23.351A7.994,7.994,0,0,0,504,360V208A32.036,32.036,0,0,0,472,176ZM48,480H40a8.009,8.009,0,0,1-8-8V408a8.009,8.009,0,0,1,8-8h8Zm32,0H64V400H80Zm32,0H96V400h16Zm32,0H128V400h16Zm32,0H160V400h16Zm32,0H192V400h16Zm32-8a8.009,8.009,0,0,1-8,8h-8V400h8a8.009,8.009,0,0,1,8,8Zm8-113.889L235.056,384H36.944L24,358.111V120a16,16,0,0,1,32,0v88a8,8,0,0,0,16,0V80a16,16,0,0,1,32,0V184a8,8,0,0,0,16,0V48a16,16,0,0,1,32,0V184a8,8,0,0,0,16,0V80a16,16,0,0,1,32,0V272a8,8,0,0,0,16,0V208a16,16,0,0,1,32,0ZM296,480h-8a8.009,8.009,0,0,1-8-8V408a8.009,8.009,0,0,1,8-8h8Zm32,0H312V400h16Zm32,0H344V400h16Zm32,0H376V400h16Zm32,0H408V400h16Zm32,0H440V400h16Zm32-8a8.009,8.009,0,0,1-8,8h-8V400h8a8.009,8.009,0,0,1,8,8Zm0-113.889L475.056,384H276.944L264,358.111V120a16,16,0,0,1,32,0v88a8,8,0,0,0,16,0V80a16,16,0,0,1,32,0V184a8,8,0,0,0,16,0V48a16,16,0,0,1,32,0V184a8,8,0,0,0,16,0V80a16,16,0,0,1,32,0V272a8,8,0,0,0,16,0V208a16,16,0,0,1,32,0Z"/><path d="M352,240a8,8,0,0,0-8,8v96a8,8,0,0,0,16,0V248A8,8,0,0,0,352,240Z"/><path d="M311.871,254.569a8,8,0,0,0-15.742,2.862l16,88a8,8,0,1,0,15.742-2.862Z"/><path d="M401.431,248.129a8,8,0,0,0-9.3,6.44l-16,88a8,8,0,1,0,15.742,2.862l16-88A8,8,0,0,0,401.431,248.129Z"/></svg>
