<?xml version="1.0" encoding="UTF-8"?>
<svg xmlns="http://www.w3.org/2000/svg" id="Layer_1" data-name="Layer 1" viewBox="0 0 512 512" width="512" height="512"><path d="M56,192V416c0,33.137,71.87,88,200,88s200-54.863,200-88V192Z" style="fill:#ffa127"/><path d="M256,297.319S255.333,248,200,264C200,264,207.667,319.986,256,297.319Z" style="fill:#869644"/><circle cx="184" cy="399.649" r="56" style="fill:#ef4e2e"/><circle cx="328" cy="399.649" r="56" style="fill:#ef4e2e"/><path d="M56,192V416c0,25.948,44.073,65.215,124.717,81.033a93.316,93.316,0,0,1-24.558-21.879,75.847,75.847,0,0,1-15.977-46.977V192Z" style="fill:#fff;opacity:0.30000000000000004"/><path d="M414,129c44.357,10.929,74,25.905,74,43v4c0,11.685-16.732,9.347-39.075,18.569-12.984,5.359-23.219,29.167-41.885,33.213-14.935,3.237-34.811-13.7-52.594-11.511-15.69,1.933-30.562,23.333-47.955,24.32C290.411,241.5,273.14,222,256,222s-34.412,19.5-50.493,18.591c-17.393-.987-32.267-22.387-47.957-24.32-17.784-2.192-37.661,14.747-52.6,11.509-18.667-4.046-28.9-27.854-41.884-33.214C40.73,185.345,24,187.684,24,176v-4c0-17.095,28.643-33.071,73-44Z" style="fill:#c53c0a"/><path d="M256,152c-88.365,0-160-24.724-160-55.222v24C96,151.276,167.635,176,256,176s160-24.724,160-55.222v-24C416,127.276,344.366,152,256,152Z" style="fill:#a0300d"/><path d="M96,64V96.778C96,127.276,167.635,152,256,152s160-24.724,160-55.222V64Z" style="fill:#c53c0a"/><path d="M96,96.778v24A20.29,20.29,0,0,0,97.362,128H97c-44.357,10.929-73,26.905-73,44v4c0,11.684,16.73,9.345,39.068,18.566,5.656,2.335,10.791,8.171,16.328,14.349,5.477-11.229,16.848-23.1,38.963-32.916C180.717,148.311,144.6,64,144.6,64H96Z" style="fill:#fff;opacity:0.30000000000000004"/><ellipse cx="256" cy="64" rx="160" ry="56" style="fill:#a0300d"/><path d="M39.794,195.692c2.586.646,5.331,1.339,8.206,2.155V416c0,20.948,21.546,45.283,56.229,63.508C132.438,494.331,181.666,512,256,512s123.563-17.669,151.771-32.492C442.454,461.283,464,436.948,464,416V197.849c2.873-.816,5.616-1.508,8.2-2.154,11.155-2.788,23.8-5.948,23.8-19.7v-4c0-19.536-24.266-35.908-72.122-48.716.072-.828.122-1.661.122-2.506V64c0-13.171-9.06-32.042-52.221-47.149C340.732,5.984,299.614,0,256,0S171.268,5.984,140.221,16.851C97.06,31.958,88,50.829,88,64v56.778c0,.424.023.843.042,1.264C28.732,137.88,16,157.818,16,172v4C16,189.746,28.642,192.905,39.794,195.692ZM256,496c-124.23,0-192-52.848-192-80V204.532a94.712,94.712,0,0,1,9.012,9.248c7.954,8.878,16.969,18.942,30.246,21.819,9.816,2.13,19.975-1.858,29.794-5.713,8.172-3.207,16.62-6.526,23.52-5.675,5.38.663,11.7,5.271,18.387,10.151,8.715,6.358,18.594,13.564,30.1,14.217,10.443.589,20.094-4.835,29.429-10.083,7.43-4.177,15.111-8.5,21.518-8.5s14.088,4.319,21.517,8.5c8.864,4.983,18.014,10.127,27.853,10.127q.785,0,1.576-.044c11.5-.652,21.379-7.858,30.095-14.216,6.688-4.879,13.006-9.488,18.386-10.151,6.892-.85,15.346,2.467,23.517,5.675,9.82,3.854,19.976,7.84,29.792,5.713,13.277-2.877,22.292-12.94,30.246-21.818a94.6,94.6,0,0,1,9.02-9.253V416C448,443.152,380.23,496,256,496ZM145.506,31.953C174.9,21.666,214.14,16,256,16s81.1,5.666,110.494,15.953C392.483,41.049,408,53.029,408,64s-15.517,22.951-41.506,32.047C337.1,106.334,297.86,112,256,112s-81.1-5.666-110.494-15.953C119.517,86.951,104,74.971,104,64S119.517,41.049,145.506,31.953ZM104,92.469c7.94,6.425,19.519,12.834,36.221,18.68C171.268,122.016,212.386,128,256,128s84.732-5.984,115.779-16.851c16.7-5.846,28.281-12.255,36.221-18.68v4.31c0,10.752-15.5,22.522-41.473,31.485C337.125,138.412,297.872,144,256,144s-81.125-5.588-110.527-15.736C119.5,119.3,104,107.531,104,96.778ZM406.913,125.8c-3.937,9.286-18.414,18.878-40.386,26.462C337.125,162.412,297.872,168,256,168s-81.125-5.588-110.527-15.736c-21.971-7.583-36.449-17.176-40.386-26.462C134.309,148.177,196.515,160,256,160S377.691,148.177,406.913,125.8ZM32,172c0-9.4,18.957-23.553,61.078-34.733C112.729,167.74,186.237,184,256,184c68.944,0,141.546-15.881,162.208-45.666C463.655,150.314,480,163.824,480,172v4a2.918,2.918,0,0,1-.018.344c-1.329,1.247-7.283,2.735-11.661,3.829a153.886,153.886,0,0,0-22.447,7c-7.2,2.972-12.84,9.267-18.811,15.931-6.641,7.413-13.509,15.079-21.718,16.858-5.083,1.1-12.6-1.847-20.557-4.97-9.562-3.754-20.405-8.007-31.32-6.662-9.5,1.17-17.815,7.237-25.858,13.1-7.267,5.3-14.781,10.783-21.571,11.167-5.752.342-13.012-3.744-20.681-8.055C276.134,219.363,266.595,214,256,214s-20.134,5.363-29.358,10.548c-7.669,4.311-14.9,8.388-20.682,8.056-6.791-.385-14.306-5.867-21.573-11.168-8.043-5.867-16.359-11.935-25.858-13.1-10.93-1.348-21.76,2.908-31.322,6.661-7.956,3.123-15.469,6.071-20.56,4.97-8.209-1.779-15.076-9.445-21.718-16.858-5.97-6.665-11.609-12.96-18.809-15.932a153.887,153.887,0,0,0-22.446-7c-4.375-1.093-10.326-2.581-11.656-3.827A2.915,2.915,0,0,1,32,176Z"/><path d="M172.422,360.494A51.969,51.969,0,0,0,155.6,374.849c-6.827,9.1-12.848,24.192-2.755,44.377l14.311-7.155c-11.951-23.9,9.924-35.986,12.457-37.285L176,367.649Z"/><path d="M328,335.649a63.635,63.635,0,0,0-24.132,4.739l-39.524-24.812v-67.91h-16v14.674c-.633-.538-1.282-1.067-1.967-1.575-11.915-8.832-28.266-10.332-48.6-4.451a8,8,0,0,0-5.7,8.771c.167,1.218,4.324,29.965,25.053,41.238a36.546,36.546,0,0,0,17.729,4.421,49.628,49.628,0,0,0,13.488-2.017v7.143l-36.7,26.067a64.316,64.316,0,1,0,14.318,9.455l30.651-21.773L288.3,349.506A63.948,63.948,0,1,0,328,335.649ZM224.815,292.292c-8.7-4.7-13.161-15.3-15.261-22.393,11.673-2.267,20.807-1.042,27.214,3.661,6.865,5.041,9.542,13.332,10.58,18.705C238.357,295.51,230.793,295.523,224.815,292.292ZM232,399.649a48,48,0,1,1-48-48A48.054,48.054,0,0,1,232,399.649Zm96,48a48,48,0,1,1,48-48A48.054,48.054,0,0,1,328,447.649Z"/><path d="M316.422,360.494A51.969,51.969,0,0,0,299.6,374.849c-6.827,9.1-12.848,24.192-2.755,44.377l14.311-7.155c-11.951-23.9,9.924-35.986,12.457-37.285L320,367.649Z"/><rect x="96" y="256" width="16" height="80"/></svg>
