<?xml version="1.0" encoding="iso-8859-1"?>
<!-- Generator: Adobe Illustrator 19.0.0, SVG Export Plug-In . SVG Version: 6.00 Build 0)  -->
<svg version="1.1" id="Capa_1" xmlns="http://www.w3.org/2000/svg" xmlns:xlink="http://www.w3.org/1999/xlink" x="0px" y="0px"
	 viewBox="0 0 512.001 512.001" style="enable-background:new 0 0 512.001 512.001;" xml:space="preserve">
<path style="fill:#F5AA8C;" d="M111.999,210.98c-49.705,0-90,36.347-90,61.2c0,35.33,27.458,45.583,65,48.086v-51.213
	c7.938-1.96,16.324-3.074,25-3.074c8.675,0,17.062,1.109,25,3.069v51.444c37.542-1.865,65-10.507,65-48.313
	C201.999,247.327,161.705,210.98,111.999,210.98z"/>
<path style="fill:#9B4B14;" d="M383.999,218.98c-19.723,0-38.184,3.221-54,8.438v16.229c0,19.457,6.209,37.238,14.928,53.874
	c12.091,0.406,25.273,0.459,39.072,0.459c58.542,0,106-0.947,106-25.8C489.998,247.327,442.541,218.98,383.999,218.98z"/>
<path style="fill:#FA9600;" d="M475.998,121.293c0,45.187-85.513,56.727-190.999,56.727S94,166.48,94,121.293
	S179.513,10.02,284.999,10.02S475.998,76.106,475.998,121.293z"/>
<g>
	<path style="fill:#5AA096;" d="M451.779,449.728c-15.097,14.007-41.884,12.252-67.78,12.252c-1.149,0-2.291-0.015-3.426-0.041
		c-20.638,26.079-55.739,40.041-95.574,40.041h216.999C474.48,497.635,458.502,466.549,451.779,449.728z"/>
	<path style="fill:#5AA096;" d="M176.364,438.98h-7.496c-7.987,18.612-30.421,23-56.868,23c-19.309,0-36.474-2.342-47.449-10.843
		c-6.131,19.115-24.311,41.864-54.55,50.843h274.998C234.729,501.98,191.999,479.744,176.364,438.98z"/>
</g>
<path style="fill:#E6E6E6;" d="M136.999,332.87v-63.821c-7.937-1.96-16.325-3.069-25-3.069c-8.676,0-17.062,1.113-25,3.074v63.816
	c-2,33.11-35,64.898-35,89.11c0,33.137,26.863,40,60,40s60-6.863,60-40C171.999,397.768,136.999,365.98,136.999,332.87z"/>
<path style="fill:#AAAAA0;" d="M424.043,328.066l-3.768-30.458c-11.317,0.327-23.534,0.372-36.277,0.372
	c-13.366,0-26.151-0.05-37.928-0.422c-0.141,0.414-0.287,0.846-0.438,1.29c20.632,38.639,54.367,71.125,54.367,104.132
	c0,23.678-7.159,43.458-19.426,58.959c1.136,0.026,2.277,0.041,3.426,0.041c39.028,0,80.089,4,80.089-48
	C464.087,391.775,428.998,353.98,424.043,328.066z"/>
<path style="fill:#E6E6E6;" d="M329.999,177.2c-14.432,0.568-29.497,0.82-45,0.82c-19.439,0-38.196-0.394-55.869-1.316
	c-19.664,61.899-59.131,190.577-59.131,226.276c0,63.513,51.487,99,115,99s115-35.487,115-99c0-47.543-70-94-70-159.333V177.2z"/>
<path d="M503.558,492.102c-19.985-3.156-33.165-25.017-40.089-40.427c7.128-9.303,10.619-21.696,10.619-37.695
	c0-14.523-10.294-31.439-21.192-49.349c-8.293-13.627-16.864-27.713-18.971-38.144l-2.389-19.315
	c10.809-0.541,20.611-1.436,29.133-2.921c26.098-4.549,39.33-15.339,39.33-32.071c0-16.162-13.251-32.474-36.354-44.75
	c-22.389-11.897-50.674-18.45-79.645-18.45c-15.103,0-30.01,1.795-44,5.188v-27.413c33.846-1.71,61.08-5.168,82.454-10.445
	C464.62,165.9,486,147.389,486,121.292c0-26.402-22.633-56.683-60.544-80.998C384.964,14.323,335.083,0.02,284.999,0.02
	s-99.966,14.303-140.456,40.274C106.633,64.609,84,94.89,84,121.292c0,26.097,21.38,44.607,63.546,55.018
	c18.28,4.513,40.849,7.695,68.172,9.593c-5.009,15.908-10.855,34.777-16.839,54.734c-4.665-5.752-10.461-11.302-17.246-16.382
	c-20.048-15.01-44.777-23.275-69.633-23.275s-49.585,8.266-69.633,23.275C23.352,238.491,12,256.406,12,272.18
	c0,23.892,10.929,40.603,32.483,49.668c9.587,4.032,20.833,6.307,32.517,7.58v3.125c-1.003,14.992-9.76,30.524-18.23,45.551
	C50.146,393.403,42,407.853,42,421.98c0,13.151,3.611,23.803,10.76,31.836c-6.748,14.762-21.826,31.517-45.606,38.578
	c-4.762,1.413-7.764,6.108-7.049,11.024c0.714,4.915,4.929,8.562,9.896,8.562H502c5.22,0,9.561-4.015,9.97-9.218
	C512.376,497.559,508.713,492.917,503.558,492.102z M435.809,375.028c8.567,14.079,18.278,30.036,18.278,38.952
	c0,13.054-2.798,22.178-8.553,27.894c-9.411,9.349-27.201,10.208-46.746,10.177c7.393-14.49,11.21-31.005,11.21-49.07
	c0-24.983-15.833-48.097-32.596-72.567c-5.081-7.418-10.208-14.907-14.971-22.538c6.945,0.08,14.129,0.105,21.567,0.105
	c9.548,0,18.734-0.029,27.462-0.175l2.658,21.489c0.027,0.218,0.062,0.435,0.103,0.65
	C416.901,343.957,426.513,359.752,435.809,375.028z M383.999,228.98c25.384,0,50.993,5.872,70.261,16.111
	c15.636,8.309,25.739,18.941,25.739,27.089c0,15.8-57.771,15.8-96,15.8c-10.061,0-21.476-0.003-32.836-0.292
	c-6.694-13.912-11.164-28.458-11.164-44.04v-8.777C353.835,231.056,368.951,228.98,383.999,228.98z M152.339,156.893
	c-32.076-7.919-48.34-19.896-48.34-35.601c0-3.101,0.548-6.37,1.584-9.753c-0.638,2.083,17.149,9.613,18.575,10.2
	c17.54,7.11,41.53,12.14,73.35,15.4c25.15,2.55,54.58,3.84,87.49,3.84c22.83,0,52.16-0.351,76.62-2.99
	c5.479-0.59,9.46-5.54,8.87-11.02c-0.561-5.091-4.83-8.921-9.931-8.921c-0.37,0-0.729,0.021-1.09,0.061
	c-18.31,1.979-41.229,2.87-74.33,2.87h-0.359c-30.77,0-75.07-1.23-111.291-7.101c-18.667-3.008-44.095-6.943-58.403-20.478
	c8.949-12.386,22.888-25.133,40.256-36.273c37.309-23.928,83.356-37.107,129.659-37.107c46.304,0,92.35,13.179,129.658,37.108
	c31.189,20.005,51.342,45.19,51.342,64.164c0,15.704-16.264,27.682-48.34,35.601c-30.326,7.487-73.72,11.127-132.66,11.127
	S182.666,164.38,152.339,156.893z M32,272.18c0-17.526,33.783-51.2,80-51.2c41.888,0,73.562,27.661,79.128,45.892
	c-3.041,10.46-6.04,20.995-8.906,31.359c-7.355,6.48-18.967,9.829-35.222,11.434v-26.947c2.112,0.829,4.202,1.722,6.257,2.697
	c4.801,2.278,10.948,0.252,13.321-4.75c2.367-4.989,0.24-10.953-4.749-13.32c-15.675-7.435-32.905-11.365-49.83-11.365
	c-16.759,0-33.836,3.857-49.385,11.155c-4.999,2.347-7.15,8.302-4.803,13.302c2.346,4.999,8.3,7.15,13.301,4.804
	c1.935-0.908,3.901-1.745,5.887-2.523v26.522C44.415,305.292,32,294.21,32,272.18z M175.158,324.539
	c-4.985,19.206-9.164,36.958-11.863,51.455c-8.307-14.335-16.296-29.044-16.296-43.123v-2.947
	C156.807,329.053,166.433,327.447,175.158,324.539z M76.192,387.924c9.187-16.298,19.601-34.771,20.789-54.451
	c0.012-0.2,0.018-0.401,0.018-0.603v-55.654c9.921-1.62,20.079-1.618,30,0v55.653c0,20.547,11.105,39.617,20.904,56.444
	c6.823,11.717,11.571,21.958,14.028,35.191c-0.824,16.591-10.411,27.474-49.932,27.474c-41.497,0-50-11.993-50-30
	C62,413.102,68.894,400.873,76.192,387.924z M48.559,491.979c4.069-3.567,7.846-7.507,11.243-11.75
	c3.692-4.613,6.934-9.585,9.612-14.828c10.558,4.473,24.269,6.58,42.586,6.58c20.372,0,45.618-2.192,59.782-18.818
	c6.191,11.755,14.767,22.15,25.617,30.915c3.516,2.84,7.255,5.474,11.188,7.903C208.586,491.98,48.557,491.98,48.559,491.979z
	 M324.999,423.98c-5.522,0-10,4.478-10,10c0,32.64-15.009,47.844-24.756,54.276c-4.43-12.554-11.244-37.24-11.244-70.276
	c0-5.522-4.478-10-10-10s-10,4.478-10,10c0,33.011,6.17,58.304,11.093,73.243c-7.182-0.734-14.276-2.007-21.141-3.837
	c-10.484-13.229-14.856-32.381-16.669-46.59c-0.699-5.479-5.71-9.357-11.185-8.654c-5.479,0.699-9.353,5.707-8.654,11.186
	c1.204,9.442,3.433,20.799,7.52,31.927c-0.795-2.148-5.314-3.578-7.137-4.831c-6.814-4.686-12.791-10.947-17.632-17.626
	c-10.403-14.355-15.195-32.152-15.195-49.818c0-30.396,31.815-138.643,56.287-215.929c14.975,0.646,31.186,0.969,48.712,0.969
	c12.308,0,23.96-0.161,35-0.479v56.107c0,38.353,21.731,70.077,40.904,98.066c14.964,21.844,29.097,42.476,29.097,61.266
	c0,47.929-32.051,75.216-70.942,84.918c8.323-11.34,15.942-28.629,15.942-53.918C334.999,428.458,330.521,423.98,324.999,423.98z
	 M361.42,491.98c8.829-5.455,16.966-12.205,23.823-19.999c1.656-1.807,11.945,0.07,14.324,0.07c17.169,0,34.232-0.777,47.903-7.438
	c4.358,8.814,10.379,18.797,18.305,27.367L361.42,491.98L361.42,491.98z"/>
<circle cx="399.999" cy="119.98" r="10"/>
<g>
</g>
<g>
</g>
<g>
</g>
<g>
</g>
<g>
</g>
<g>
</g>
<g>
</g>
<g>
</g>
<g>
</g>
<g>
</g>
<g>
</g>
<g>
</g>
<g>
</g>
<g>
</g>
<g>
</g>
</svg>
