<svg id="Filled" height="512" viewBox="0 0 512 512" width="512" xmlns="http://www.w3.org/2000/svg"><path d="m200 176 32-48s8-40-16-64l32-32s32 32 32 96l40 48-64 16z" fill="#c46f2a"/><g fill="#fc8d36"><path d="m336 176s7.208-24 48-24c56 0 104 64 104 144s-10.125 140.152-56 168c-51.847 31.473-95.213-38.583-96-40z"/><path d="m176 176s-7.208-24-48-24c-56 0-104 64-104 144s10.125 140.152 56 168c51.847 31.473 95.213-38.583 96-40z"/><path d="m304 152c-40 0-48 32-48 32v256c8 40 64 40 64 40 72 0 88-72 80-176s-56-152-96-152z"/><path d="m208 152c40 0 48 32 48 32v256c-8 40-64 40-64 40-72 0-88-72-80-176s56-152 96-152z"/></g><path d="m384 144c-20.831 0-34.069 5.859-42.271 12.118-12.061-7.881-24.956-12.118-37.729-12.118-.084 0-.166 0-.25 0l-15.771-18.925c-.945-64.61-32.94-97.353-34.322-98.735a8 8 0 0 0 -11.314 0l-32 32a8 8 0 0 0 0 11.314c18.248 18.248 15.062 48.426 14.046 55.337l-12.73 19.1c-1.195-.055-2.41-.089-3.659-.089-12.773 0-25.668 4.237-37.729 12.117-8.201-6.26-21.438-12.119-42.271-12.119-29.9 0-58.121 16.081-79.459 45.28-20.984 28.72-32.541 66.62-32.541 106.72 0 71.938 7.25 142.909 59.849 174.839 10.187 6.183 20.8 9.27 31.566 9.27 10.745 0 21.651-3.076 32.459-9.21 13.726 11.341 31.201 17.101 52.126 17.101a110.509 110.509 0 0 0 31.53-5.41c14.532-4.844 25.486-12.478 32.47-22.48 6.984 10 17.938 17.636 32.47 22.48a110.509 110.509 0 0 0 31.53 5.41c20.925 0 38.4-5.76 52.126-17.1 10.808 6.135 21.713 9.211 32.459 9.21 10.769 0 21.38-3.087 31.566-9.27 52.599-31.931 59.849-102.902 59.849-174.84 0-40.1-11.557-78-32.541-106.72-21.338-29.199-49.559-45.28-79.459-45.28zm-299.849 313.161c-19.866-12.059-33.5-31.631-41.67-59.831-7.15-24.671-10.481-56.869-10.481-101.33 0-36.736 10.462-71.284 29.459-97.28 18.247-24.969 41.878-38.72 66.541-38.72 13.753 0 22.967 2.941 29.09 6.512a120.955 120.955 0 0 0 -15.582 17.813c-20.748 28.817-33.71 69.987-37.485 119.062-5.907 76.8 1.82 126.569 24.293 155.545-15.316 7.525-29.833 6.928-44.165-1.771zm163.849-17.993c-2.924 13.185-12.854 22.685-29.53 28.242a94.487 94.487 0 0 1 -26.47 4.59c-20.324 0-35.836-6.082-47.423-18.6-22.395-24.183-30.442-72.853-24.6-148.792 7.302-94.934 49.809-144.608 88.023-144.608 30.05 0 38.558 20.828 40 25.159zm10.979-276.436c-1.1 1.255-2.081 2.506-2.979 3.737-.9-1.231-1.882-2.482-2.979-3.737a53.222 53.222 0 0 0 -24.121-15.655l9.759-14.639a8 8 0 0 0 1.189-2.869c.334-1.674 7.39-38.532-12.913-65.187l20.484-20.482c8.475 11.656 24.581 39.666 24.581 84.1a8 8 0 0 0 1.854 5.121l11.154 13.384a53.465 53.465 0 0 0 -26.029 16.227zm108.444 290.673c-11.587 12.513-27.099 18.595-47.423 18.595a94.487 94.487 0 0 1 -26.47-4.59c-16.676-5.557-26.606-15.057-29.53-28.242v-254.009c1.442-4.331 9.95-25.159 40-25.159 38.214 0 80.721 49.674 88.023 144.613 5.842 75.939-2.205 124.609-24.6 148.792zm102.1-56.075c-8.173 28.2-21.8 47.772-41.67 59.831-14.333 8.7-28.851 9.3-44.165 1.771 22.473-28.976 30.2-78.743 24.293-155.545-3.775-49.075-16.737-90.245-37.485-119.062a120.955 120.955 0 0 0 -15.582-17.813c6.12-3.57 15.334-6.512 29.086-6.512 24.663 0 48.294 13.751 66.541 38.72 19 26 29.459 60.544 29.459 97.28 0 44.461-3.331 76.659-10.481 101.33z"/></svg>