<svg id="Filled" height="512" viewBox="0 0 512 512" width="512" xmlns="http://www.w3.org/2000/svg"><path d="m272 208v240a48 48 0 0 1 -96 0h32a16 16 0 0 0 32 0v-240z" fill="#fae8d8"/><g fill="#e07e30"><path d="m272 408v40a48 48 0 0 1 -96 0h32a16 16 0 0 0 32 0v-40z"/><path d="m272 88h-32v-48a16 16 0 0 1 16-16 16 16 0 0 1 16 16z"/><path d="m328 80s136 3.063 160 168c0 0-40-32-80 8l-80-48z"/><path d="m184 80s-136 3.063-160 168c0 0 40-32 80 8l80-48z"/></g><path d="m408 256s-64-32-152-32-152 32-152 32c8-168 88-192 88-192 32 8 64 8 64 8s32 0 64-8c0 0 80 24 88 192z" fill="#f4ae40"/><path d="m431.126 115.474a177.542 177.542 0 0 0 -79.088-40.074c-16.066-14.8-29.038-18.852-29.738-19.063a8.006 8.006 0 0 0 -4.239-.1 267.557 267.557 0 0 1 -38.061 6.356v-22.593a24 24 0 0 0 -48 0v22.6a267.555 267.555 0 0 1 -38.06-6.359 8.005 8.005 0 0 0 -4.239.1c-.7.211-13.674 4.263-29.74 19.06a177.555 177.555 0 0 0 -79.086 40.076c-34.792 30.817-56.592 75.023-64.792 131.371a8 8 0 0 0 12.917 7.399 56.4 56.4 0 0 1 21.572-9.4c17.119-3.424 33.195 2.232 47.774 16.812a8 8 0 0 0 9.235 1.5c.563-.281 51.77-25.479 124.422-30.344v215.185a8 8 0 0 1 -16 0 8 8 0 0 0 -8-8h-32.003a8 8 0 0 0 -8 8 56 56 0 0 0 112 0v-215.186c72.5 4.875 123.862 30.062 124.422 30.341a8 8 0 0 0 9.235-1.5c34.281-34.281 67.954-8.5 69.346-7.41a8 8 0 0 0 12.914-7.4c-8.2-56.345-29.999-100.55-64.791-131.371zm-183.126-75.474a8 8 0 0 1 16 0v23.758c-4.935.231-7.906.242-8 .242s-3.064-.01-8-.239zm-150.992 199.769c-18.808-12.86-36.821-13.169-49.577-10.614a71.2 71.2 0 0 0 -12.695 3.825c9.165-44.8 28.214-80.253 56.748-105.53a159.016 159.016 0 0 1 48.867-29.5c-24.12 34.05-38.668 81.661-43.343 141.819zm166.992 208.231a40 40 0 0 1 -79.2 8h16.567a24 24 0 0 0 46.633-8v-32h16zm0-48h-16v-167.909q3.966-.09 8-.091t8 .091zm-8-184c-67.208 0-120.208 18.018-143.211 27.381 5.56-75.434 26.5-117.771 43.594-140.257 14.081-18.524 28.795-27.79 36.064-30.78a306.63 306.63 0 0 0 63.553 7.656 306.789 306.789 0 0 0 63.546-7.654c7.324 3.019 22.014 12.284 36.071 30.778 29.737 39.118 40.277 95.622 43.6 140.259-23.002-9.362-76.004-27.383-143.217-27.383zm208.569 13.155c-12.758-2.551-30.769-2.245-49.577 10.614-4.675-60.158-19.223-107.769-43.343-141.818a159.056 159.056 0 0 1 48.868 29.5c28.534 25.278 47.583 60.727 56.747 105.53a71.2 71.2 0 0 0 -12.695-3.826z"/></svg>