<svg id="Capa_1" enable-background="new 0 0 512.006 512.006" height="512" viewBox="0 0 512.006 512.006" width="512" xmlns="http://www.w3.org/2000/svg"><g><g><g fill="#f3d332"><path d="m134.63 57.262c-13.176 0-20.862-7.466-20.862-20.426 0-9.719 2.996-17.912 11.57-21.484 2.858-1.191 5.998-1.85 9.292-1.85 13.176 0 23.896 10.543 23.896 23.502 0 3.069-.601 6.003-1.694 8.694-3.522 8.668-12.147 11.564-22.202 11.564z"/><path d="m307.045 41.432c-12.691 0-19.149-7.231-19.149-19.915 0-8.512.542-14.474 7.437-18.451 3.379-1.95 7.297-3.066 11.471-3.066 12.691 0 23.016 10.319 23.016 23.002 0 3.549-.809 6.914-2.251 9.919-3.714 7.732-11.385 8.511-20.524 8.511z"/><path d="m374.371 82.439c0 1.669-.241 3.281-.689 4.805-2.075 7.05-8.802 7.76-16.53 7.76-9.398 0-12.661-3.175-12.661-12.566 0-7.318.472-13.556 6.963-15.953 1.838-.679 3.826-1.05 5.9-1.05 9.399.001 17.017 7.614 17.017 17.004z"/><path d="m213.71 370.185c0 1.898-.308 3.726-.878 5.439-2.347 7.051-8.589 9.723-16.595 9.723-9.951 0-16.723-5.165-16.723-14.878 0-7.662 3.181-14.464 10.187-16.874 1.874-.645 3.891-.996 5.991-.996 9.951 0 18.018 7.874 18.018 17.586z"/><path d="m67.563 385.794c0 3.002-.661 5.854-1.848 8.424-3.294 7.13-8.771 7.98-17.305 7.98-11.61 0-19.153-5.52-19.153-16.851 0-8.374 1.403-15.129 8.771-18.318 2.602-1.126 5.483-1.752 8.513-1.752 11.61 0 21.022 9.186 21.022 20.517z"/><path d="m47.543 168.899c0 2.393-.441 4.685-1.247 6.804-2.831 7.437-9.007 10.239-17.612 10.239-11.057 0-19.277-6.251-19.277-17.043 0-8.365 3.482-15.503 11.053-18.29 2.196-.808 4.576-1.251 7.063-1.251 11.056.001 20.02 8.75 20.02 19.541z"/><path d="m268.765 168.899c0 2.447-.461 4.788-1.302 6.947-2.87 7.362-10.586 8.564-19.136 8.564-11.057 0-14.644-4.72-14.644-15.511 0-7.661-.441-14.292 6.135-17.495 2.688-1.309 5.719-2.045 8.927-2.045 11.057 0 20.02 8.749 20.02 19.54z"/><path d="m165.161 131.773c0 3.651-.873 7.103-2.427 10.168-3.842 7.58-11.846 10.81-21.097 10.81-12.992 0-19.784-11.32-19.784-24 0-9.238 1.85-14.179 9.908-17.822 3.003-1.358 6.349-2.115 9.876-2.115 12.992 0 23.524 10.279 23.524 22.959z"/><path d="m412.41 191.782c0 3.508-.806 6.832-2.247 9.806-3.768 7.775-10.656 10.568-20.054 10.568-12.992 0-22.298-8.986-22.298-21.666 0-9.069 2.939-15.617 10.761-19.348 3.114-1.485 6.614-2.319 10.314-2.319 12.992-.001 23.524 10.279 23.524 22.959z"/><path d="m136.887 300.836c-12.691 0-18.949-7.259-18.949-19.745 0-8.962 1.998-15.584 9.694-19.252 3.026-1.442 6.419-2.251 10.001-2.251 12.691 0 23.016 10.158 23.016 22.644 0 3.478-.801 6.775-2.231 9.722-3.704 7.634-12.374 8.882-21.531 8.882z"/><path d="m356.577 367.602c-12.691 0-20.298-8.45-20.298-20.936 0-8.858 1.754-15.968 9.305-19.687 3.093-1.523 6.581-2.381 10.269-2.381 12.691 0 23.016 10.158 23.016 22.644 0 3.448-.788 6.719-2.195 9.648-3.689 7.673-10.911 10.712-20.097 10.712z"/><path d="m465.463 469.259c0 1.386-.161 2.734-.466 4.026-1.82 7.726-8.997 10.53-17.285 10.53-9.675 0-15.05-6.163-15.05-15.83 0-7.901 3.006-13.306 10.203-15.482 1.608-.486 3.313-.747 5.08-.747 9.675 0 17.518 7.836 17.518 17.503z"/></g><g fill="#ecc52e"><path d="m147.632 47.504c-13.18 0-23.9-10.54-23.9-23.5 0-3.07.6-6 1.7-8.69-8.62 3.55-14.7 11.93-14.7 21.69 0 12.96 10.72 23.5 23.9 23.5 10.05 0 18.68-6.14 22.19-14.81-2.83 1.17-5.93 1.81-9.19 1.81z"/><path d="m319.802 33.004c-12.69 0-23.01-10.32-23.01-23 0-2.96.56-5.8 1.59-8.4-8.54 3.36-14.59 11.68-14.59 21.4 0 12.68 10.32 23 23.01 23 9.72 0 18.06-6.06 21.42-14.6-2.61 1.03-5.45 1.6-8.42 1.6z"/><path d="m373.972 86.054c-1.65 7.66-8.46 13.39-16.62 13.39-9.4 0-17.02-7.61-17.02-17.01 0-8.14 5.73-14.95 13.39-16.61-.26 1.17-.39 2.37-.39 3.61 0 9.4 7.62 17.01 17.02 17.01 1.24 0 2.45-.13 3.62-.39z"/><path d="m213.232 374.214c-1.86 7.77-9.01 13.56-17.54 13.56-9.95 0-18.02-7.88-18.02-17.59 0-8.18 5.73-15.05 13.48-17.02-.32 1.29-.48 2.64-.48 4.02 0 9.71 8.07 17.59 18.02 17.59 1.57 0 3.09-.2 4.54-.56z"/><path d="m66.532 392.144c-2.74 8.23-10.65 14.17-19.99 14.17-11.61 0-21.02-9.19-21.02-20.52 0-8.94 5.86-16.54 14.03-19.35-.67 2-1.03 4.13-1.03 6.35 0 11.33 9.41 20.52 21.02 20.52 2.45 0 4.8-.41 6.99-1.17z"/><path d="m46.712 174.484c-2.46 8.07-10.12 13.96-19.19 13.96-11.06 0-20.02-8.75-20.02-19.54 0-8.69 5.8-16.05 13.83-18.59-.54 1.77-.83 3.65-.83 5.59 0 10.79 8.96 19.54 20.02 19.54 2.16 0 4.24-.33 6.19-.96z"/><path d="m267.932 174.484c-2.46 8.07-10.12 13.96-19.19 13.96-11.05 0-20.02-8.75-20.02-19.54 0-8.69 5.8-16.04 13.83-18.58-.54 1.77-.83 3.64-.83 5.58 0 10.79 8.97 19.54 20.02 19.54 2.16 0 4.24-.33 6.19-.96z"/><path d="m163.602 140.004c-3.39 8.62-11.95 14.73-21.97 14.73-12.99 0-23.52-10.28-23.52-22.96 0-9.58 6.01-17.79 14.56-21.23-1.01 2.55-1.56 5.33-1.56 8.23 0 12.68 10.53 22.96 23.52 22.96 3.18 0 6.21-.61 8.97-1.73z"/><path d="m410.842 200.024c-3.38 8.61-11.94 14.72-21.96 14.72-12.99 0-23.52-10.28-23.52-22.96 0-9.59 6.02-17.8 14.57-21.24-1.02 2.56-1.57 5.34-1.57 8.24 0 12.68 10.53 22.96 23.52 22.96 3.17 0 6.2-.61 8.96-1.72z"/><path d="m150.632 291.874c-12.69 0-23.01-10.16-23.01-22.64 0-2.83.53-5.54 1.5-8.04-8.49 3.33-14.5 11.51-14.5 21.04 0 12.48 10.32 22.64 23.01 22.64 9.82 0 18.22-6.08 21.52-14.61-2.63 1.04-5.51 1.61-8.52 1.61z"/><path d="m368.852 356.884c-12.69 0-23.02-10.16-23.02-22.64 0-2.83.53-5.54 1.5-8.04-8.49 3.34-14.5 11.51-14.5 21.04 0 12.48 10.33 22.64 23.02 22.64 9.82 0 18.22-6.08 21.52-14.61-2.63 1.04-5.51 1.61-8.52 1.61z"/><path d="m464.992 473.284c-1.82 7.73-8.76 13.48-17.05 13.48-9.67 0-17.51-7.84-17.51-17.51 0-8.27 5.75-15.21 13.47-17.03-.31 1.29-.47 2.64-.47 4.03 0 9.67 7.84 17.51 17.51 17.51 1.4 0 2.75-.16 4.05-.48z"/></g><path d="m447.286 122.722-8.8-17.584c-.097-.193-.254-.35-.447-.447l-17.598-8.791c-.737-.368-.737-1.421 0-1.789l17.598-8.791c.194-.097.351-.254.447-.447l8.8-17.584c.369-.737 1.42-.737 1.789 0l8.8 17.584c.097.193.254.35.447.447l17.598 8.791c.737.368.737 1.421 0 1.789l-17.598 8.791c-.194.097-.351.254-.447.447l-8.8 17.584c-.37.736-1.421.736-1.789 0z" fill="#91dafa"/><path d="m45.882 309.749-8.8-17.584c-.097-.193-.254-.35-.447-.447l-17.598-8.791c-.737-.368-.737-1.421 0-1.789l17.598-8.791c.194-.097.351-.254.447-.447l8.8-17.584c.369-.737 1.42-.737 1.789 0l8.8 17.584c.097.193.254.35.447.447l17.598 8.791c.737.368.737 1.421 0 1.789l-17.598 8.791c-.194.097-.351.254-.447.447l-8.8 17.584c-.369.736-1.421.736-1.789 0z" fill="#91dafa"/></g><g><path d="m508.425 498.111-36.34-22.3c.569-2.09.878-4.285.878-6.553 0-13.787-11.223-25.002-25.018-25.002-3.093 0-6.055.568-8.792 1.598l-64.196-86c2.468-3.607 3.911-7.947 3.911-12.613 0-8.053-4.298-15.132-10.752-19.147l9.468-44.721c.858-4.052-1.731-8.033-5.784-8.891-4.052-.859-8.033 1.731-8.891 5.784l-9.41 44.449c-11.589 1.164-20.662 10.822-20.662 22.526 0 7.7 3.93 14.511 9.918 18.604l-42.611 136.422c-1.235 3.954.969 8.16 4.923 9.395.744.233 1.497.343 2.238.343 3.193 0 6.154-2.057 7.156-5.266l42.76-136.899c1.973-.114 3.88-.475 5.69-1.05l64.428 86.311c-2.779 4.028-4.411 8.904-4.411 14.156 0 13.787 11.223 25.002 25.018 25.002 6.096 0 11.687-2.193 16.032-5.826l36.603 22.461c1.224.751 2.578 1.109 3.916 1.109 2.522 0 4.984-1.271 6.4-3.578 2.164-3.529 1.059-8.147-2.472-10.314zm-152.572-158.513c4.42 0 8.016 3.429 8.016 7.644s-3.596 7.644-8.016 7.644-8.016-3.429-8.016-7.644 3.596-7.644 8.016-7.644zm92.092 139.663c-5.524 0-10.018-4.487-10.018-10.002s4.494-10.002 10.018-10.002 10.018 4.487 10.018 10.002-4.494 10.002-10.018 10.002z"/><path d="m307.484 178.011c.671-4.087-2.099-7.945-6.187-8.615l-25.29-4.15c-1.822-13.187-13.349-23.386-27.262-23.386-8.914 0-16.848 4.189-21.88 10.665l-54.349-17.846c1.749-14.554-9.754-30.28-24.846-32.781l-4.403-42.986c8.918-3.413 15.258-11.943 15.258-21.907 0-12.959-10.72-23.502-23.896-23.502s-23.896 10.543-23.896 23.502c0 10.792 7.436 19.901 17.531 22.649l4.401 42.964c-12.895 3.904-23.512 17.003-21.914 31.984l-59.772 20.176c-4.846-7.743-13.547-12.919-23.458-12.919-15.175 0-27.52 12.13-27.52 27.04s12.345 27.04 27.52 27.04c15.058 0 27.323-11.945 27.511-26.698l60.831-20.534c4.324 6.322 10.996 10.966 18.778 12.735l-3.502 99.069c-9.539 2.765-16.523 11.452-16.523 21.72 0 4.343 1.252 8.403 3.415 11.853l-20.529 23.152c-2.748 3.1-2.463 7.84.636 10.588 1.428 1.266 3.204 1.888 4.973 1.888 2.071 0 4.133-.853 5.615-2.524l21.004-23.688c2.465.889 5.127 1.375 7.901 1.375 2.206 0 4.337-.313 6.358-.886l34.043 48.111c-4.839 4.568-7.86 10.984-7.86 18.084 0 13.833 11.447 25.086 25.518 25.086.742 0 1.475-.038 2.202-.099l10.619 42.061c.858 3.4 3.913 5.666 7.267 5.666.607 0 1.225-.075 1.841-.23 4.016-1.014 6.45-5.092 5.436-9.108l-11.12-44.044c5.66-4.605 9.273-11.561 9.273-19.331 0-13.833-11.447-25.086-25.518-25.086-1.366 0-2.706.109-4.015.313l-35.363-49.977c2.724-3.72 4.335-8.279 4.335-13.203 0-9.535-6.025-17.707-14.523-21.039l3.512-99.354c.008-.214.001-.425-.01-.636 7.329-1.92 13.6-6.411 17.739-12.429l53.973 17.723c-1.606 14.861 11.442 29.707 27.406 29.442 11.117 0 20.708-6.514 25.046-15.857l25.077 4.115c.411.068.82.1 1.224.1 3.609 0 6.79-2.61 7.393-6.286zm-279.962 2.928c-6.904 0-12.52-5.401-12.52-12.04s5.616-12.04 12.52-12.04 12.52 5.401 12.52 12.04-5.616 12.04-12.52 12.04zm178.688 189.246c0 5.562-4.718 10.086-10.518 10.086s-10.518-4.524-10.518-10.086 4.718-10.086 10.518-10.086 10.518 4.525 10.518 10.086zm-71.58-341.683c4.905 0 8.896 3.814 8.896 8.502s-3.991 8.502-8.896 8.502-8.896-3.814-8.896-8.502c.001-4.688 3.992-8.502 8.896-8.502zm-5.012 253.73c0-4.215 3.596-7.644 8.016-7.644s8.016 3.429 8.016 7.644-3.596 7.644-8.016 7.644-8.016-3.429-8.016-7.644zm12.019-134.999c-8.835 0-16.023-6.935-16.023-15.459s7.188-15.459 16.023-15.459 16.024 6.935 16.024 15.459-7.188 15.459-16.024 15.459zm107.108 33.706c-6.904 0-12.52-5.401-12.52-12.04s5.616-12.04 12.52-12.04 12.52 5.401 12.52 12.04-5.616 12.04-12.52 12.04z"/><path d="m231.634 467.534c-1.014-4.016-5.091-6.45-9.108-5.436-4.016 1.014-6.45 5.092-5.436 9.108l8.87 35.134c.858 3.4 3.913 5.666 7.267 5.666.607 0 1.225-.075 1.841-.23 4.016-1.014 6.45-5.092 5.436-9.108z"/><path d="m63.631 408.211c6.937-5.116 11.432-13.26 11.432-22.417 0-5.667-1.727-10.943-4.684-15.357l14.447-16.293c2.748-3.1 2.463-7.84-.636-10.588-3.1-2.749-7.84-2.463-10.588.636l-14.564 16.425c-3.776-1.816-8.017-2.839-12.498-2.839-15.727 0-28.521 12.568-28.521 28.017s12.794 28.017 28.521 28.017c1.05 0 2.086-.06 3.107-.169l36.455 93.584c1.155 2.965 3.988 4.78 6.99 4.78.905 0 1.826-.165 2.72-.514 3.86-1.503 5.77-5.851 4.266-9.71zm-30.611-22.417c0-7.178 6.065-13.017 13.521-13.017s13.521 5.839 13.521 13.017-6.066 13.017-13.521 13.017-13.521-5.839-13.521-13.017z"/><path d="m306.804 46.004c2.982 0 5.831-.576 8.448-1.612l21.293 25.112c-2.347 3.757-3.708 8.189-3.708 12.935 0 13.304 10.666 24.157 23.899 24.487l17.107 58.229c-5.768 3.154-10.406 8.061-13.171 13.983l-24.637-4.043c-4.085-.672-7.945 2.099-8.615 6.187-.671 4.087 2.099 7.945 6.187 8.615l24.339 3.994c.792 11.302 7.886 20.924 17.853 25.498l-5.497 25.965c-.858 4.052 1.732 8.033 5.784 8.891.524.111 1.046.164 1.561.164 3.468 0 6.583-2.419 7.33-5.948l5.56-26.262c13.858-.716 25.328-10.405 28.497-23.244h85.469c4.142 0 7.5-3.358 7.5-7.5s-3.358-7.5-7.5-7.5h-85.636c-3.528-13.014-15.629-22.632-29.98-22.632-.178 0-.354.01-.531.013l-17.227-58.638c6.48-4.414 10.744-11.847 10.744-20.259 0-13.511-10.999-24.502-24.517-24.502-3.318 0-6.482.665-9.371 1.864l-21.338-25.164c2.013-3.416 3.173-7.391 3.173-11.635-.001-12.683-10.325-23.002-23.016-23.002s-23.016 10.319-23.016 23.002c0 12.684 10.325 23.002 23.016 23.002zm98.106 145.778c0 8.524-7.188 15.459-16.023 15.459s-16.024-6.935-16.024-15.459 7.188-15.46 16.024-15.46 16.023 6.936 16.023 15.46zm-38.038-109.343c0 5.24-4.27 9.502-9.517 9.502s-9.517-4.263-9.517-9.502 4.27-9.502 9.517-9.502 9.517 4.262 9.517 9.502zm-60.068-67.439c4.42 0 8.016 3.59 8.016 8.002 0 4.413-3.596 8.002-8.016 8.002s-8.016-3.59-8.016-8.002 3.596-8.002 8.016-8.002z"/><path d="m152.83 448.767h-3.777v-3.776c0-4.142-3.358-7.5-7.5-7.5s-7.5 3.358-7.5 7.5v3.776h-3.777c-4.142 0-7.5 3.358-7.5 7.5s3.358 7.5 7.5 7.5h3.777v3.776c0 4.142 3.358 7.5 7.5 7.5s7.5-3.358 7.5-7.5v-3.776h3.777c4.142 0 7.5-3.358 7.5-7.5s-3.358-7.5-7.5-7.5z"/><path d="m273.952 303.746h-3.777v-3.776c0-4.142-3.358-7.5-7.5-7.5s-7.5 3.358-7.5 7.5v3.776h-3.777c-4.142 0-7.5 3.358-7.5 7.5s3.358 7.5 7.5 7.5h3.777v3.776c0 4.142 3.358 7.5 7.5 7.5s7.5-3.358 7.5-7.5v-3.776h3.777c4.142 0 7.5-3.358 7.5-7.5s-3.358-7.5-7.5-7.5z"/><path d="m465.303 393.853c4.142 0 7.5-3.358 7.5-7.5v-5.021h5.022c4.142 0 7.5-3.358 7.5-7.5s-3.358-7.5-7.5-7.5h-5.022v-5.021c0-4.142-3.358-7.5-7.5-7.5s-7.5 3.358-7.5 7.5v5.021h-5.022c-4.142 0-7.5 3.358-7.5 7.5s3.358 7.5 7.5 7.5h5.022v5.021c0 4.142 3.358 7.5 7.5 7.5z"/><path d="m35.352 60.286h5.032v5.012c0 4.142 3.358 7.5 7.5 7.5s7.5-3.358 7.5-7.5v-5.012h5.032c4.142 0 7.5-3.358 7.5-7.5s-3.358-7.5-7.5-7.5h-5.032v-5.012c0-4.142-3.358-7.5-7.5-7.5s-7.5 3.358-7.5 7.5v5.012h-5.032c-4.142 0-7.5 3.358-7.5 7.5s3.357 7.5 7.5 7.5z"/><path d="m415.298 101.714 17.45 8.718 8.725 17.434c1.271 2.54 3.867 4.144 6.707 4.144s5.436-1.604 6.707-4.144l8.725-17.434 17.45-8.718c2.542-1.27 4.148-3.868 4.148-6.709s-1.606-5.439-4.148-6.709l-17.45-8.718-8.725-17.434c-1.271-2.54-3.867-4.144-6.707-4.144s-5.436 1.604-6.707 4.144l-8.725 17.434-17.45 8.718c-2.542 1.27-4.148 3.868-4.148 6.709s1.606 5.439 4.148 6.709zm26.39-9.835c1.452-.726 2.629-1.902 3.355-3.353l3.136-6.267 3.136 6.267c.726 1.451 1.903 2.627 3.355 3.353l6.257 3.125-6.257 3.125c-1.452.726-2.629 1.902-3.355 3.353l-3.136 6.267-3.136-6.267c-.726-1.451-1.903-2.627-3.355-3.353l-6.257-3.125z"/><path d="m40.069 314.892c1.271 2.54 3.867 4.144 6.707 4.144s5.436-1.604 6.707-4.144l8.725-17.434 17.45-8.718c2.542-1.27 4.148-3.868 4.148-6.709s-1.606-5.439-4.148-6.709l-17.45-8.717-8.725-17.434c-1.271-2.54-3.867-4.144-6.707-4.144s-5.436 1.604-6.707 4.144l-8.725 17.434-17.45 8.717c-2.542 1.27-4.148 3.868-4.148 6.709s1.606 5.439 4.148 6.709l17.45 8.718zm.215-35.986c1.452-.725 2.629-1.902 3.355-3.353l3.136-6.267 3.136 6.267c.726 1.451 1.904 2.628 3.355 3.353l6.256 3.125-6.256 3.125c-1.452.726-2.629 1.902-3.355 3.353l-3.136 6.267-3.136-6.267c-.726-1.451-1.903-2.627-3.355-3.353l-6.256-3.125z"/></g></g></svg>