<svg id="Capa_1" enable-background="new 0 0 512 512" height="512" viewBox="0 0 512 512" width="512" xmlns="http://www.w3.org/2000/svg"><g><g><path d="m460.03 315.78c-6.04 20.55-15.12 39.8-26.72 57.22-14.5 1.42-27.78 12.65-37.92 13.57-10.87.98-21.17 5.09-29.99 11.51-.04.03-.08.06-.12.09-10.66 7.72-24.49 12.28-38.96 12.84-1.03.04-2.06.06-3.08.06-13.95 0-26.63-3.72-36.75-9.99-9.02-5.58-19.25-8.86-29.85-9.18-33.38-1-105.61-13.5-175.25-18.14-4.261-6.344 11.44-21.246 11.44-21.246l-38.19-35.174c69.52 5.35 147.01-1.56 186.93-.2 14.3.49 28.24-4.3 39.36-13.32 11.27-9.15 26.15-14.09 41.43-14.73 1.03-.04 2.06-.06 3.08-.06 15.41 0 29.25 4.39 39.83 11.81 11.41 8.01 25.3 11.67 39.18 10.39 15.2-1.41 35.29 6.67 55.58 4.55z" fill="#3a67c1"/><path d="m357.32 348.763c.045 1.167-.046 2.319-.266 3.447-2.063 10.607-14.828 14.149-31.288 14.789-18.212.709-29.145-4.812-29.617-16.953-.286-7.344.084-12.775 8.229-17.09 5.319-2.818 11.916-4.613 19.111-4.893 18.212-.708 33.358 8.559 33.831 20.7z" fill="#91dafa"/><path d="m357.31 350.13c-.61 11.54-14.59 21.22-32.11 21.9-18.21.71-33.36-8.56-33.83-20.7-.28-7.34 4.87-14.06 13.01-18.37-.02.46-.03.91-.01 1.37.47 12.14 15.62 21.41 33.83 20.7 7.19-.28 13.79-2.08 19.11-4.9z" fill="#75cff9"/><path d="m191.63 379.58c-16.196-.673-31.459 26.406-49.779 25.463-18.952-.976-41.007-29.986-60.461-31.283-11.54-17.18-20.63-36.16-26.75-56.42 29.67 2.29 60.8 4.15 89.83 5.66 2.49 4.35 5.13 8.61 7.92 12.76 11 16.37 24.22 31.13 39.24 43.82z" fill="#30569f"/><path d="m395.39 376.57c10.14-.92 23.42-2.15 37.92-3.57-12.664 19.037-28.331 35.905-46.325 49.927-35.845 27.933-80.674 35.903-129.635 35.903-73.22 0-128.855-27.934-166.825-84.474 38.255 2.549 68.156 3.857 101.105 5.22 27.032 1.119 49.966 1.874 65.01 2.325 10.6.32 20.83 3.6 29.85 9.18 10.12 6.27 22.8 9.99 36.75 9.99 1.02 0 2.05-.02 3.08-.06 14.47-.56 28.3-5.12 38.96-12.84.04-.03.08-.06.12-.09 8.82-6.421 19.12-10.531 29.99-11.511z" fill="#91dafa"/><path d="m67.209 64.711-8.79-17.58c-.097-.194-.254-.35-.447-.447l-17.58-8.79c-.737-.369-.737-1.42 0-1.789l17.58-8.79c.194-.097.35-.254.447-.447l8.79-17.58c.369-.737 1.42-.737 1.789 0l8.79 17.58c.097.194.254.35.447.447l17.58 8.79c.737.369.737 1.42 0 1.789l-17.58 8.79c-.194.097-.35.254-.447.447l-8.79 17.58c-.369.737-1.421.737-1.789 0z" fill="#f3d332"/><path d="m458.209 502.713-8.8-17.584c-.097-.194-.254-.35-.447-.447l-17.598-8.791c-.737-.368-.737-1.421 0-1.789l17.598-8.791c.194-.097.351-.254.447-.447l8.8-17.584c.369-.737 1.42-.737 1.789 0l8.8 17.584c.097.193.254.35.447.447l17.598 8.791c.737.368.737 1.421 0 1.789l-17.598 8.791c-.194.097-.351.254-.447.447l-8.8 17.584c-.369.737-1.421.737-1.789 0z" fill="#f3d332"/><path d="m468.6 256c0 13.38-1.242 26.47-3.619 39.162-1.311 7-9.827 7.396-11.811 14.136-20.29 2.12-33.52.522-48.72 1.932-13.88 1.28-27.77-2.38-39.18-10.39-10.58-7.42-24.42-11.81-39.83-11.81-1.02 0-2.05.02-3.08.06-15.28.64-30.16 5.58-41.43 14.73-11.12 9.02-25.06 13.81-39.36 13.32-39.92-1.36-117.41 5.55-186.93.2-3.753-12.271 37.309-24.639 35.885-37.914-1.327-12.368-45.3-25.612-44.425-37.946l1.7-.1 106.76-5.62c101.08 0 68.52-15.72 162.47-15.72 2.1 0 101.7 10.06 149.51 7.4l.14-.01c1.27 9.35 1.92 18.88 1.92 28.57z" fill="#91dafa"/><path d="m422.702 137.76c-54.05 4.92-105.432-2.21-159.642-2.05l-79.97-1.45c-26.45-1.06-56.583 13.808-86.723 11.378 26.438-34.901 55.525-78.587 98.353-91.788 19.719-6.078 40.668-9.35 62.38-9.35 59.889 0 113.956 24.889 152.433 64.887 5.687 5.912 8.195 21.833 13.169 28.373z" fill="#91dafa"/><g fill="#75cff9"><path d="m390.46 420.16c-36.38 29.6-82.8 47.34-133.36 47.34-73.22 0-137.74-37.2-175.71-93.74 38.26 2.55 77.29 4.45 110.24 5.82 36.83 31.15 84.46 49.92 136.47 49.92 21.7 0 42.65-3.27 62.36-9.34z"/><path d="m425.54 128.08c-54.05 4.92-109.649 28.632-163.859 28.792h-87.83c-26.45-1.06-55.281-26.052-85.421-28.482 1.11-1.46 2.24-2.9 3.38-4.33.29-.36.58-.72.87-1.08 2.35-2.9 4.77-5.73 7.26-8.5.22-.24.44-.48.66-.73 25.14-27.65 57.5-48.62 94.12-59.9-13.17 10.72-25.03 22.99-35.29 36.54-4.62 6.1-8.91 12.47-12.86 19.06-.77 1.29.12 2.93 1.61 3.02 6.95.41 13.71.78 20.08 1.1.7.03 1.35-.31 1.74-.89 3.48-5.08 8.19-9.62 13.99-13.33 10.57-6.76 24.22-10.48 38.44-10.48.49 0 .98 0 1.47.01 23.63.42 43.49 10.73 53.05 25.76.38.59 1.02.95 1.72.94 43.52-.51 87.4-2.57 130.86-6.19 5.69 5.91 11.04 12.15 16.01 18.69z"/><path d="m464.97 295.16c-1.291 6.953-2.947 13.837-4.94 20.62-20.29 2.12-40.38 4.04-55.58 5.45-13.88 1.28-27.77-2.38-39.18-10.39-10.58-7.42-24.42-11.81-39.83-11.81-1.02 0-2.05.02-3.08.06-15.28.64-30.16 5.58-41.43 14.73-11.12 9.02-25.06 13.81-39.36 13.32-39.92-1.36-117.41-4.45-186.93-9.8-7.25-23.7-10.35-50.29-8.54-75.86l1.7-.1 59.75-3.15 10.68 6.04c1.48 12.04 3.98 23.75 7.41 35.07 2.14 7.1 4.66 14.04 7.51 20.79.59 1.41 1.95 2.35 3.48 2.43 42.34 2.27 81.08 3.76 105.62 4.59.44.02.88.02 1.32.02 8.9 0 17.7-3.15 24.76-8.88 14.2-11.53 33.09-18.34 53.19-19.18 1.34-.05 2.63-.08 3.92-.08 19.17 0 36.92 5.34 51.31 15.44 6.54 4.59 14.24 7.01 22.27 7.01 1.19 0 2.4-.06 3.59-.17 20.15-1.86 38.77-3.69 55.34-5.42z"/></g><path d="m466.68 227.43-.14.01c-47.81 2.66-147.41 2.6-149.51 2.6-93.95 0-61.39 15.72-162.47 15.72l-36.33-1.49-70.43-2.89c-.899.053 48.792-92.977 57.966-92.337 6.617.462 22.523-17.76 29.184-17.341 17.359 1.092 34.333 2.005 48.14 2.558l79.97 1.45c54.21-.16 108.43-2.71 162.48-7.63 21.58 28.36 36.15 62.34 41.14 99.35z" fill="#3a67c1"/><path d="m116.6 218c0 8.89.55 17.66 1.63 26.27l-70.43-2.89-1.7.1c2.86-42.33 18.18-81.24 42.33-113.09 14.41 1.16 30.63 2.31 46.52 3.31-9.92 22.17-16.13 46.36-17.85 71.78-.33 4.8-.5 9.64-.5 14.52z" fill="#30569f"/><path d="m263.073 135.489c0 .07 0 .15-.01.22-.44 14.21-16.875 19.511-38.855 19.121-21.99-.39-38.967-5.816-38.867-20.046.135-7.718 3.217-15.259 11.565-19.859 7.13-3.929 16.462-6.226 26.638-6.046 22.079.39 39.779 12.3 39.529 26.61z" fill="#3a67c1"/><path d="m263.06 135.75c-.47 14.19-18.48 25.33-40.44 24.94-21.99-.39-39.63-12.2-39.53-26.43v-.18c.14-7.78 5.55-14.66 14.01-19.26-.01.09-.01.17-.01.26v.18c-.1 14.23 17.54 26.04 39.53 26.43 10.08.18 19.33-2.07 26.44-5.94z" fill="#30569f"/></g><g><path d="m447.755 148.161c-17.285-30.664-44.075-59.022-74.784-78.033-3.514-2.194-8.14-1.126-10.334 2.387-2.195 3.513-1.125 8.14 2.387 10.334 17.413 10.877 32.779 24.04 45.847 38.955-46.941 3.91-94.374 6.041-141.319 6.348-4.428-15.111-22.903-26.367-45.877-26.774-18.434-.389-40.236 7.294-46.794 25.104-24.426-1.064-49.044-2.621-73.448-4.652 38.328-43.832 94.166-69.83 153.67-69.83 26.969 0 53.169 5.177 77.873 15.388 3.827 1.584 8.213-.238 9.796-4.066s-.238-8.214-4.066-9.796c-26.53-10.966-54.658-16.526-83.603-16.526-79.473 0-152.86 43.188-191.522 112.712-2.013 3.62-.71 8.187 2.91 10.2 1.154.642 2.405.947 3.638.947 2.634 0 5.19-1.391 6.562-3.856 4.089-7.354 8.6-14.387 13.484-21.085 28.006 2.484 56.365 4.354 84.47 5.571 4.161 14.837 24.248 26.929 47.115 26.711 22.262-.001 40.538-10.444 45.482-25.042 50.811-.321 102.196-2.757 152.922-7.261 18.156 24.882 30.446 53.686 35.833 84.468-47.337 2.136-131.035 2.174-140.963 2.175-47.012 0-63.498 3.994-79.441 7.855-10.22 2.476-19.873 4.814-37.681 6.317-4.127.349-7.191 3.977-6.843 8.104.331 3.913 3.608 6.87 7.465 6.87 17.616-1.304 30.922-4.322 40.59-6.712 15.782-3.823 30.688-7.434 75.909-7.434 10.136.011 95.186-.029 143.024-2.254 2.491 23.086.426 50.635-5.911 73.563-15.306 1.578-32.217 3.227-50.382 4.912-12.125 1.12-24.266-2.099-34.186-9.063-12.456-8.864-30.191-13.864-47.53-13.103-17.436.73-33.716 6.555-45.841 16.398-9.784 7.937-21.989 12.081-34.38 11.649-38.874-1.324-113.291-4.284-181.388-9.387-5.185-18.665-7.97-40.303-7.213-61.148 13.306.363 103.087 4.724 112.29 4.086 4.142-.052 7.458-3.451 7.406-7.593s-3.491-7.464-7.593-7.406c-2.183.8-105.782-3.962-111.068-4.057 1.652-15.525 5.067-30.754 10.217-45.486 1.367-3.91-.694-8.188-4.604-9.555-3.908-1.369-8.188.694-9.555 4.604-49.955 146.404 58.908 291.105 206.784 291.296 58.497 0 113.493-22.78 154.856-64.143s64.144-96.358 64.144-154.855c0-37.829-9.802-75.118-28.348-107.837zm-224.999 5.028c-19.03-.337-32.224-10.219-32.163-18.931 2.956-14.337 18.593-17.211 32.817-17.881 19.085.337 32.235 10.213 32.165 18.9-.003.066-.006.133-.009.199-.267 8.649-13.831 18.057-32.81 17.713zm34.347 306.807c-64.844 0-122.715-30.415-160.108-77.724 63.419 3.924 126.168 6.125 159.422 7.121 9.009.272 18.045 3.06 26.125 8.059 3.351 2.076 6.954 3.9 10.71 5.423.923.374 1.876.551 2.815.551 2.964 0 5.771-1.769 6.953-4.685 1.556-3.839-.295-8.212-4.134-9.768-2.972-1.205-5.813-2.642-8.448-4.275-10.323-6.386-21.931-9.947-33.571-10.298-35.298-1.058-103.912-3.476-171.151-7.876-8.234-12.723-15.092-26.415-20.359-40.866 67.985 4.892 138.562 7.774 178.207 9.013 15.221 0 30.09-5.293 42.095-15.031 9.639-7.825 22.785-12.463 36.995-13.059 14.358-.555 28.036 3.189 38.309 10.395 12.823 9.001 28.51 13.166 44.182 11.719 15.725-1.459 30.509-2.891 44.139-4.273-5.237 14.664-12.094 28.564-20.378 41.469-10.858 1.054-22.336 2.131-34.187 3.206-11.937 1.076-23.601 5.542-33.73 12.916-7.333 5.449-19.333 10.119-30.541 11.189-4.121.419-7.121 4.1-6.702 8.221.394 3.863 3.651 6.741 7.452 6.741 13.197-1.03 28.111-6.272 38.651-14.048 7.929-5.763 16.994-9.248 26.22-10.08 7.263-.659 14.38-1.318 21.309-1.973-37.385 47.43-95.334 77.933-160.275 77.933z"/><path d="m352.667 370.757c8.044-5.827 12.472-13.95 12.147-22.286-.644-16.529-18.928-28.802-41.616-27.902-22.693.883-39.965 14.522-39.322 31.053.622 15.967 17.7 27.947 39.317 27.947 9.302.162 22.043-3.173 29.474-8.812zm-53.803-19.718c-.266-6.854 9.901-14.896 24.917-15.481 12.53-1 26.381 6.706 26.044 13.497.172 4.433-3.659 7.889-5.958 9.555-4.81 3.484-11.72 5.644-18.959 5.926-15.011.577-25.777-6.645-26.044-13.497z"/><path d="m35.249 43.708 17.43 8.716 8.716 17.43c1.271 2.541 3.867 4.146 6.708 4.146s5.438-1.605 6.708-4.146l8.716-17.43 17.43-8.716c2.541-1.271 4.146-3.867 4.146-6.708s-1.605-5.438-4.146-6.708l-17.43-8.715-8.716-17.43c-1.27-2.542-3.867-4.147-6.708-4.147s-5.438 1.605-6.708 4.146l-8.716 17.43-17.43 8.715c-2.541 1.27-4.146 3.867-4.146 6.708s1.605 5.438 4.146 6.709zm26.375-9.833c1.452-.726 2.628-1.902 3.354-3.354l3.125-6.25 3.125 6.25c.726 1.452 1.902 2.628 3.354 3.354l6.251 3.125-6.25 3.125c-1.452.726-2.628 1.902-3.354 3.354l-3.125 6.25-3.125-6.25c-.726-1.452-1.902-2.628-3.354-3.354l-6.251-3.125z"/><path d="m491.985 468.287-17.45-8.718-8.725-17.433c-1.271-2.54-3.867-4.144-6.707-4.144s-5.436 1.604-6.707 4.144l-8.725 17.433-17.45 8.718c-2.542 1.27-4.148 3.868-4.148 6.709s1.606 5.439 4.148 6.709l17.45 8.717 8.725 17.434c1.271 2.54 3.867 4.144 6.707 4.144s5.436-1.604 6.707-4.144l8.725-17.434 17.45-8.717c2.542-1.27 4.148-3.868 4.148-6.709s-1.606-5.439-4.148-6.709zm-26.39 9.834c-1.452.725-2.629 1.902-3.355 3.353l-3.136 6.267-3.136-6.267c-.726-1.451-1.904-2.628-3.355-3.353l-6.256-3.125 6.256-3.125c1.452-.726 2.629-1.902 3.355-3.353l3.136-6.267 3.136 6.267c.726 1.451 1.903 2.627 3.355 3.353l6.256 3.125z"/><path d="m457.724 71.009h7.487v7.477c0 4.142 3.358 7.5 7.5 7.5s7.5-3.358 7.5-7.5v-7.477h7.488c4.142 0 7.5-3.358 7.5-7.5s-3.358-7.5-7.5-7.5h-7.488v-7.476c0-4.142-3.358-7.5-7.5-7.5s-7.5 3.358-7.5 7.5v7.476h-7.487c-4.142 0-7.5 3.358-7.5 7.5s3.358 7.5 7.5 7.5z"/><path d="m43.603 400.288h-2.618v-2.61c0-4.142-3.358-7.5-7.5-7.5s-7.5 3.358-7.5 7.5v2.61h-2.618c-4.142 0-7.5 3.358-7.5 7.5s3.358 7.5 7.5 7.5h2.618v2.61c0 4.142 3.358 7.5 7.5 7.5s7.5-3.358 7.5-7.5v-2.61h2.618c4.142 0 7.5-3.358 7.5-7.5s-3.358-7.5-7.5-7.5z"/><path d="m100.781 473.106h-2.618v-2.61c0-4.142-3.358-7.5-7.5-7.5s-7.5 3.358-7.5 7.5v2.61h-2.618c-4.142 0-7.5 3.358-7.5 7.5s3.358 7.5 7.5 7.5h2.618v2.61c0 4.142 3.358 7.5 7.5 7.5s7.5-3.358 7.5-7.5v-2.61h2.618c4.142 0 7.5-3.358 7.5-7.5s-3.358-7.5-7.5-7.5z"/></g></g></svg>