<svg id="Capa_1" enable-background="new 0 0 512 512" height="512" viewBox="0 0 512 512" width="512" xmlns="http://www.w3.org/2000/svg"><g><g><path d="m265.695 484.948-121.65.86 3.064-57.362c0-2.312.801-4.552 2.266-6.339l29.734-35.193 56.262.763 28.058 33.829c1.466 1.788 2.266 4.028 2.266 6.339v6.524l-5.139 7.949 5.139 7.051z" fill="#b7e546"/><path d="m199.25 387.68-28.59 33.83c-1.46 1.78-2.26 4.02-2.26 6.34v57.1h-28v-35.58l8.581-8.327-8.581-6.673v-6.52c0-2.32.8-4.56 2.26-6.34l28.59-33.83z" fill="#abd641"/><path d="m375.279 500.617-259.149.383c-4.418 0-8-3.582-8-8l.213-10.383c0-4.418 3.582-8 8-8l5.267-2.115h23.75l7.5 6.668 7.5-6.668h32l7.5 8.583 7.5-8.583h32l7.25 8.583 7.75-8.583h32l8.11 8.583 6.89-8.583h32l7.5 8.583 7.5-8.583h31.25c4.418 0 8 3.582 8 8v8.998l-3.905 6.266c-.001 4.419-4.008 4.851-8.426 4.851z" fill="#efedef"/><path d="m387.61 489.5v7c0 4.42-3.58 8-8 8h-31.25l-6.698-6.777-8.302 6.777h-32l-5.705-6.777-9.295 6.777h-32l-6.948-6.777-8.052 6.777h-32l-5.152-6.777-9.848 6.777h-32l-7.5-3.554-7.5 3.554h-31.75c-4.42 0-8-3.58-8-8v-16c0-4.42 3.58-8 8-8h8v9c0 4.42 3.58 8 8 8z" fill="#e3e0e4"/><g><g><path d="m145.36 489.5h15v15h-15z" fill="#d4cfd5"/></g><g><path d="m192.36 489.5h15v15h-15z" fill="#d4cfd5"/></g><g><path d="m239.36 489.5h15v15h-15z" fill="#d4cfd5"/></g><g><path d="m286.36 489.5h15v15h-15z" fill="#d4cfd5"/></g><g><path d="m333.36 489.5h15v15h-15z" fill="#d4cfd5"/></g></g><path d="m169.671 285.94 67.279 49.997v41.528c0 18.577-15.061 33.637-33.639 33.637-6.895 0-13.305-2.074-18.641-5.632-9.042-6.03-6.242-33.34-6.242-45.023z" fill="#efedef"/><path d="m184.67 297.09v108.38c-1.86-1.23-3.58-2.65-5.15-4.22-6.09-6.09-9.85-14.5-9.85-23.79v-91.52z" fill="#e3e0e4"/><path d="m390.06 294.51h-.01c-2.122 3.674-4.399 7.205-6.818 10.589-2.974 4.159-6.162 2.366-9.542 6.072l-254.355-145.277c2.76-8.67 3.524-10.546 8.254-18.746 1.67-2.894 5.38-3.841 8.2-2.19l9.031 1.052 243.04 140.31c2.87 1.65 3.85 5.32 2.2 8.19z" fill="#e3e0e4"/><path d="m383.22 305.09-240.089-137.95c-1.855-1.066-2.826-3.192-2.423-5.293.941-4.906 2.171-9.786 3.712-14.617.13-.41.26-.81.4-1.22l-10.98-6.34c-2.82-1.651-6.531-.704-8.2 2.19-2.228 3.862-4.225 7.793-6.013 11.774l-.007-.004c-1.967 4.439-3.73 8.974-5.2 13.6l109.965 82.153s149.305 67.517 149.305 67.517c3.38-3.71 6.57-7.65 9.53-11.81z" fill="#d4cfd5"/><path d="m321.151 149.043c-6.237 10.802-15.24 9.215-26.043 2.979-10.802-6.236-13.13-14.39-6.894-25.191 3.333-5.773 6.2-11.366 12.245-12.649 5.266-1.118 10.947-.368 15.975 2.535 10.083 5.821 13.979 18.244 9.381 28.657-.327.741-4.249 2.95-4.664 3.669z" fill="#b7e546"/><path d="m325.81 145.37c-.32.74-.69 1.48-1.11 2.2-6.23 10.8-20.05 14.5-30.85 8.26-10.8-6.23-14.5-20.05-8.27-30.85 3.33-5.77 8.83-9.52 14.88-10.8-4.58 10.41-.69 22.84 9.39 28.65 5.02 2.9 10.7 3.65 15.96 2.54z" fill="#abd641"/><path d="m472.108 196.444-8.164-16.326c-.097-.194-.254-.35-.447-.447l-16.326-8.162c-.737-.368-.737-1.42 0-1.789l16.324-8.165c.194-.097.35-.254.447-.447l8.161-16.328c.368-.737 1.42-.737 1.789 0l8.164 16.326c.097.194.254.35.447.447l16.326 8.162c.737.368.737 1.42 0 1.789l-16.324 8.165c-.194.097-.35.254-.447.447l-8.161 16.328c-.368.737-1.42.737-1.789 0z" fill="#91dafa"/><path d="m38.108 361.444-8.164-16.326c-.097-.194-.254-.35-.447-.447l-16.326-8.162c-.737-.368-.737-1.42 0-1.789l16.324-8.165c.194-.097.35-.254.447-.447l8.161-16.328c.368-.737 1.42-.737 1.789 0l8.164 16.326c.097.194.254.35.447.447l16.326 8.162c.737.368.737 1.42 0 1.789l-16.324 8.165c-.194.097-.35.254-.447.447l-8.161 16.328c-.368.737-1.42.737-1.789 0z" fill="#91dafa"/><path d="m373.69 316.9c-18.694 20.54-43.214 34.019-69.488 39.348-29.652 6.014-49.577-6.637-77.842-22.951l-41.69-24.07c-53.31-30.78-85.639-68.705-67.689-125.035l7.99-2.392 13.51-.68z" fill="#efedef"/><path d="m304.2 356.24c-29.65 6.02-61.53 1.65-89.8-14.66l-41.69-24.07c-53.31-30.78-76.24-93.95-58.29-150.28l24.06 13.89c-1.76 46.14 21.45 91.69 64.23 116.39z" fill="#e3e0e4"/></g><g><path d="m391.609 279.821-54.498-31.462-23.275-83.314c7.073-2.135 13.385-6.841 17.361-13.728 4.018-6.959 5.085-15.066 3.006-22.828-2.08-7.762-7.058-14.25-14.018-18.267-14.367-8.295-32.803-3.354-41.097 11.011-3.849 6.666-4.982 14.385-3.244 21.846l-83.828 21.515-54.43-31.423c-6.447-3.723-14.718-1.504-18.441 4.941-18.176 31.479-23.004 68.151-13.596 103.262 8.717 32.53 28.694 60.104 56.62 78.437v57.65c0 2.835.29 5.625.846 8.34l-26.081 30.865c-.024.029-.048.057-.072.086-2.558 3.12-3.966 7.06-3.966 11.094v37.156h-19.286c-8.547 0-15.5 6.953-15.5 15.5v15.998c0 8.547 6.953 15.5 15.5 15.5h266c8.547 0 15.5-6.953 15.5-15.5v-15.998c0-8.547-6.953-15.5-15.5-15.5h-106.415v-37.156c0-4.034-1.409-7.974-3.994-11.127l-25.611-30.879c.562-2.706.86-5.509.86-8.379v-15.499c11.076 2.889 22.486 4.369 34.026 4.369 4.404 0 8.831-.214 13.26-.644 4.123-.4 7.141-4.067 6.74-8.189s-4.068-7.145-8.189-6.74c-37.244 3.046-59.187-7.164-93.711-28.13-39.782-20.83-64.776-43.121-76.537-85.136-5.25-19.595-5.51-39.734-.989-58.938l58.035 33.504c1.182.682 2.471 1.006 3.743 1.006 2.592 0 5.113-1.346 6.502-3.751 2.071-3.587.842-8.174-2.745-10.245l-61.053-35.247c2.169-5.776 4.787-11.428 7.862-16.905l251.408 145.141c-3.208 5.406-6.795 10.494-10.711 15.261l-157.195-90.751c-3.589-2.072-8.175-.842-10.245 2.745-2.071 3.587-.842 8.174 2.745 10.245l154.19 89.016c-10.581 9.945-22.94 17.916-36.707 23.583-3.83 1.577-5.657 5.96-4.081 9.791 1.577 3.831 5.959 5.657 9.791 4.081 27.984-11.52 50.793-31.495 65.961-57.764 1.804-3.123 2.283-6.761 1.35-10.245-.935-3.484-3.168-6.396-6.291-8.198zm-199.249 200.181v16.998h-32v-16.998zm47 0v16.998h-32v-16.998zm47 0v16.998h-32v-16.998zm15 0h32v16.998h-32zm-188.25 16.498v-15.998c0-.276.224-.5.5-.5h31.75v16.998h-31.75c-.276 0-.5-.224-.5-.5zm267-15.998v15.998c0 .276-.224.5-.5.5h-31.25v-16.998h31.25c.276 0 .5.224.5.5zm-122.482-54.24c.366.446.567 1.008.567 1.584v6.52h-38.617c-4.142 0-7.5 3.358-7.5 7.5s3.358 7.5 7.5 7.5h38.617v15.636h-110.298v-15.636h36.681c4.142 0 7.5-3.358 7.5-7.5s-3.358-7.5-7.5-7.5h-36.681v-6.52c0-.563.193-1.114.543-1.556l21.237-25.134c1.347 1.904 2.856 3.714 4.539 5.397 7.769 7.769 18.101 12.047 29.093 12.047 13.836 0 26.09-6.873 33.551-17.377zm-28.178-69.169v20.368c0 14.414-11.726 26.14-26.14 26.14-6.986 0-13.551-2.718-18.487-7.654-4.936-4.935-7.653-11.5-7.653-18.486v-48.716l33.477 19.327c6.08 3.51 12.366 6.51 18.803 9.021zm41.645-146.847 25.98-44.997c.444.124.89.231 1.336.333l20.13 72.053zm20.984-81.513c4.217-6.475 12.305-9.918 20.607-5.521 3.49 2.015 5.986 5.268 7.028 9.159 1.043 3.892.508 7.957-1.507 11.446-4.158 7.203-13.401 9.678-20.604 5.523-.001 0-.001-.001-.002-.001-.001-.001-.002-.001-.003-.002-2.152-1.243-3.922-2.959-5.21-5.003-2.349-3.428-3.309-9.981-.309-15.601zm-9.026 27.982c.332.358.673.708 1.023 1.05l-25.972 44.982-47.519-27.433z"/><path d="m313.6.012c-4.142-.229-7.674 2.939-7.903 7.075s2.939 7.674 7.075 7.903c36.734 2.031 73.474 23.241 93.6 54.036 1.439 2.202 3.838 3.398 6.285 3.398 1.407 0 2.831-.396 4.096-1.223 3.467-2.266 4.441-6.914 2.175-10.381-22.648-34.655-63.992-58.523-105.328-60.808z"/><path d="m309.986 78.177c16.117.891 34.223 11.344 43.053 24.855 1.439 2.202 3.838 3.398 6.285 3.398 1.407 0 2.831-.396 4.096-1.223 3.467-2.266 4.441-6.914 2.175-10.381-11.417-17.469-33.944-30.474-54.782-31.626-4.145-.236-7.674 2.939-7.903 7.075-.227 4.135 2.94 7.673 7.076 7.902z"/><path d="m310.504 48.099c26.403 1.459 53.861 17.312 68.327 39.445 1.439 2.202 3.838 3.398 6.285 3.398 1.407 0 2.831-.396 4.096-1.223 3.467-2.266 4.441-6.914 2.175-10.381-17.214-26.338-48.637-44.479-80.055-46.217-4.134-.231-7.674 2.938-7.903 7.075-.228 4.135 2.939 7.674 7.075 7.903z"/><path d="m111.633 32.703-4.204.001c-4.142.001-7.5 3.359-7.499 7.501 0 2.071.839 3.945 2.197 5.302 1.357 1.357 3.233 2.197 5.305 2.197l4.202-.001v4.202c0 2.071.84 3.946 2.197 5.303s3.233 2.197 5.304 2.197c4.142 0 7.5-3.359 7.5-7.501v-4.204l4.204-.001c4.142-.001 7.5-3.359 7.499-7.501-.001-4.141-3.359-7.499-7.501-7.499l-4.202.001v-4.202c-.001-4.143-3.359-7.5-7.501-7.5s-7.5 3.359-7.5 7.501z"/><path d="m452.632 401.701-.001-4.204c-.001-4.142-3.359-7.5-7.501-7.499-4.141.001-7.499 3.359-7.499 7.501l.001 4.202h-4.202c-4.143.001-7.5 3.359-7.5 7.501s3.359 7.5 7.501 7.5h4.204l.001 4.204c.001 4.142 3.359 7.5 7.501 7.499 2.071 0 3.945-.839 5.302-2.197s2.197-3.233 2.197-5.305l-.001-4.202h4.202c2.071 0 3.946-.84 5.303-2.197s2.197-3.233 2.197-5.304c0-4.142-3.359-7.5-7.501-7.5z"/><path d="m503.972 163.9-16.177-8.087-8.09-16.177c-1.271-2.541-3.868-4.146-6.709-4.146s-5.438 1.606-6.708 4.147l-8.086 16.179-16.175 8.091c-2.541 1.271-4.146 3.868-4.145 6.708 0 2.84 1.605 5.437 4.146 6.708l16.176 8.087 8.09 16.177c1.271 2.541 3.868 4.146 6.709 4.146s5.438-1.606 6.708-4.147l8.086-16.179 16.175-8.091c2.541-1.271 4.146-3.868 4.145-6.708.001-2.841-1.604-5.437-4.145-6.708zm-25.12 9.21c-1.452.726-2.628 1.903-3.354 3.354l-2.498 4.996-2.498-4.996c-.726-1.451-1.903-2.628-3.354-3.354l-4.998-2.499 4.997-2.5c1.452-.726 2.628-1.903 3.354-3.354l2.498-4.996 2.498 4.996c.726 1.452 1.903 2.628 3.354 3.354l4.998 2.499z"/><path d="m69.972 328.9-16.177-8.087-8.09-16.177c-1.271-2.541-3.868-4.146-6.709-4.146s-5.438 1.606-6.708 4.147l-8.086 16.179-16.175 8.091c-2.541 1.271-4.146 3.868-4.145 6.708 0 2.84 1.605 5.437 4.146 6.708l16.176 8.087 8.09 16.177c1.271 2.541 3.868 4.146 6.709 4.146s5.438-1.606 6.708-4.147l8.086-16.179 16.175-8.091c2.541-1.271 4.146-3.868 4.145-6.708.001-2.841-1.604-5.437-4.145-6.708zm-25.12 9.21c-1.452.726-2.628 1.903-3.354 3.354l-2.498 4.996-2.498-4.996c-.726-1.451-1.903-2.628-3.354-3.354l-4.998-2.499 4.997-2.5c1.452-.726 2.628-1.903 3.354-3.354l2.498-4.996 2.498 4.996c.726 1.452 1.903 2.628 3.354 3.354l4.998 2.499z"/><circle cx="203.31" cy="381.639" r="7.501"/></g></g></svg>