<svg id="Capa_1" enable-background="new 0 0 512 512" height="512" viewBox="0 0 512 512" width="512" xmlns="http://www.w3.org/2000/svg"><g><g><path d="m404.31 47.64-130.882 14.254-162.199-9.753v-21.907c0-11.046 3.424-16.681 14.47-16.681l8.295-6.053h250.316c11.046 0 20 8.954 20 20z" fill="#e3e0e4"/><path d="m145.709 7.5c-11.04 0-20 8.95-20 20v20.14l-10.58 9.488-7.42-9.488v-20.14c0-11.05 8.96-20 20-20z" fill="#d4cfd5"/><path d="m459.019 315.34-183.212 12.086-219.103-2.724 47.869-227.745 158.979-9.531 151.687 13.714 10.879 53.23-10.879 51.694 32.9 56.046z" fill="#efedef"/><path d="m315.109 222.238c0-39.273-31.837-71.111-71.111-71.111-16.535 0-31.739 5.659-43.817 15.125l-.264-1.734-9.06 10.465.01.01c-11.179 12.562-17.98 29.105-17.98 47.244 0 39.273 31.837 71.111 71.111 71.111 22.065 0 41.782-10.051 54.825-25.823l.001.002 9.845-11.527-1.764-.604c5.23-9.902 8.204-21.18 8.204-33.158z" fill="#e3e0e4"/><path d="m415.239 101.14h-318.48l14.47-24.268-3.53-29.232h296.6z" fill="#3a67c1"/><path d="m125.699 47.64-10.94 53.5-12.575 8.413-5.425-8.413 10.94-53.5z" fill="#30569f"/><path d="m469.939 368.76-210.676 8.368-217.204-8.368 10.92-53.42h406.04z" fill="#3a67c1"/><path d="m404.213 504.5h-269.964l-22.849-5.271c-4.223 0-8.349-1.266-11.846-3.634l-48.495-38.809 404.493-3.404-13.666 29.993-25.827 17.49c-3.497 2.369-7.623 3.635-11.846 3.635z" fill="#e3e0e4"/><path d="m441.889 483.38h-322.529c-4.928 0-6.884 6.377-2.803 9.14l17.692 11.98h-26.46c-4.23 0-8.35-1.27-11.85-3.63l-53.88-36.49 212.302-10.997 215.578 10.997z" fill="#d4cfd5"/><path d="m469.937 368.76h-427.876v95.62l8.998-9.635 9 9.635h409.878z" fill="#efedef"/><path d="m60.059 368.76v95.62h-18v-95.62l10.92-10.015z" fill="#e3e0e4"/><g fill="#b7e546"><circle cx="99.664" cy="416.57" r="15.845"/><circle cx="177.831" cy="416.57" r="15.845"/><circle cx="255.999" cy="416.57" r="15.845"/><circle cx="334.166" cy="416.57" r="15.845"/><circle cx="412.334" cy="416.57" r="15.845"/></g><path d="m82.229 262.11-10.88 53.23-14.645 9.362-3.725-9.362 10.88-53.23 13.14-9.919z" fill="#e3e0e4"/><path d="m115.129 101.14-10.88 53.23-12.952 9.311-5.418-9.311 10.88-53.23z" fill="#e3e0e4"/><path d="m71.349 315.34-10.92 53.42h-18.37l10.92-53.42z" fill="#30569f"/><path d="m150.429 166.26-9.922 77.85-4.328 6c-.66 5.28-5.15 9.23-10.48 9.23l-56.53-3.34 15.319-49.936 1.391-51.694h54.07c6.37 0 11.3 5.58 10.48 11.89z" fill="#b7e546"/><path d="m87.625 235.708 16.624-81.338h-18.37l-22.02 107.74h18.37 46.68c5.33 0 9.82-3.95 10.48-9.23l1.12-8.77h-46.026c-4.429 0-7.745-4.062-6.858-8.402z" fill="#abd641"/><g fill="#30569f"><circle cx="133.994" cy="74.048" r="7.217"/><circle cx="168.853" cy="74.048" r="7.217"/><circle cx="203.711" cy="74.048" r="7.217"/><circle cx="238.57" cy="74.048" r="7.217"/><circle cx="273.428" cy="74.048" r="7.217"/><circle cx="308.286" cy="74.048" r="7.217"/><circle cx="343.145" cy="74.048" r="7.217"/><circle cx="378.003" cy="74.048" r="7.217"/></g><g fill="#30569f"><circle cx="74.499" cy="342.428" r="7.096"/><circle cx="107.499" cy="342.428" r="7.096"/><circle cx="140.499" cy="342.428" r="7.096"/><circle cx="173.499" cy="342.428" r="7.096"/><circle cx="206.499" cy="342.428" r="7.096"/><circle cx="239.499" cy="342.428" r="7.096"/><circle cx="272.499" cy="342.428" r="7.096"/><circle cx="305.499" cy="342.428" r="7.096"/><circle cx="338.499" cy="342.428" r="7.096"/><circle cx="371.499" cy="342.428" r="7.096"/><circle cx="404.499" cy="342.428" r="7.096"/><circle cx="437.499" cy="342.428" r="7.096"/></g><path d="m440.914 256-51.839.317c-5.33 0-9.82-3.95-10.48-9.23l-7.096-73.874c-.82-6.31-6.37-11.574 0-11.574l6.7-7.268h47.92l18.341 89.74z" fill="#b7e546"/><path d="m448.139 262.11h-65.05c-5.33 0-9.82-3.95-10.48-9.23l-11.04-86.62c-.82-6.31 4.11-11.89 10.48-11.89h6.15l10.661 83.625c.446 3.495 3.42 6.115 6.944 6.115h48.656z" fill="#abd641"/><path d="m327.109 208.238c0 19.962-8.225 38.003-21.471 50.918-12.814 12.495-28.557 15.503-47.869 15.503-39.273 0-69.111-27.146-69.111-66.42 0-16.486 1.84-31.664 11.256-43.724 13.014-16.67 33.298-27.388 56.085-27.388 39.273.001 71.11 31.838 71.11 71.111z" fill="#3a67c1"/><path d="m311.899 252.18c-13.01 16.55-33.22 27.17-55.9 27.17-39.27 0-71.11-31.84-71.11-71.11 0-22.68 10.62-42.89 27.17-55.9-9.5 12.09-15.17 27.33-15.17 43.9 0 39.27 31.84 71.11 71.11 71.11 16.57 0 31.81-5.67 43.9-15.17z" fill="#30569f"/><path d="m255.999 247.085c-23.087 0-35.34-15.758-35.34-38.845 0-17.789 4.622-33.024 20.301-39.078 4.67-1.803 9.741-2.792 15.039-2.792 23.087 0 41.869 18.782 41.869 41.869 0 10.793-4.105 20.644-10.835 28.077-7.666 8.465-18.74 10.769-31.034 10.769z" fill="#91dafa"/><path d="m287.039 236.32c-7.67 8.47-18.74 13.79-31.04 13.79-23.09 0-41.87-18.78-41.87-41.87 0-17.79 11.15-33.02 26.83-39.08-6.73 7.43-10.83 17.29-10.83 28.08 0 23.09 18.78 41.87 41.87 41.87 5.3 0 10.37-.99 15.04-2.79z" fill="#75cff9"/></g><g><path d="m477.436 464.355v-95.56c-.032-.287.063-.273-.162-1.583-13.86-67.809-52.034-254.567-65.464-320.271v-19.441c0-15.164-12.337-27.5-27.5-27.5h-256.6c-15.163 0-27.5 12.336-27.5 27.5v19.331c-14.566 71.261-50.95 249.265-65.487 320.381-.027.284-.117.263-.162 1.583v95.56c.069 2.191.931 4.692 3.326 6.255l53.846 36.465c4.756 3.222 10.307 4.924 16.052 4.924h52.547c4.143 0 7.5-3.358 7.5-7.5s-3.357-7.5-7.5-7.5h-52.547c-2.734 0-5.376-.811-7.641-2.344l-33.633-22.777h378.975l-33.634 22.777c-2.264 1.533-4.905 2.343-7.64 2.343h-208.88c-4.143 0-7.5 3.358-7.5 7.5s3.357 7.5 7.5 7.5h208.881c5.745 0 11.296-1.703 16.051-4.924l53.847-36.466c1.729-1.208 3.402-3.471 3.325-6.253zm-427.875-88.095h412.875v80.619h-412.875zm1.688-15 7.853-38.42h393.793l7.853 38.42zm18.733-91.65h58.93c9.081 0 16.785-6.79 17.919-15.784l2.895-22.718c.524-4.109-2.383-7.864-6.491-8.388-4.108-.525-7.864 2.383-8.388 6.492l-2.896 22.727c-.191 1.522-1.498 2.67-3.038 2.67h-55.865l18.957-92.744h47.946c1.442.294 2.727.388 3.039 3.446l-3.719 29.182c-.524 4.109 2.383 7.864 6.491 8.388.322.041.642.061.958.061 3.72 0 6.947-2.766 7.43-6.553l3.718-29.17c1.351-9.354-6.467-20.429-17.917-20.354h-44.88l7.813-38.226h306.228l7.813 38.226h-44.88c-9.438-.149-19.456 9.009-17.918 20.342l11.036 86.608c1.136 9.004 8.84 15.793 17.921 15.793h58.93l7.814 38.229h-387.66zm368.967-15h-55.864c-1.54 0-2.847-1.148-3.04-2.68l-11.039-86.629c.109-1.472.047-2.729 3.04-3.435h47.946zm-323.739-227.11c0-6.893 5.607-12.5 12.5-12.5h256.6c6.893 0 12.5 5.607 12.5 12.5v12.64h-46.921c-4.143 0-7.5 3.358-7.5 7.5s3.357 7.5 7.5 7.5h48.288l7.869 38.5h-300.095l7.869-38.5h201.018c4.143 0 7.5-3.358 7.5-7.5s-3.357-7.5-7.5-7.5h-199.628z"/><path d="m99.664 393.225c-12.872 0-23.345 10.472-23.345 23.345s10.473 23.345 23.345 23.345 23.345-10.472 23.345-23.345-10.473-23.345-23.345-23.345zm0 31.69c-4.602 0-8.345-3.744-8.345-8.345s3.743-8.345 8.345-8.345 8.345 3.744 8.345 8.345-3.744 8.345-8.345 8.345z"/><path d="m177.832 393.225c-12.872 0-23.345 10.472-23.345 23.345s10.473 23.345 23.345 23.345 23.345-10.472 23.345-23.345-10.473-23.345-23.345-23.345zm0 31.69c-4.602 0-8.345-3.744-8.345-8.345s3.743-8.345 8.345-8.345 8.345 3.744 8.345 8.345-3.744 8.345-8.345 8.345z"/><path d="m255.999 393.225c-12.872 0-23.345 10.472-23.345 23.345s10.473 23.345 23.345 23.345 23.345-10.472 23.345-23.345-10.473-23.345-23.345-23.345zm0 31.69c-4.602 0-8.345-3.744-8.345-8.345s3.743-8.345 8.345-8.345 8.345 3.744 8.345 8.345-3.744 8.345-8.345 8.345z"/><path d="m334.166 393.225c-12.872 0-23.345 10.472-23.345 23.345s10.473 23.345 23.345 23.345 23.345-10.472 23.345-23.345-10.473-23.345-23.345-23.345zm0 31.69c-4.602 0-8.345-3.744-8.345-8.345s3.743-8.345 8.345-8.345 8.345 3.744 8.345 8.345-3.744 8.345-8.345 8.345z"/><path d="m412.334 393.225c-12.872 0-23.345 10.472-23.345 23.345s10.473 23.345 23.345 23.345 23.345-10.472 23.345-23.345-10.473-23.345-23.345-23.345zm0 31.69c-4.602 0-8.345-3.744-8.345-8.345s3.743-8.345 8.345-8.345 8.345 3.744 8.345 8.345-3.744 8.345-8.345 8.345z"/><path d="m317.631 171.958c-3.769 1.717-5.432 6.166-3.715 9.935 3.778 8.29 5.693 17.154 5.693 26.345 0 35.075-28.535 63.611-63.61 63.611s-63.61-28.536-63.61-63.611 28.535-63.611 63.61-63.611c13.574 0 26.525 4.215 37.454 12.189 3.345 2.44 8.036 1.708 10.479-1.638 2.441-3.346 1.708-8.038-1.638-10.479-13.513-9.86-29.521-15.072-46.296-15.072-43.346 0-78.61 35.265-78.61 78.611s35.265 78.611 78.61 78.611 78.61-35.265 78.61-78.611c0-11.353-2.37-22.309-7.043-32.565-1.717-3.769-6.163-5.433-9.934-3.715z"/><path d="m255.999 158.869c-27.223 0-49.369 22.147-49.369 49.369s22.146 49.369 49.369 49.369 49.369-22.147 49.369-49.369-22.147-49.369-49.369-49.369zm0 83.738c-18.951 0-34.369-15.418-34.369-34.369s15.418-34.369 34.369-34.369 34.369 15.418 34.369 34.369-15.418 34.369-34.369 34.369z"/><circle cx="133.994" cy="74.049" r="7.501"/><circle cx="168.848" cy="74.049" r="7.501"/><circle cx="203.703" cy="74.049" r="7.501"/><circle cx="238.557" cy="74.049" r="7.501"/><circle cx="273.412" cy="74.049" r="7.501"/><circle cx="308.266" cy="74.049" r="7.501"/><circle cx="343.121" cy="74.049" r="7.501"/><circle cx="377.975" cy="74.049" r="7.501"/><circle cx="74.499" cy="342.431" r="7.498"/><circle cx="107.499" cy="342.431" r="7.498"/><circle cx="140.499" cy="342.431" r="7.498"/><circle cx="173.499" cy="342.431" r="7.498"/><circle cx="206.499" cy="342.431" r="7.498"/><circle cx="239.499" cy="342.431" r="7.498"/><circle cx="272.499" cy="342.431" r="7.498"/><circle cx="305.499" cy="342.431" r="7.498"/><circle cx="338.499" cy="342.431" r="7.498"/><circle cx="371.499" cy="342.431" r="7.498"/><circle cx="404.499" cy="342.431" r="7.498"/><circle cx="437.499" cy="342.431" r="7.498"/></g></g></svg>