<svg id="Capa_1" enable-background="new 0 0 512.002 512.002" height="512" viewBox="0 0 512.002 512.002" width="512" xmlns="http://www.w3.org/2000/svg"><g><g><path d="m156.917 341.003-100.26-158.211-2.042-42.635 34.757 59.981 22.705 20.925 72.191 100.26-11.185 16.393z" fill="#e5936a"/><ellipse cx="284.247" cy="490.024" fill="#e3e0e4" rx="14.468" ry="14.469" transform="matrix(.091 -.996 .996 .091 -229.551 728.627)"/><g><path d="m206.187 367.773-12.18 8.76-9.93-13.79c-2.42-3.36-1.65-8.05 1.71-10.47s8.05-1.65 10.47 1.71z" fill="#e27c48"/></g><path d="m321.318 184.273-115.044-96.003-73.352-38.554 54.631 7.405 27.261 8.956 126.194 90.856v16.358z" fill="#e5936a"/><path d="m376.537 194.023-8.76 12.17-13.8-9.93c-3.36-2.42-4.13-7.11-1.71-10.47s7.11-4.13 10.47-1.71z" fill="#e27c48"/><ellipse cx="490.028" cy="285.249" fill="#e3e0e4" rx="14.468" ry="14.469" transform="matrix(.858 -.513 .513 .858 -76.937 291.932)"/><path d="m224.176 92.972c-2.386-1.718-3.968-4.322-4.433-7.225-1.066-6.656-2.705-13.237-4.925-19.664v-.01l-19.51-14.04-62.39-2.32 68.37 48.14 120.03 86.42 12.361-3.889-2.231-10.181z" fill="#e27c48"/><path d="m104.398 221.313c2.58 0 5.14-.08 7.68-.25l-13.83-19.21-43.63-61.7-2.58 55.19 104.88 145.66h8.506l4.694-9.5-76.113-105.707c-1.478-2.053.092-4.908 2.616-4.741 2.577.171 5.17.258 7.777.258z" fill="#e27c48"/><path d="m172.903 35.869c27.081 27.079 34.787 66.199 23.116 100.131-4.639 13.487-15.14 18.356-25.901 29.121-37.836 37.849-69.693 34.777-107.538-3.064s-69.036-79.4-31.2-117.249c2.365-2.366 9.311-13.507 11.848-15.577 38.056-31.049 94.196-28.838 129.675 6.638z" fill="#e3e0e4"/><path d="m196.028 136.003c-4.64 13.49-12.35 26.16-23.11 36.92-37.84 37.84-99.19 37.85-137.03.01-37.85-37.84-37.85-99.2-.02-137.05 2.53-2.54 5.17-4.9 7.91-7.09-11.68 33.94-3.98 73.06 23.11 100.14 35.309 35.31 91.099 37.66 129.14 7.07z" fill="#d4cfd5"/><path d="m35.306 350.87-8.164-16.326c-.097-.194-.254-.35-.447-.447l-16.326-8.162c-.737-.368-.737-1.42 0-1.789l16.324-8.165c.194-.097.35-.254.447-.447l8.161-16.328c.368-.737 1.42-.737 1.789 0l8.164 16.326c.097.194.254.35.447.447l16.326 8.162c.737.368.737 1.42 0 1.789l-16.324 8.165c-.194.097-.35.254-.447.447l-8.161 16.328c-.369.737-1.42.737-1.789 0z" fill="#91dafa"/><path d="m469.596 455.507v-2.883c0-.552.448-1 1-1h2.889c4.106-.001 7.686-3.164 7.81-7.268.128-4.247-3.278-7.732-7.498-7.731l-3.202.001c-.552 0-1-.448-1-1v-2.888c0-4.107-3.165-7.688-7.27-7.811-4.247-.127-7.731 3.279-7.731 7.497v3.204c0 .552-.448 1-1 1h-2.883c-4.229.001-7.921 3.462-7.817 7.689.049 1.996.878 3.798 2.194 5.114 1.357 1.357 3.233 2.197 5.305 2.197l3.202-.001c.552 0 1 .448 1 1v3.202c0 2.071.84 3.946 2.197 5.303 1.316 1.316 3.121 2.146 5.118 2.195 4.226.102 7.686-3.593 7.686-7.82z" fill="#f3d332"/><path d="m409.691 118.314-8.164-16.326c-.097-.194-.254-.35-.447-.447l-16.326-8.162c-.737-.368-.737-1.42 0-1.789l16.324-8.165c.194-.097.35-.254.447-.447l8.161-16.328c.368-.737 1.42-.737 1.789 0l8.164 16.326c.097.194.254.35.447.447l16.326 8.162c.737.368.737 1.42 0 1.789l-16.324 8.165c-.194.097-.35.254-.447.447l-8.161 16.328c-.368.737-1.42.737-1.789 0z" fill="#91dafa"/><path d="m202.142 345.887-27.272 17.999c-4.361 3.139-10.441 2.149-13.58-2.211l-2.76-7.873c-3.14-4.361-5.893-5.902-1.532-9.041l1.868-5.16 26.908-19.37c4.361-3.139 10.441-2.149 13.58 2.211l5.716 7.94-.717 1.925c3.14 4.36 2.15 10.44-2.211 13.58z" fill="#e3e0e4"/><path d="m205.357 347.433-30.37 21.86c-4.36 3.14-10.44 2.15-13.58-2.21l-8.21-11.41c-3.14-4.36-2.15-10.44 2.21-13.58l3.46-2.49 9.063 12.585c1.291 1.792 3.79 2.199 5.583.909l31.554-22.714 2.5 3.47c3.141 4.36 2.15 10.44-2.21 13.58z" fill="#d4cfd5"/><path d="m346.671 201.308 20.454-26.23c3.139-4.361 2.149-10.44-2.211-13.58l-1.294-2.579-7.947-5.721c-4.361-3.14-10.441-2.149-13.581 2.211l-19.367 26.901 2.323 6.554c-3.139 4.361-4.361 4.601 0 7.741l8.042 6.913c4.362 3.141 10.442 2.151 13.581-2.21z" fill="#e3e0e4"/><path d="m369.287 174.993-21.86 30.37c-3.14 4.36-9.22 5.35-13.58 2.21l-11.41-8.22c-4.36-3.13-5.35-9.21-2.21-13.57l2.5-3.47 12.584 9.063c1.793 1.291 4.292.884 5.583-.908l22.722-31.545 3.46 2.49c4.362 3.14 5.351 9.22 2.211 13.58z" fill="#d4cfd5"/><circle cx="394.781" cy="394.759" fill="#e3e0e4" r="14.468"/><path d="m272.773 262.319h15.005v35.859h-15.005z" fill="#e27c48" transform="matrix(.707 -.707 .707 .707 -116.076 280.267)"/><path d="m281.221 257.389-83.114-83.105v-.001l-42.808-42.802-31.162-22.377-6.429 6.429-13 13 77.543 63.486 75.147 89.194 13-13h-.001z" fill="#e5936a"/><path d="m187.297 186.123-40.492-40.492c-1.562-1.562-1.562-4.095 0-5.657l8.492-8.492-26.77-26.77-23.82 23.82 26.77 26.77 42.82 42.82 83.1 83.09 12.5-12.5z" fill="#e27c48"/><path d="m191.018 57.564-92.377 92.408-40.58 28.707c-7.311 7.314-19.167 7.315-26.48.003l-8.627-7.471c-7.313-7.312-6.29-10.776 1.021-18.09l30.896-38.996 96.334-96.367c7.311-7.314 19.167-7.315 26.48-.003l13.328 13.327c7.315 7.312 7.316 19.168.005 26.482z" fill="#efedef"/><path d="m98.674 150.005-39.83 39.84-1.15 1.15c-7.31 7.32-19.16 7.32-26.48.01l-13.32-13.33c-7.32-7.31-7.32-19.17-.01-26.48l1.15-1.15 35.87-35.89c3.47 5.2 7.51 10.14 12.1 14.73 9.36 9.36 20.15 16.4 31.67 21.12z" fill="#e3e0e4"/><path d="m291.295 267.307-24.511 22.665c-3.799 3.799-8.29 4.974-12.09 1.174l-9.939-9.938c-3.8-3.799-2.196-4.543 1.603-8.343l.66-5.441 23.437-23.436c3.799-3.799 9.959-3.799 13.759 0l6.919 6.919 1.693 3.321c3.801 3.798 2.269 9.279-1.531 13.079z" fill="#e3e0e4"/><path d="m294.157 267.683-26.46 26.46c-3.8 3.8-9.96 3.8-13.76 0l-9.94-9.94c-3.8-3.8-3.8-9.96 0-13.76l3.02-3.02 10.972 10.972c1.562 1.562 4.095 1.562 5.657 0l27.492-27.492 3.02 3.02c3.799 3.8 3.799 9.96-.001 13.76z" fill="#d4cfd5"/></g><g><path d="m385.497 374.877-41.254-41.254c-2.928-2.929-7.677-2.929-10.606 0s-2.929 7.678 0 10.606l41.248 41.249c-1.342 2.872-2.073 6.017-2.073 9.282 0 5.868 2.285 11.384 6.435 15.534 4.283 4.282 9.908 6.423 15.534 6.423s11.252-2.142 15.535-6.424c4.149-4.149 6.435-9.666 6.434-15.534 0-5.868-2.285-11.384-6.435-15.534-6.703-6.702-16.685-8.135-24.818-4.348zm14.212 24.808c-2.717 2.717-7.138 2.717-9.856 0-1.316-1.316-2.041-3.065-2.041-4.926s.725-3.611 2.041-4.927c1.359-1.359 3.143-2.038 4.928-2.038 1.784 0 3.569.68 4.927 2.038 1.316 1.316 2.041 3.065 2.041 4.927.001 1.861-.724 3.61-2.04 4.926z"/><path d="m511.711 281.718c-.943-5.792-4.085-10.869-8.847-14.297-4.763-3.429-10.572-4.799-16.367-3.854-3.22.524-6.206 1.751-8.824 3.535l-108.851-78.622 6.556-9.107c5.55-7.709 3.793-18.497-3.917-24.048l-11.406-8.211c-3.736-2.69-8.295-3.764-12.836-3.023-2.619.426-5.041 1.442-7.147 2.928l-54.933-39.551c-3.361-2.42-8.048-1.657-10.469 1.704-2.42 3.362-1.657 8.049 1.704 10.469l54.157 38.992c-2.719 3.777-8.072 11.213-10.921 15.17l-111.387-80.206c-.994-9.609-3.309-19.025-6.893-27.986l46.633 33.574c1.326.955 2.858 1.414 4.376 1.414 2.331 0 4.627-1.083 6.093-3.118 2.42-3.362 1.657-8.049-1.704-10.469l-53.123-38.247c1.382-8.108-1.042-16.743-7.287-22.988l-13.328-13.326c-8.352-8.606-23.461-10.408-34.168-2.521-18.243-8.56-39.009-11.729-59.066-8.908-22.569 3.177-43.037 13.398-59.194 29.559-8.958 8.964-16.126 19.315-21.304 30.767-1.707 3.774-.03 8.217 3.744 9.924 1.002.453 2.052.668 3.085.668 2.856 0 5.585-1.641 6.838-4.412 4.43-9.798 10.569-18.661 18.245-26.342 25.162-25.169 63.357-32.742 95.972-19.969l-115.929 115.969c-4.669-11.867-6.77-24.666-6.087-37.545.219-4.137-2.957-7.667-7.093-7.886-4.156-.229-7.667 2.956-7.886 7.093-.916 17.3 2.468 34.482 9.786 50.03-7.602 10.26-6.758 24.853 2.538 34.148l13.329 13.327c4.954 4.953 11.539 7.68 18.544 7.68 1.502 0 2.983-.133 4.435-.38l98.231 136.425c-1.484 2.105-2.499 4.525-2.925 7.142-.74 4.542.333 9.101 3.023 12.836l8.212 11.406c3.363 4.671 8.647 7.157 14.005 7.156 3.486 0 7.004-1.053 10.043-3.24l9.07-6.529 77.68 108.794c-1.795 2.625-3.028 5.62-3.554 8.852-.943 5.792.426 11.604 3.854 16.366 4.288 5.955 11.026 9.125 17.858 9.125 4.445 0 8.931-1.342 12.806-4.131 4.762-3.429 7.904-8.506 8.847-14.298s-.426-11.604-3.854-16.366c-5.532-7.684-15.14-10.704-23.768-8.289l-77.696-108.816 9.124-6.568c3.735-2.689 6.2-6.671 6.939-11.214.739-4.542-.334-9.101-3.023-12.835l-8.212-11.406c-4.395-6.106-12.072-8.459-18.907-6.426l-25.275-35.104c-2.42-3.361-7.107-4.125-10.469-1.704-3.361 2.42-4.125 7.107-1.704 10.469l24.709 34.317-15.172 10.922-93.024-129.197c8.967 3.587 18.39 5.907 28.006 6.901l32.814 45.573c1.466 2.036 3.762 3.118 6.093 3.118 1.518 0 3.05-.459 4.376-1.414 3.361-2.42 4.125-7.107 1.704-10.469l-26.32-36.554c16.615-1.249 32.608-6.421 46.71-15.083l76.402 76.402c-1.124 2.314-1.736 4.864-1.736 7.513 0 4.602 1.792 8.929 5.047 12.182l9.939 9.939c3.358 3.358 7.77 5.037 12.182 5.037s8.824-1.679 12.183-5.038l7.929-7.929 27.94 27.94c1.464 1.465 3.384 2.197 5.303 2.197s3.839-.732 5.303-2.197c2.929-2.929 2.929-7.678 0-10.606l-27.94-27.94 7.924-7.923c3.255-3.254 5.047-7.581 5.047-12.184 0-4.602-1.792-8.928-5.047-12.183l-9.939-9.938c-5.323-5.324-13.287-6.411-19.709-3.296l-76.405-76.405c8.661-14.104 13.831-30.1 15.078-46.716l103.144 74.27c-.738 2.465-.932 5.08-.506 7.694.739 4.542 3.204 8.524 6.938 11.213l11.407 8.212c3.04 2.188 6.557 3.241 10.043 3.241 5.358 0 10.644-2.486 14.006-7.156l6.542-9.087 108.855 78.625c-2.432 8.637.586 18.26 8.28 23.799 3.78 2.722 8.221 4.145 12.789 4.145 1.187 0 2.383-.096 3.578-.291 5.792-.943 10.869-4.085 14.297-8.847 3.431-4.762 4.8-10.575 3.857-16.367zm-227.473 201.34c2.167 0 4.305 1.006 5.665 2.895 1.087 1.51 1.521 3.354 1.223 5.191-.299 1.837-1.296 3.447-2.806 4.535-3.12 2.246-7.483 1.534-9.728-1.584-1.087-1.51-1.521-3.354-1.223-5.19.299-1.837 1.296-3.448 2.807-4.535 1.229-.886 2.651-1.312 4.062-1.312zm-239.896-294.026c-2.998 0-5.816-1.167-7.937-3.287l-13.328-13.327c-4.377-4.377-4.378-11.499-.002-15.877 1.545-1.546 131.941-131.986 133.436-133.481 3.546-3.489 10.855-4.912 15.873-.001l13.329 13.327c4.377 4.376 4.377 11.499.001 15.877-38.742 38.753-94.957 94.987-133.436 133.481-2.12 2.119-4.938 3.287-7.936 3.288zm214.181 56.283-13.214 13.213-122.312-122.312 13.212-13.216zm-65.256 81.509 8.212 11.407c.446.619.459 1.245.391 1.66s-.278 1.005-.898 1.451l-30.369 21.862c-.999.717-2.394.491-3.112-.506l-8.212-11.407c-.446-.619-.458-1.245-.391-1.66.068-.416.279-1.005.898-1.451 2.309-1.668 27.756-19.972 30.369-21.862.393-.283.848-.419 1.299-.419.694-.001 1.378.321 1.813.925zm-121.626-139.235 40.751-40.765 35.627 35.627c-23.251 12.953-51.597 14.834-76.378 5.138zm205.695 61.051c.571 0 1.142.217 1.576.652l9.938 9.937c.54.54.653 1.156.653 1.577s-.113 1.037-.652 1.576l-26.46 26.459c-.869.869-2.283.869-3.152 0l-9.939-9.939c-.54-.54-.653-1.155-.653-1.576s.113-1.036.653-1.576l26.46-26.459c.434-.434 1.005-.651 1.576-.651zm-94.892-100.617-35.63-35.63 40.753-40.767c9.703 24.784 7.827 53.137-5.123 76.397zm155.786 53.46-11.407-8.212c-.619-.445-.83-1.035-.897-1.45-.067-.416-.055-1.041.392-1.661 1.717-2.386 20.401-28.337 21.863-30.368.445-.619 1.035-.83 1.451-.897.11-.018.235-.03.372-.03.376 0 .834.094 1.29.422l11.406 8.211c.998.718 1.225 2.114.507 3.111-5.446 7.565-16.371 22.74-21.862 30.368-.722.997-2.118 1.225-3.115.506zm157.453 87.838c-1.087 1.51-2.698 2.507-4.535 2.806-1.838.301-3.681-.135-5.191-1.222-3.119-2.245-3.829-6.609-1.584-9.727 1.087-1.511 2.698-2.507 4.535-2.807.379-.062.758-.092 1.134-.092 1.449 0 2.858.452 4.057 1.315 1.51 1.087 2.507 2.698 2.806 4.535.3 1.837-.134 3.681-1.222 5.192z"/><path d="m97.033 424.127-4.202.001v-4.202c.001-4.143-3.358-7.5-7.5-7.5-4.143 0-7.5 3.358-7.5 7.5v4.205l-4.205.001c-4.142.001-7.499 3.359-7.498 7.501 0 2.071.839 3.945 2.197 5.302 1.357 1.357 3.233 2.197 5.305 2.197l4.203-.001v4.202c0 2.071.839 3.946 2.197 5.303 1.357 1.357 3.232 2.197 5.303 2.197 4.143 0 7.5-3.358 7.5-7.5v-4.204l4.204-.001c4.142-.001 7.499-3.359 7.498-7.501-.001-4.143-3.359-7.501-7.502-7.5z"/><path d="m71.315 325.034c0-2.84-1.605-5.437-4.146-6.708l-16.176-8.087-8.09-16.177c-1.271-2.541-3.868-4.146-6.709-4.146s-5.438 1.606-6.708 4.147l-8.086 16.18-16.175 8.091c-2.541 1.271-4.146 3.868-4.145 6.708 0 2.84 1.605 5.437 4.146 6.708l16.177 8.087 8.09 16.177c1.271 2.541 3.868 4.146 6.709 4.146s5.438-1.606 6.708-4.147l8.086-16.179 16.175-8.091c2.54-1.271 4.145-3.868 4.144-6.709zm-29.266 2.503c-1.451.726-2.628 1.903-3.353 3.354l-2.498 4.996-2.498-4.996c-.726-1.452-1.903-2.628-3.354-3.354l-4.998-2.499 4.997-2.5c1.452-.726 2.628-1.903 3.354-3.354l2.498-4.997 2.498 4.996c.726 1.451 1.903 2.628 3.354 3.354l4.998 2.499z"/><path d="m291.976 47.91 4.202-.001v4.202c0 2.071.84 3.946 2.197 5.303s3.233 2.197 5.304 2.197c4.142 0 7.5-3.359 7.5-7.501v-4.204l4.204-.001c4.142-.001 7.499-3.359 7.499-7.501-.001-4.141-3.359-7.499-7.501-7.499l-4.202.001v-4.203c-.001-4.143-3.359-7.5-7.501-7.5s-7.5 3.359-7.5 7.501v4.204l-4.204.001c-4.142.001-7.499 3.359-7.499 7.501 0 2.071.839 3.945 2.197 5.302s3.233 2.198 5.304 2.198z"/><path d="m473.809 436.597h-4.204l-.001-4.204c-.001-4.142-3.359-7.5-7.501-7.499-4.141.001-7.499 3.359-7.499 7.501l.001 4.202h-4.202c-4.143.001-7.5 3.359-7.5 7.501s3.359 7.5 7.501 7.5h4.204l.001 4.204c.001 4.142 3.359 7.5 7.501 7.498 2.071 0 3.945-.839 5.302-2.197s2.197-3.233 2.197-5.305l-.001-4.202h4.202c2.071 0 3.946-.84 5.303-2.197s2.197-3.233 2.197-5.304c-.001-4.141-3.36-7.498-7.501-7.498z"/><path d="m379.612 99.194 16.176 8.087 8.09 16.177c1.271 2.541 3.868 4.146 6.709 4.146s5.438-1.606 6.708-4.147l8.086-16.179 16.175-8.091c2.541-1.271 4.146-3.868 4.145-6.708 0-2.84-1.605-5.437-4.146-6.708l-16.177-8.087-8.09-16.177c-1.271-2.541-3.868-4.146-6.709-4.146s-5.438 1.606-6.708 4.147l-8.086 16.179-16.175 8.091c-2.541 1.271-4.146 3.868-4.145 6.708.001 2.841 1.606 5.437 4.147 6.708zm25.119-9.21c1.452-.726 2.628-1.903 3.354-3.354l2.498-4.996 2.498 4.996c.726 1.452 1.903 2.628 3.354 3.354l4.998 2.499-4.997 2.5c-1.452.726-2.628 1.903-3.353 3.354l-2.498 4.996-2.498-4.996c-.726-1.451-1.903-2.628-3.354-3.354l-4.998-2.499z"/><circle cx="44.817" cy="163.993" r="7.5"/><circle cx="68.647" cy="140.162" r="7.5"/><circle cx="92.477" cy="116.33" r="7.5"/><circle cx="116.308" cy="92.499" r="7.5"/><circle cx="140.138" cy="68.668" r="7.5"/><circle cx="163.968" cy="44.837" r="7.5"/></g></g></svg>