<svg id="Capa_1" enable-background="new 0 0 512.004 512.004" height="512" viewBox="0 0 512.004 512.004" width="512" xmlns="http://www.w3.org/2000/svg"><g><g><g><path d="m256.002 94.804c-4.142 0-7.5-3.357-7.5-7.5v-64.325c0-4.143 3.358-7.5 7.5-7.5s7.5 3.357 7.5 7.5v64.324c0 4.143-3.358 7.501-7.5 7.501z" fill="#9facba"/></g><path d="m91.179 68.542h27.55v83.126h-27.55z" fill="#9facba" transform="matrix(.707 -.707 .707 .707 -47.116 106.463)"/><path d="m393.276 68.542h27.55v83.126h-27.55z" fill="#9facba" transform="matrix(-.707 -.707 .707 -.707 617.023 475.789)"/><g><path d="m147.725 504.5c-1.131 0-2.276-.098-3.428-.301-10.664-1.88-17.785-12.05-15.904-22.714l15.72-89.151c1.88-10.665 12.054-17.782 22.714-15.904 10.664 1.88 17.785 12.05 15.904 22.714l-15.72 89.151c-1.678 9.512-9.951 16.205-19.286 16.205z" fill="#9facba"/></g><g><path d="m355.855 504.5c-9.336 0-17.609-6.693-19.286-16.205l-15.72-89.151c-1.88-10.664 5.24-20.833 15.904-22.714 10.664-1.88 20.834 5.24 22.714 15.904l15.72 89.151c1.88 10.664-5.24 20.833-15.904 22.714-1.152.203-2.298.301-3.428.301z" fill="#9facba"/></g><circle cx="256.002" cy="256.719" fill="#e53950" r="190.06"/><circle cx="256.002" cy="256.719" fill="#d5e3f4" r="145.86"/><g><path d="m209.556 328.817c-3.327 0-6.674-1.101-9.456-3.363-6.427-5.227-7.4-14.674-2.173-21.102l43.075-52.963v-90.988c0-8.284 6.716-15 15-15s15 6.716 15 15v96.318c0 3.447-1.188 6.79-3.363 9.465l-46.438 57.098c-2.964 3.645-7.287 5.535-11.645 5.535z" fill="#596c76"/></g><path d="m130.441 75.635-59.957 59.957c-2.74 2.74-7.183 2.74-9.924 0l-8.063-8.063c-19.297-19.297-19.297-50.584 0-69.881 19.297-19.297 50.584-19.297 69.881 0l8.063 8.063c2.74 2.741 2.74 7.184 0 9.924z" fill="#7a8c98"/><path d="m381.563 75.635 59.957 59.957c2.74 2.74 7.183 2.74 9.924 0l8.063-8.063c19.297-19.297 19.297-50.584 0-69.881-19.297-19.297-50.584-19.297-69.881 0l-8.063 8.063c-2.74 2.741-2.74 7.184 0 9.924z" fill="#7a8c98"/><path d="m278.361 38.458h-44.718c-8.549 0-15.479-6.93-15.479-15.479 0-8.549 6.93-15.479 15.479-15.479h44.718c8.549 0 15.479 6.93 15.479 15.479 0 8.549-6.93 15.479-15.479 15.479z" fill="#e53950"/><path d="m256.002 66.66c-7.477 0-14.848.446-22.1 1.286 94.553 10.952 167.96 91.283 167.96 188.773s-73.406 177.822-167.96 188.773c7.252.84 14.623 1.286 22.1 1.286 104.967 0 190.06-85.093 190.06-190.06 0-104.966-85.093-190.058-190.06-190.058z" fill="#ca2e43"/><path d="m256.002 110.86c-4.782 0-9.508.239-14.173.69 73.801 7.15 131.686 69.523 131.686 145.169s-57.885 138.019-131.686 145.169c4.665.452 9.392.69 14.173.69 80.427 0 145.86-65.432 145.86-145.86 0-80.426-65.432-145.858-145.86-145.858z" fill="#b3ceec"/></g><g><path d="m256.002 410.079c84.563 0 153.36-68.797 153.36-153.359 0-84.563-68.797-153.36-153.36-153.36s-153.36 68.797-153.36 153.36c0 84.562 68.797 153.359 153.36 153.359zm0-291.72c76.292 0 138.36 62.068 138.36 138.36s-62.068 138.359-138.36 138.359-138.36-62.067-138.36-138.359 62.068-138.36 138.36-138.36z"/><path d="m464.81 52.345c-22.19-22.188-58.296-22.189-80.488.001l-8.063 8.063c-5.659 5.659-5.66 14.869-.001 20.53 0 0 0 0 .001.001l14.934 14.934-8.979 8.979c-32.459-27.022-73.681-43.846-118.713-45.536v-13.359h14.859c12.671 0 22.979-10.309 22.979-22.979.001-12.67-10.307-22.979-22.978-22.979h-44.718c-12.671 0-22.979 10.309-22.979 22.979s10.308 22.979 22.979 22.979h14.859v13.359c-45.031 1.69-86.254 18.515-118.713 45.536l-8.979-8.979 14.934-14.934c0-.001 0-.001.001-.001 5.659-5.661 5.658-14.871-.001-20.529l-8.063-8.064c-22.19-22.189-58.297-22.189-80.487 0-22.19 22.19-22.19 58.298 0 80.488l8.063 8.062c2.742 2.743 6.388 4.253 10.266 4.253s7.524-1.511 10.265-4.252l14.935-14.935 9.456 9.455c-26.14 33.503-41.735 75.615-41.735 121.303 0 20.718 3.194 41.129 9.492 60.667 1.271 3.943 5.495 6.105 9.439 4.838 3.942-1.271 6.108-5.497 4.837-9.439-5.818-18.05-8.769-36.912-8.769-56.065 0-100.664 81.896-182.56 182.56-182.56s182.56 81.896 182.56 182.56-81.896 182.56-182.56 182.56c-68.066 0-129.097-37.589-160.589-95.655-1.974-3.642-6.525-4.992-10.168-3.018-3.641 1.975-4.992 6.527-3.017 10.168 12.949 23.876 30.369 44.369 50.899 60.671l-12.12 68.737c-2.595 14.72 7.269 28.807 21.988 31.402 14.777 2.607 28.797-7.219 31.403-21.987l8.685-49.253c22.831 9.064 47.508 13.935 72.92 13.935 22.768 0 44.643-3.884 65.012-11.003l8.168 46.322c2.606 14.775 16.634 24.594 31.403 21.987 14.751-2.601 24.592-16.599 21.988-31.401l-.871-4.938c-.719-4.08-4.609-6.81-8.688-6.084-4.079.719-6.803 4.608-6.084 8.688l.87 4.936c1.318 7.486-4.426 14.216-11.946 14.216-5.873 0-10.877-4.209-11.9-10.008l-8.688-49.271c7.742-3.396 15.276-7.298 22.531-11.667l3.055 17.328c.719 4.08 4.607 6.81 8.688 6.083 4.08-.719 6.803-4.609 6.084-8.688l-4.201-23.822c49.716-35.913 82.137-94.355 82.137-160.235 0-45.689-15.596-87.8-41.735-121.303l9.456-9.455 14.934 14.934c2.742 2.742 6.388 4.253 10.266 4.253s7.523-1.51 10.265-4.252l8.063-8.063c22.19-22.195 22.19-58.303-.001-80.493zm-239.146-29.366c0-4.399 3.58-7.979 7.979-7.979h44.718c4.399 0 7.979 3.58 7.979 7.979s-3.58 7.979-7.979 7.979h-44.718c-4.399 0-7.979-3.579-7.979-7.979zm-56.714 411.127-9.325 52.886c-1.163 6.597-7.413 10.988-14.025 9.821-6.575-1.16-10.98-7.452-9.821-14.025l10.848-61.522c6.74 4.48 14.379 8.932 22.323 12.84zm-103.428-304.159-7.722-7.722c-16.342-16.342-16.342-42.932 0-59.273 16.342-16.342 42.93-16.343 59.274-.001l7.722 7.723c-10.942 10.942 14.279-14.278-59.274 59.273zm44.681-23.467 8.35 8.35c-3.004 2.911-5.92 5.921-8.734 9.014l-8.49-8.489.572-.572zm300.472 8.874-8.49 8.489c-2.814-3.093-5.73-6.103-8.734-9.014l8.35-8.35 8.302 8.302zm43.529 6.872-7.722 7.722c-3.408-3.408-55.958-55.957-59.274-59.273l7.722-7.722c16.342-16.342 42.933-16.342 59.274 0s16.342 42.931 0 59.273z"/><g><path d="m195.368 331.272c-9.647-7.846-11.107-22.003-3.259-31.651l41.394-50.896v-88.323c0-12.406 10.093-22.5 22.5-22.5s22.5 10.094 22.5 22.5v96.318c0 5.155-1.792 10.197-5.044 14.197l-46.438 57.098c-7.818 9.611-22.016 11.096-31.653 3.257zm60.634-178.371c-4.136 0-7.5 3.364-7.5 7.5v90.988c0 1.724-.594 3.395-1.682 4.732l-43.075 52.963c-2.615 3.215-2.13 7.935 1.086 10.55v.001c3.208 2.609 7.941 2.122 10.551-1.086l46.438-57.098c1.084-1.333 1.681-3.014 1.681-4.732v-96.318c.001-4.135-3.364-7.5-7.499-7.5z"/></g></g></g></svg>