<svg id="Capa_1" enable-background="new 0 0 512 512" height="512" viewBox="0 0 512 512" width="512" xmlns="http://www.w3.org/2000/svg"><g><g><g><circle cx="255.968" cy="27.121" fill="#7a8c98" r="19.621"/></g><g><path d="m486.5 504.5h-461c-9.941 0-18-8.059-18-18v-344.496c0-9.941 8.059-18 18-18h461c9.941 0 18 8.059 18 18v344.496c0 9.941-8.059 18-18 18z" fill="#aa6a51"/></g><g><path d="m44.5 459.201v-289.898c0-4.971 4.029-9 9-9h405c4.971 0 9 4.029 9 9v289.898c0 4.971-4.029 9-9 9h-405c-4.971 0-9-4.029-9-9z" fill="#98bce5"/></g><g><path d="m255.968 468.201h-184.696c0-36.317 29.441-65.758 65.758-65.758h53.179c36.318 0 65.759 29.441 65.759 65.758z" fill="#0268b4"/></g><g><path d="m440.728 468.201h-170.856c0-33.596 27.235-60.831 60.831-60.831h49.194c33.596 0 60.831 27.235 60.831 60.831z" fill="#0268b4"/></g><g><path d="m486.5 124.004h-34.072c8.324 0 15.072 6.748 15.072 15.072v350.352c0 8.324-6.748 15.072-15.072 15.072h34.072c9.941 0 18-8.059 18-18v-344.496c0-9.941-8.059-18-18-18z" fill="#935b44"/></g><g><path d="m163.62 432.196c-16.046 0-29.053-13.008-29.053-29.053v-47.73h58.107v47.73c-.001 16.046-13.008 29.053-29.054 29.053z" fill="#ffcebf"/></g><g><path d="m434.042 259.554c0-32.707-26.514-59.221-59.221-59.221h-39.042c-32.653 0-59.22 26.451-59.22 59.242h-.001l-8.258 104.653c0 23.827 21.5 43.143 48.021 43.143h12.103v-20.038c8.037 4.207 17.174 6.599 26.876 6.599 9.702 0 18.839-2.392 26.876-6.599v20.038h12.103c26.521 0 48.021-19.316 48.021-43.143-9.336-106.032-8.258-90.164-8.258-104.674z" fill="#465a61"/></g><g><path d="m355.3 434.894c-14.843 0-26.876-12.033-26.876-26.876v-44.154h53.752v44.154c0 14.844-12.032 26.876-26.876 26.876z" fill="#ffcebf"/></g><g><path d="m89.969 247.333v62.032h147.322v-27.865l-49.832-52.858z" fill="#465a61"/></g><g><path d="m153.302 283h83.989v-28.355c0-37.084-30.062-67.146-67.146-67.146h-17.293c-34.74 0-62.903 28.162-62.903 62.903 0 5.773 4.68 10.452 10.452 10.452h30.755c6.115 0 11.073 4.958 11.073 11.073 0 6.115 4.958 11.073 11.073 11.073z" fill="#465a61"/></g><g><path d="m328.424 398.671c8.037 4.207 17.174 6.599 26.876 6.599 9.702 0 18.839-2.392 26.876-6.599v-34.807h-53.752z" fill="#ffb09e"/></g><g><path d="m413.372 297.886c-.136 0-.27.008-.405.01-.506-4.354-1.501-8.557-2.914-12.563h-107.715c-.595 0-1.182-.027-1.767-.067-1.426 4.026-2.429 8.252-2.937 12.63-.135-.002-.269-.01-.405-.01-12.358 0-22.377 10.018-22.377 22.377s10.018 22.377 22.377 22.377c.136 0 .27-.008.405-.01 3.355 28.881 27.885 51.303 57.666 51.303 29.781 0 54.311-22.422 57.666-51.303.135.002.269.01.405.01 12.358 0 22.377-10.018 22.377-22.377s-10.018-22.377-22.376-22.377z" fill="#ffcebf"/></g><g><path d="m134.567 392.121c8.688 4.548 18.565 7.134 29.053 7.134 10.487 0 20.365-2.582 29.053-7.13v-36.712h-58.107v36.708z" fill="#ffb09e"/></g><g><path d="m227.755 283.061c-.647 0-1.285.033-1.919.083-.006-.048-.016-.096-.022-.144h-72.47c-6.054 0-11.21-4.843-11.115-10.896.097-6.196-4.897-11.25-11.072-11.25h-17.427c-3.129 0-5.987 1.817-7.281 4.666-2.625 5.779-4.405 12.023-5.166 18.581-.146-.003-.291-.011-.438-.011-13.359 0-24.189 10.83-24.189 24.189s10.83 24.189 24.189 24.189c.147 0 .292-.008.438-.011 3.627 31.22 30.144 55.459 62.338 55.459 32.748 0 59.625-25.079 62.506-57.076.539.036 1.08.061 1.628.061 13.211 0 23.92-10.709 23.92-23.92s-10.71-23.92-23.92-23.92z" fill="#ffcebf"/></g><g><path d="m458.5 160.303h-25.512c4.971 0 9 4.029 9 9v289.898c0 4.971-4.029 9-9 9h25.512c4.971 0 9-4.029 9-9v-289.898c0-4.971-4.029-9-9-9z" fill="#7bacdf"/></g></g><g><g><path d="m486.5 116.504h-56.846l-147.302-83.124c.477-2.011.737-4.104.737-6.259 0-14.954-12.167-27.121-27.121-27.121s-27.121 12.167-27.121 27.121c0 2.166.263 4.271.745 6.291l-147.246 83.092h-56.846c-14.061 0-25.5 11.439-25.5 25.5v344.496c0 14.061 11.439 25.5 25.5 25.5h350c4.142 0 7.5-3.358 7.5-7.5s-3.358-7.5-7.5-7.5h-350c-5.79 0-10.5-4.71-10.5-10.5v-344.496c0-5.79 4.71-10.5 10.5-10.5h58.933.017 165.983c4.142 0 7.5-3.358 7.5-7.5s-3.358-7.5-7.5-7.5h-137.565l124.115-70.039c4.896 4.806 11.599 7.778 18.985 7.778 7.398 0 14.111-2.981 19.009-7.801l124.155 70.062h-113.699c-4.142 0-7.5 3.358-7.5 7.5s3.358 7.5 7.5 7.5h142.22c.008 0 .016.001.023.001.008 0 .015-.001.022-.001h58.802c5.79 0 10.5 4.71 10.5 10.5v344.496c0 5.79-4.71 10.5-10.5 10.5h-76c-4.142 0-7.5 3.358-7.5 7.5s3.358 7.5 7.5 7.5h76c14.061 0 25.5-11.439 25.5-25.5v-344.496c0-14.061-11.439-25.5-25.5-25.5zm-230.532-77.262c-6.684 0-12.121-5.438-12.121-12.121s5.437-12.121 12.121-12.121 12.121 5.438 12.121 12.121-5.438 12.121-12.121 12.121z"/><path d="m44.5 245.701c-4.142 0-7.5 3.358-7.5 7.5v206c0 9.098 7.402 16.5 16.5 16.5h17.772 184.696 13.905 188.627c9.098 0 16.5-7.402 16.5-16.5v-289.898c0-9.098-7.402-16.5-16.5-16.5h-405c-9.098 0-16.5 7.402-16.5 16.5v48.898c0 4.142 3.358 7.5 7.5 7.5s7.5-3.358 7.5-7.5v-48.898c0-.827.673-1.5 1.5-1.5h405c.827 0 1.5.673 1.5 1.5v289.898c0 .827-.673 1.5-1.5 1.5h-10.687c-2.279-21.115-14.063-39.312-31.11-50.161 19.473-7.875 33.097-25.665 33.097-46.312 0-.22-.01-.439-.029-.658-9.303-105.654-8.23-89.946-8.23-104.016 0-36.79-29.931-66.72-66.72-66.72h-39.042c-36.688 0-66.555 29.775-66.72 66.438l-8.235 104.367c-.016.196-.023.393-.023.59 0 20.647 13.624 38.437 33.097 46.312-16.721 10.642-28.371 28.356-30.962 48.957-1.871-15.827-8.807-30.562-20.031-42.178-11.531-11.934-26.498-19.482-42.731-21.684v-10.479c3.887-2.372 7.567-5.124 10.975-8.257 11.285-10.373 18.797-23.996 21.556-38.887 14.982-2.38 26.471-15.389 26.471-31.031 0-8.739-3.685-17.155-10.109-23.089-1.344-1.242-2.777-2.344-4.275-3.318v-25.939c0-.001 0-.002 0-.003-.008-41.153-33.491-74.633-74.646-74.633h-17.293c-37.295 0-67.973 28.909-70.263 65.994-.079.436-.12.884-.12 1.34v35.144c-8.053 5.752-13.314 15.173-13.314 25.802 0 15.409 11.056 28.285 25.65 31.112 4.005 19.51 16.001 35.86 32.261 45.77v10.473c-16.233 2.202-31.2 9.751-42.731 21.684-11.51 11.911-18.522 27.098-20.176 43.382h-10.66c-.827 0-1.5-.673-1.5-1.5v-206c0-4.142-3.358-7.5-7.5-7.5zm390.299 118.839c-.192 19.51-18.295 35.331-40.52 35.331h-4.603v-8.166c14.935-9.201 25.968-24.247 29.756-42.182 5.072-1.049 9.677-3.389 13.458-6.658zm-98.875 33.973c12.257 3.786 25.807 3.999 38.752 0 0 .282 0 9.17.001 8.886-.002.344-.001 3.11-.001 3.454 0 10.684-8.692 19.376-19.376 19.376s-19.376-8.692-19.376-19.376c0-2.92 0-9.508 0-12.34zm19.376-12.081c-25.758 0-47.272-19.32-50.217-44.668-.44-3.788-3.648-6.635-7.448-6.635-.045 0-.092 0-.137.001l-.27.009c-8.203 0-14.877-6.674-14.877-14.877s6.672-14.876 14.857-14.876h.002l.261.008c3.886.11 7.166-2.789 7.612-6.632.231-1.989.584-3.971 1.056-5.929h98.322c.472 1.958.825 3.939 1.055 5.928.446 3.844 3.756 6.74 7.612 6.633l.291-.009c8.182.025 14.83 6.689 14.83 14.877 0 8.203-6.672 14.876-14.857 14.876 0 0-.001 0-.002 0l-.288-.008c-3.89-.085-7.14 2.8-7.584 6.633-2.977 25.618-24.754 44.669-50.218 44.669zm-71.264-126.266c.016-.196.023-.393.023-.59 0-28.531 23.201-51.742 51.72-51.742h39.042c28.519 0 51.72 23.202 51.72 51.72 0 15.092-.487 5.678 2.098 35.041-2.809-1.677-5.911-2.91-9.214-3.593-.588-2.762-1.358-5.492-2.301-8.165-1.059-2.999-3.893-5.003-7.072-5.003h-107.714c-.424 0-.844-.022-1.261-.05-3.359-.237-6.453 1.808-7.576 4.979-.955 2.696-1.733 5.452-2.327 8.24-3.57.738-6.906 2.119-9.889 4.009zm-8.234 104.342 1.721-21.811c3.815 3.355 8.488 5.758 13.644 6.825 3.789 17.935 14.822 32.981 29.756 42.182v8.166h-4.603c-22.236 0-40.346-15.837-40.518-35.362zm45.464 51.201c2.366 16.665 16.727 29.52 34.035 29.52s31.668-12.855 34.034-29.52c22.702 4.002 40.199 22.154 43.376 44.992h-154.821c3.177-22.838 20.674-40.99 43.376-44.992zm-223.797-167.454c.023-.188.04-.379.049-.572 1.425-29.542 25.73-52.684 55.333-52.684h17.293c32.889 0 59.646 26.757 59.646 59.646v20.981c-6.132-.372-76.31.224-77.876-.408-4.543-1.937.54-8.192-7.399-16.256-1.043-1.06-2.219-1.967-3.473-2.744-2.933-1.854-6.325-2.864-9.886-2.864h-.041-16.849-.523c-9.183 0-13.38 6.342-16.274 14.388zm11.263 83.337c-.44-3.789-3.649-6.635-7.447-6.635-.051 0-.102 0-.152.001l-.288.01c-9.203 0-16.689-7.487-16.689-16.689 0-7.268 4.706-13.527 11.31-15.784 3.225-1.106 5.389-.835 6.426-.923 3.277-.265 6.008-2.646 6.713-5.855.003-.016.009-.031.012-.046.213-1 2.58-17.317 5.65-17.317 17.634 0 17.979-.413 19.437 1.066.392.398 1.046 1.261 1.026 2.566-.164 10.439 8.608 18.514 18.614 18.514 79.182 0 76.42-.26 79.991 1.036 2.029.731 3.913 1.86 5.553 3.375 3.41 3.149 5.288 7.436 5.288 12.07 0 9.054-7.366 16.42-16.42 16.42-.379 0-.754-.019-1.126-.044-4.063-.27-7.606 2.751-7.972 6.811-2.621 29.104-26.786 50.249-55.037 50.249-28.04-.001-51.655-20.99-54.889-48.825zm76.441 60.434v13.951c0 11.885-9.669 21.554-21.553 21.554-11.885 0-21.554-9.669-21.554-21.554 0-5.04 0-8.912 0-13.94 13.953 4.492 29.021 4.524 43.107-.011zm-57.797 18.721c2.333 17.83 17.641 31.784 36.244 31.784 18.581 0 33.912-13.968 36.243-31.784 25.347 4.175 44.894 24.461 48.132 49.954-7.365 0-161.335 0-168.75 0 3.237-25.493 22.785-45.779 48.131-49.954zm2.614-85.494c-4.142 0-7.5-3.358-7.5-7.5v-8.919c0-4.142 3.358-7.5 7.5-7.5s7.5 3.358 7.5 7.5v8.919c0 4.142-3.358 7.5-7.5 7.5zm68.349 0c-4.142 0-7.5-3.358-7.5-7.5v-8.919c0-4.142 3.358-7.5 7.5-7.5s7.5 3.358 7.5 7.5v8.919c0 4.142-3.358 7.5-7.5 7.5zm125.348 5.669c-4.142 0-7.5-3.358-7.5-7.5v-8.92c0-4.142 3.358-7.5 7.5-7.5s7.5 3.358 7.5 7.5v8.92c0 4.142-3.358 7.5-7.5 7.5zm63.227 0c-4.142 0-7.5-3.358-7.5-7.5v-8.92c0-4.142 3.358-7.5 7.5-7.5s7.5 3.358 7.5 7.5v8.92c0 4.142-3.358 7.5-7.5 7.5z"/></g></g></g></svg>