<svg id="Capa_1" enable-background="new 0 0 512 512" height="512" viewBox="0 0 512 512" width="512" xmlns="http://www.w3.org/2000/svg"><g><g><path d="m455.88 504.5h-399.76c-17.901 0-32.413-14.512-32.413-32.413v-407.324h464.587v407.324c-.001 17.901-14.512 32.413-32.414 32.413z" fill="#e5eef9"/><path d="m488.293 112.302h-464.586v-72.389c0-17.901 14.511-32.413 32.413-32.413h399.76c17.901 0 32.413 14.512 32.413 32.413z" fill="#9facba"/><circle cx="256" cy="309.819" fill="#7a8c98" r="150.883"/><circle cx="256" cy="309.819" fill="#b3ceec" r="107.773"/><circle cx="97.13" cy="59.991" fill="#c5d3dd" r="24.31"/><circle cx="182.885" cy="59.991" fill="#c5d3dd" r="24.31"/><path d="m448.608 64.763v407.324c0 17.901-14.512 32.413-32.413 32.413h39.685c17.901 0 32.413-14.512 32.413-32.413v-407.324z" fill="#d5e3f4"/><path d="m455.88 7.5h-39.685c17.901 0 32.413 14.512 32.413 32.413v72.389h39.685v-72.389c0-17.901-14.511-32.413-32.413-32.413z" fill="#8d9ca8"/><path d="m256 202.046c-6.778 0-13.408.636-19.843 1.838 49.98 9.341 87.931 53.286 87.931 105.935s-37.951 96.595-87.931 105.935c6.434 1.203 13.065 1.838 19.843 1.838 59.426 0 107.773-48.347 107.773-107.773s-48.347-107.773-107.773-107.773z" fill="#98bce5"/><path d="m283.527 284.388v53.698c0 9.398 7.619 17.017 17.017 17.017h53.24c6.405-13.776 9.99-29.118 9.99-45.284 0-15.064-3.112-29.414-8.718-42.448h-54.511c-9.399 0-17.018 7.619-17.018 17.017z" fill="#98bce5"/><g fill="#596c76"><path d="m311.874 284.388v53.698c0 9.398 7.619 17.017 17.017 17.017h71.074c4.492-14.295 6.918-29.506 6.918-45.284 0-14.74-2.123-28.982-6.063-42.448h-71.929c-9.399 0-17.017 7.619-17.017 17.017z"/><path d="m431.179 84.301h-167.179c-4.418 0-8-3.582-8-8v-32.62c0-4.418 3.582-8 8-8h167.179c4.418 0 8 3.582 8 8v32.62c0 4.418-3.581 8-8 8z"/></g></g><g><path d="m455.881 0h-352.673c-4.143 0-7.5 3.357-7.5 7.5s3.357 7.5 7.5 7.5h352.673c13.737 0 24.913 11.176 24.913 24.913v64.889h-449.588v-64.889c0-13.737 11.176-24.913 24.913-24.913h12.089c4.143 0 7.5-3.357 7.5-7.5s-3.357-7.5-7.5-7.5h-12.089c-22.008 0-39.913 17.905-39.913 39.913 0 17.451.001 411.756.001 432.174 0 22.008 17.904 39.913 39.912 39.913h399.762c22.008 0 39.912-17.905 39.912-39.913v-90.37c0-4.143-3.357-7.5-7.5-7.5s-7.5 3.357-7.5 7.5v90.37c0 13.737-11.176 24.913-24.912 24.913h-399.762c-13.736 0-24.912-11.176-24.912-24.913v-352.284h449.586v226.914c0 4.143 3.357 7.5 7.5 7.5s7.5-3.357 7.5-7.5c0-4.966.001-301.755.001-306.804 0-22.008-17.905-39.913-39.913-39.913z"/><path d="m413.507 293.156c-8.298-79.217-75.536-141.719-157.507-141.719-87.333 0-158.383 71.05-158.383 158.383s71.05 158.382 158.383 158.382c70.652 0 130.639-46.503 150.98-110.507.043-.117.102-.225.14-.345 6.605-21.022 8.612-43.004 6.387-64.194zm-157.507 160.046c-79.062 0-143.383-64.321-143.383-143.383s64.321-143.382 143.383-143.382c61.503 0 114.079 38.927 134.402 93.435h-30.536c-19.198-39.844-59.428-65.325-103.866-65.325-63.562 0-115.273 51.712-115.273 115.273s51.711 115.273 115.273 115.273c43.043 0 82.729-24.376 102.444-62.49h30.871c-21.066 53.018-72.883 90.599-133.315 90.599zm72.891-90.598h12.323c-18.161 29.188-50.433 47.489-85.214 47.489-55.291 0-100.273-44.982-100.273-100.273s44.982-100.274 100.273-100.274c36.175 0 69.156 19.418 86.93 50.325h-14.039c-13.52 0-24.518 10.999-24.518 24.518v53.697c0 13.518 10.998 24.518 24.518 24.518zm65.43-15.001h-65.43c-5.247 0-9.517-4.27-9.517-9.517v-53.697c0-5.248 4.27-9.518 9.517-9.518h66.177c5.939 23.606 5.783 48.838-.747 72.732z"/><path d="m431.18 91.801c8.547 0 15.5-6.953 15.5-15.5v-32.619c0-8.547-6.953-15.5-15.5-15.5h-167.18c-8.547 0-15.5 6.953-15.5 15.5v32.619c0 8.547 6.953 15.5 15.5 15.5zm-167.68-15.5v-32.619c0-.275.225-.5.5-.5h167.18c.275 0 .5.225.5.5v32.619c0 .275-.225.5-.5.5h-167.18c-.275 0-.5-.225-.5-.5z"/><path d="m97.13 91.801c17.54 0 31.811-14.27 31.811-31.81s-14.271-31.81-31.811-31.81-31.81 14.27-31.81 31.81 14.27 31.81 31.81 31.81zm0-48.619c9.27 0 16.811 7.541 16.811 16.81s-7.541 16.81-16.811 16.81c-9.269 0-16.81-7.541-16.81-16.81s7.541-16.81 16.81-16.81z"/><path d="m214.694 59.991c0-17.54-14.27-31.81-31.81-31.81s-31.81 14.27-31.81 31.81 14.27 31.81 31.81 31.81 31.81-14.27 31.81-31.81zm-48.619 0c0-9.269 7.541-16.81 16.81-16.81s16.81 7.541 16.81 16.81-7.541 16.81-16.81 16.81-16.81-7.541-16.81-16.81z"/></g></g></svg>