<?xml version="1.0"?>
<svg xmlns="http://www.w3.org/2000/svg" id="Filled" viewBox="0 0 512 512" width="512" height="512"><path d="M280,400c0,16,8,80,48,80s24-16,56-16,16,16,56,16,48-64,48-80,0-32-8-80-32-72-32-152c0-64-24-96-24-96H344s-24,32-24,96c0,80-24,104-32,152S280,384,280,400Z" style="fill:#3397e8"/><path d="M232,400c0,16-8,80-48,80s-24-16-56-16-16,16-56,16-48-64-48-80,0-32,8-80,32-72,32-152c0-64,24-96,24-96h80s24,32,24,96c0,80,24,104,32,152S232,384,232,400Z" style="fill:#3397e8"/><path d="M194.65,210.6c-9.71,5.38-25.65,11.12-50.75,12.87-4.94.34-10.23.53-15.9.53s-10.96-.19-15.9-.53c-25.1-1.75-41.04-7.49-50.75-12.87A319.625,319.625,0,0,0,64,168c0-64,24-96,24-96h80s24,32,24,96A319.625,319.625,0,0,0,194.65,210.6Z" style="fill:#6a7073"/><circle cx="128" cy="72" r="40" style="fill:#596063"/><path d="M450.65,210.6c-9.71,5.38-25.65,11.12-50.75,12.87-4.94.34-10.23.53-15.9.53s-10.96-.19-15.9-.53c-25.1-1.75-41.04-7.49-50.75-12.87A319.625,319.625,0,0,0,320,168c0-64,24-96,24-96h80s24,32,24,96A319.625,319.625,0,0,0,450.65,210.6Z" style="fill:#6a7073"/><circle cx="384" cy="72" r="40" style="fill:#596063"/><path d="M72,488c22.182,0,29.543-4.528,36.86-10.449C112.844,474.329,115.723,472,128,472s15.156,2.329,19.14,5.551C154.457,483.472,161.818,488,184,488c14.256,0,33.888-6.784,46.456-39.1A151.758,151.758,0,0,0,240,400c0-16.058,0-32.662-8.109-81.315-2.983-17.9-7.987-32.243-13.285-47.426C209.459,245.042,200,217.933,200,168c0-57.246-18.516-90.025-24.071-98.57a48,48,0,0,0-95.858,0C74.516,77.975,56,110.754,56,168c0,49.933-9.459,77.042-18.606,103.259-5.3,15.183-10.3,29.524-13.285,47.426C16,367.338,16,383.942,16,400a151.758,151.758,0,0,0,9.544,48.9C38.112,481.216,57.744,488,72,488ZM128,40A32,32,0,1,1,96,72,32.036,32.036,0,0,1,128,40ZM85.41,94.1a47.964,47.964,0,0,0,85.219-.075C176.85,108.942,184,133.569,184,168a334.374,334.374,0,0,0,2.04,37.971c-8.674,3.934-22.319,8.1-42.689,9.518a232.018,232.018,0,0,1-30.694,0c-20.377-1.421-34.022-5.585-42.7-9.519A334.374,334.374,0,0,0,72,168C72,133.79,79.179,109.1,85.41,94.1ZM39.891,321.315c2.759-16.552,7.544-30.266,12.609-44.785,5.406-15.494,11.238-32.213,15.1-54.177,10.015,3.987,21.743,6.76,35.065,8.28L72.129,398.569a8,8,0,1,0,15.742,2.862l30.842-169.608c3.052.114,6.153.177,9.287.177s6.234-.063,9.287-.177l30.842,169.608a8,8,0,1,0,15.742-2.862L153.334,230.633c13.32-1.52,25.049-4.292,35.065-8.28,3.863,21.964,9.695,38.683,15.1,54.177,5.065,14.519,9.85,28.233,12.609,44.785C224,368.662,224,384.593,224,400a136.284,136.284,0,0,1-8.456,43.1C208.086,462.277,197.474,472,184,472c-18.284,0-22.419-3.346-26.8-6.888C150.821,459.949,144.618,456,128,456s-22.821,3.949-29.2,9.112C94.419,468.654,90.284,472,72,472c-13.474,0-24.086-9.723-31.544-28.9A136.284,136.284,0,0,1,32,400C32,384.593,32,368.662,39.891,321.315Z"/><path d="M474.606,271.259C465.459,245.042,456,217.933,456,168c0-57.246-18.516-90.025-24.071-98.57a48,48,0,0,0-95.858,0C330.516,77.975,312,110.754,312,168c0,49.933-9.459,77.042-18.606,103.259-5.3,15.183-10.3,29.524-13.285,47.426C272,367.338,272,383.942,272,400a151.758,151.758,0,0,0,9.544,48.9C294.112,481.216,313.744,488,328,488c22.182,0,29.543-4.528,36.86-10.449C368.844,474.329,371.723,472,384,472s15.156,2.329,19.14,5.551C410.457,483.472,417.818,488,440,488c14.256,0,33.888-6.784,46.456-39.1A151.758,151.758,0,0,0,496,400c0-16.058,0-32.662-8.109-81.315C484.908,300.783,479.9,286.442,474.606,271.259ZM384,40a32,32,0,1,1-32,32A32.036,32.036,0,0,1,384,40ZM341.41,94.1a47.965,47.965,0,0,0,85.219-.077C432.85,108.942,440,133.569,440,168a334.374,334.374,0,0,0,2.04,37.971c-8.674,3.934-22.319,8.1-42.689,9.518a232.018,232.018,0,0,1-30.694,0c-20.377-1.421-34.022-5.585-42.7-9.519A334.374,334.374,0,0,0,328,168C328,133.795,335.177,109.1,341.41,94.1Zm130.134,349C464.086,462.277,453.474,472,440,472c-18.284,0-22.419-3.346-26.8-6.888C406.821,459.949,400.618,456,384,456s-22.821,3.949-29.2,9.112C350.419,468.654,346.284,472,328,472c-13.474,0-24.086-9.723-31.544-28.9A136.284,136.284,0,0,1,288,400c0-15.407,0-31.338,7.891-78.685,2.759-16.552,7.544-30.266,12.609-44.785,5.406-15.494,11.238-32.213,15.1-54.177,10.015,3.987,21.743,6.76,35.065,8.28L328.129,398.569a8,8,0,1,0,15.742,2.862l30.842-169.608c3.052.114,6.153.177,9.287.177s6.234-.063,9.287-.177l30.842,169.608a8,8,0,1,0,15.742-2.862L409.334,230.633c13.32-1.52,25.049-4.292,35.065-8.28,3.863,21.964,9.695,38.683,15.1,54.177,5.065,14.519,9.85,28.233,12.609,44.785C480,368.662,480,384.593,480,400A136.284,136.284,0,0,1,471.544,443.1Z"/></svg>
