<svg id="Filled" height="512" viewBox="0 0 512 512" width="512" xmlns="http://www.w3.org/2000/svg"><path d="m320 24s8 40 24 128h40s16-104-64-128z" fill="#a0ab65"/><path d="m336 152s-24-56-64-96c0 0 96-8 96 96z" fill="#b1bd70"/><path d="m344 152s-32-104 88-104c0 0-56 40-56 104z" fill="#8f9e46"/><path d="m328 152s-8-24-40-48c0 0 72-16 72 48z" fill="#a0ab65"/><path d="m344 152v16h40v-16c0-24 32-56 32-56-72 0-72 56-72 56z" fill="#b1bd70"/><path d="m472 248v144a95.971 95.971 0 0 1 -96 96h-48a95.926 95.926 0 0 1 -96-96v-144a95.971 95.971 0 0 1 96-96h48a95.926 95.926 0 0 1 96 96z" fill="#ffd33a"/><g fill="#ffb632"><path d="m352 152-40 56 40 56 40-56z"/><path d="m312 208-40 56-34.45-48.23a96.238 96.238 0 0 1 43.29-51.4z"/><path d="m466.45 215.77-34.45 48.23-40-56 31.16-43.63a96.238 96.238 0 0 1 43.29 51.4z"/><path d="m352 264-40 56 40 56 40-56z"/><path d="m272 264-40 56 40 56 40-56z"/><path d="m432 264-40 56 40 56 40-56z"/><path d="m352 376-40 56 40 56 40-56z"/><path d="m312 432-31.16 43.63a96.238 96.238 0 0 1 -43.29-51.4l34.45-48.23z"/><path d="m466.45 424.23a96.238 96.238 0 0 1 -43.29 51.4l-31.16-43.63 40-56z"/></g><path d="m344 320h-304s-16 168 152 168 152-168 152-168z" fill="#b1bd70"/><path d="m72 320s-16 136 120 136 120-136 120-136z" fill="#eb423f"/><path d="m192 496c30.814 0 57.565-5.48 80.021-16.347q2.406 1.539 4.88 2.94a103.963 103.963 0 0 0 51.099 13.407h48a103.926 103.926 0 0 0 104-104v-144a103.947 103.947 0 0 0 -87.08-102.613c4.179-16.275 21.511-36.489 28.737-43.73a8 8 0 0 0 -5.657-13.657c-3.556 0-7.309.138-11.172.472a149.774 149.774 0 0 1 31.822-33.962 8 8 0 0 0 -4.65-14.51c-24.105 0-44.127 4.1-59.813 12.2-11.987-17.457-28.727-29.514-49.887-35.863a8 8 0 0 0 -10.144 9.232c.024.118 1.97 9.862 5.777 29.832a114.543 114.543 0 0 0 -46.6-7.373 8 8 0 0 0 -4.993 13.629 259.785 259.785 0 0 1 27.761 33.3c-4.635.535-7.588 1.179-7.839 1.234a8 8 0 0 0 -3.062 14.209c17.252 12.939 27.062 25.873 32.232 34.371a103.9 103.9 0 0 0 -91.432 103.229v64h-184a8 8 0 0 0 -7.964 7.242c-.3 3.2-6.927 79.009 40.175 130.809 27.724 30.49 68.026 45.949 119.789 45.949zm96.115-25.553a128.282 128.282 0 0 0 23.674-20.4c.615-.677 1.216-1.36 1.813-2.045l22.853 31.998h-8.455a88.036 88.036 0 0 1 -39.885-9.553zm-10.852-54.667c-19.063 21.38-47.745 32.22-85.263 32.22s-66.2-10.84-85.263-32.22c-26.126-29.31-27.722-71.257-27.217-87.78h224.96c.505 16.523-1.091 58.47-27.217 87.78zm-36.209-181.34 21.115 29.56-22.169 31.036v-47.036a88.734 88.734 0 0 1 1.054-13.56zm95.4-74.44-24.454 34.236-19.209-26.9a88.144 88.144 0 0 1 35.209-7.336zm126.491 74.44a88.714 88.714 0 0 1 1.055 13.56v47.036l-22.169-31.036zm0 171.12-21.114-29.56 22.169-31.036v47.036a88.735 88.735 0 0 1 -1.055 13.56zm-70.945 12.676-30.169-42.236 30.169-42.236 30.169 42.236zm40-140.472 30.169 42.236-30.169 42.236-30.169-42.236zm-40 28.472-30.169-42.236 30.169-42.236 30.169 42.236zm-40-56-30.169-42.236 30.169-42.236 30.169 42.236zm40-56-24.455-34.236h8.455a88.123 88.123 0 0 1 35.208 7.341zm-80 27.528 30.169 42.236-30.169 42.236-30.169-42.236zm-40 56 24.455 34.236h-48.91zm80 0 30.169 42.236-32.335 45.268c3.958-25.257 2.28-44.449 2.13-46.026a8 8 0 0 0 -7.964-7.242h-16.455zm-15.28 133.392 15.28-21.392 30.169 42.236-30.169 42.236-28.209-39.492a149.305 149.305 0 0 0 12.929-23.588zm30.825 68.844 24.455-34.236 19.208 26.9a88.149 88.149 0 0 1 -35.208 7.336zm57.766-15.123-23.48-32.877 30.169-42.236 25.442 35.618a88.061 88.061 0 0 1 -32.131 39.495zm32.131-250.259-25.442 35.618-30.169-42.236 23.48-32.877a88.063 88.063 0 0 1 32.131 39.495zm-80.59-70.6c-.284 0-.568-.014-.852-.014h-22.832a50.156 50.156 0 0 1 6.937-16.25c7.769-11.7 20.137-19.12 36.891-22.165-8.114 10.39-17.345 24.635-20.144 38.425zm6.816-51.57c-11.006 3.365-21.722 9.031-30.388 18.245a46.674 46.674 0 0 0 -3.731-3.413c5.34-28.334 25.445-45.04 59.937-49.832a163.285 163.285 0 0 0 -25.818 34.996zm-53.03-55.729a73.245 73.245 0 0 1 28.15 24.243c-.557.456-1.13.9-1.671 1.368a68.842 68.842 0 0 0 -10.217 11.079 84.3 84.3 0 0 0 -10.906-8.665c-2.247-11.872-4.035-21.196-5.356-28.029zm8.077 51.138a78.515 78.515 0 0 0 -3.722 11.124 73.658 73.658 0 0 0 -20.438-4.443q-.705-.057-1.4-.1a316.669 316.669 0 0 0 -22.1-29.514c13.973 2.003 33.18 7.644 47.66 22.929zm-31.015 22.343c11.953.117 27.056 2.767 36.054 13.767a67.429 67.429 0 0 0 -6.912 20.033h-3.583c-3.378-6.969-10.891-19.768-25.559-33.8zm-29.006 64.925 23.475 32.875-30.169 42.236-25.442-35.618a88.063 88.063 0 0 1 32.131-39.496zm-231.047 152.875h15.822c-.61 19.144 1.46 64.842 31.242 98.333 22.226 24.994 54.959 37.667 97.289 37.667s75.063-12.673 97.289-37.667c29.782-33.491 31.852-79.189 31.242-98.333h15.833c.367 19.37-1.99 73.431-36.413 111.287-24.564 27.013-60.885 40.713-107.951 40.713-47.019 0-83.313-13.67-107.876-40.63-34.396-37.753-36.815-91.97-36.477-111.37z"/><path d="m120.02 368a8 8 0 1 0 0-16h-.01a8 8 0 0 0 .01 16z"/><path d="m152.02 408a8 8 0 0 0 0-16h-.01a8 8 0 0 0 .01 16z"/><path d="m264.02 368a8 8 0 0 0 0-16h-.01a8 8 0 0 0 .01 16z"/><path d="m232.02 408a8 8 0 0 0 0-16h-.01a8 8 0 0 0 .01 16z"/><path d="m192.02 368a8 8 0 0 0 0-16h-.01a8 8 0 0 0 .01 16z"/></svg>