<?xml version="1.0"?>
<svg xmlns="http://www.w3.org/2000/svg" id="Filled" viewBox="0 0 512 512" width="512" height="512"><path d="M360,200l-30.72,96L293.43,408l-22.67,70.84c-5.49,12.21-24.03,12.21-29.52,0L218.57,408,182.72,296,152,200Z" style="fill:#95573a"/><circle cx="288" cy="120" r="96" style="fill:#f0dfce"/><path d="M182.635,56.009c-51.987.723-94.3,43.363-94.633,95.354a95.627,95.627,0,0,0,23.987,64.115A32,32,0,0,1,120,236.645V248a16,16,0,0,0,16,16h0a16,16,0,0,1,16,16v8a16,16,0,0,0,16,16h0a16,16,0,0,0,16-16V262.857a16.021,16.021,0,0,1,13.785-15.839,96.007,96.007,0,0,0-15.15-191.009Z" style="fill:#ffd33a"/><path d="M408,208a96,96,0,0,0-97.359-95.991c-52.308.724-94.742,43.868-94.641,96.181a95.579,95.579,0,0,0,20.608,59.237A15.879,15.879,0,0,1,240,277.269V312a16,16,0,0,0,16,16h0a16,16,0,0,0,16-16V295.29a95.425,95.425,0,0,0,32,8.376V336a16,16,0,0,0,16,16h0a16,16,0,0,0,16-16V323.117a31.81,31.81,0,0,1,17.8-28.673A96,96,0,0,0,408,208Z" style="fill:#fd84b3"/><path d="M392,120A104,104,0,0,0,209.924,51.3a104.059,104.059,0,0,0-25.94-3.3c-.485,0-.974,0-1.461.011C126.358,48.79,80.367,95.131,80,151.312a103.827,103.827,0,0,0,25.987,69.459A23.983,23.983,0,0,1,112,236.645V248a24.028,24.028,0,0,0,24,24,8.009,8.009,0,0,1,8,8v8a23.986,23.986,0,0,0,34.642,21.5l54.979,171.775a8.039,8.039,0,0,0,.323.843,24.467,24.467,0,0,0,44.112,0,8.039,8.039,0,0,0,.323-.843l38.867-121.441A23.964,23.964,0,0,0,344,336V323.117a23.917,23.917,0,0,1,13.292-21.473A104.008,104.008,0,0,0,416,208a103.147,103.147,0,0,0-25.818-68.588A104.927,104.927,0,0,0,392,120ZM288,32a88.1,88.1,0,0,1,88,88c0,1.951-.088,3.9-.216,5.843a103.825,103.825,0,0,0-96.864-16.407,103.968,103.968,0,0,0-52.438-52.365A87.456,87.456,0,0,1,288,32ZM168,296a8.009,8.009,0,0,1-8-8v-8a24.028,24.028,0,0,0-24-24,8.009,8.009,0,0,1-8-8V236.645a39.972,39.972,0,0,0-10.013-26.459A87.848,87.848,0,0,1,96,151.415c.309-47.536,39.222-86.746,86.744-87.406A88.082,88.082,0,0,1,264.2,115.724a104.057,104.057,0,0,0-52.522,119.824,87.467,87.467,0,0,1-15.033,3.551A24.155,24.155,0,0,0,176,262.856V288A8.009,8.009,0,0,1,168,296Zm134.745,56.656-5.889,18.4c-40.894-6.625-71.439-18.805-90.868-28.6l-15.109-47.207q.34-1.071.579-2.186A299.657,299.657,0,0,0,232,309.7V312a24,24,0,0,0,48,0v-5.021a102.949,102.949,0,0,0,16,3.792V336A23.913,23.913,0,0,0,302.745,352.656Zm-90.1,10.592a338.72,338.72,0,0,0,79.282,23.216L279.46,425.41a328.583,328.583,0,0,1-51.41-14.025ZM232,292.8a273.868,273.868,0,0,1-40-17.493V262.856a7.973,7.973,0,0,1,6.924-7.919,103.5,103.5,0,0,0,18.157-4.326,104.275,104.275,0,0,0,13.247,21.773A7.9,7.9,0,0,1,232,277.269Zm31.3,183.1c-1.93,3.8-6.055,4.1-7.3,4.1s-5.371-.3-7.3-4.1L234.14,430.411a349.948,349.948,0,0,0,40.406,10.353ZM386.191,255.347a88.251,88.251,0,0,1-35.876,31.9A40.009,40.009,0,0,0,328,323.117V336a8,8,0,0,1-16,0V303.666a8,8,0,0,0-7.342-7.973,87.262,87.262,0,0,1-29.321-7.673A8,8,0,0,0,264,295.29V312a8,8,0,0,1-16,0V277.269a23.971,23.971,0,0,0-5.113-14.8A87.09,87.09,0,0,1,224,208.175c-.093-47.952,38.823-87.5,86.751-88.166a88.016,88.016,0,0,1,75.44,135.338Z"/></svg>
