<svg id="Filled" height="512" viewBox="0 0 512 512" width="512" xmlns="http://www.w3.org/2000/svg"><path d="m256 24 48 24-48 24z" fill="#eb423f"/><path d="m176 192h160v288h-160z" fill="#d1ad8f"/><path d="m256 96-104 96h208z" fill="#b3947b"/><path d="m32 264h112v224h-112z" fill="#d1ad8f"/><path d="m368 488h-224v-184h32v24h32v-24h32v24h32v-24h32v24h32v-24h32z" fill="#b3947b"/><path d="m240 392h32a32 32 0 0 1 32 32v64a0 0 0 0 1 0 0h-96a0 0 0 0 1 0 0v-64a32 32 0 0 1 32-32z" fill="#d1ad8f"/><path d="m24 264h128l-64-80z" fill="#b3947b"/><path d="m368 264h112v224h-112z" fill="#d1ad8f"/><g fill="#b3947b"><path d="m360 264h128l-64-80z"/><path d="m232 224h48v48h-48z"/><path d="m400 312h48v48h-48z"/><path d="m64 312h48v48h-48z"/></g><path d="m32 496h448a8 8 0 0 0 8-8v-216a8 8 0 0 0 6.247-13l-64-80a8 8 0 0 0 -12.494 0l-64 80a8 8 0 0 0 6.247 13v24h-16v-96h16a8 8 0 0 0 5.426-13.878l-101.426-93.622v-15.556l43.578-21.789a8 8 0 0 0 0-14.31l-48-24v.006a7.987 7.987 0 0 0 -11.578 7.149v68.5l-101.426 93.622a8 8 0 0 0 5.426 13.878h16v96h-16v-24a8 8 0 0 0 6.247-13l-64-80a8 8 0 0 0 -12.494 0l-64 80a8 8 0 0 0 6.247 13v216a8 8 0 0 0 8 8zm264-16h-80v-56a24.027 24.027 0 0 1 24-24h32a24.027 24.027 0 0 1 24 24zm128-283.194 47.355 59.194h-94.71zm48 75.194v208h-96v-208zm-208-212.944v-22.112l22.111 11.056zm-8 47.831 83.539 77.113h-167.078zm72 93.113v120h-16v-16a8 8 0 0 0 -8-8h-32a8 8 0 0 0 -8 8v16h-16v-16a8 8 0 0 0 -8-8h-32a8 8 0 0 0 -8 8v16h-16v-120zm-160 112v16a8 8 0 0 0 8 8h32a8 8 0 0 0 8-8v-16h16v16a8 8 0 0 0 8 8h32a8 8 0 0 0 8-8v-16h16v16a8 8 0 0 0 8 8h32a8 8 0 0 0 8-8v-16h16v168h-48v-56a40.045 40.045 0 0 0 -40-40h-32a40.045 40.045 0 0 0 -40 40v56h-48v-168zm-80-115.194 47.355 59.194h-94.71zm48 75.194v208h-96v-208z"/><path d="m232 280h48a8 8 0 0 0 8-8v-48a8 8 0 0 0 -8-8h-48a8 8 0 0 0 -8 8v48a8 8 0 0 0 8 8zm8-48h32v32h-32z"/><path d="m400 368h48a8 8 0 0 0 8-8v-48a8 8 0 0 0 -8-8h-48a8 8 0 0 0 -8 8v48a8 8 0 0 0 8 8zm8-48h32v32h-32z"/><path d="m64 368h48a8 8 0 0 0 8-8v-48a8 8 0 0 0 -8-8h-48a8 8 0 0 0 -8 8v48a8 8 0 0 0 8 8zm8-48h32v32h-32z"/><path d="m400.02 448h-.01a8.005 8.005 0 1 0 .01 0z"/><path d="m448.02 448h-.01a8.005 8.005 0 1 0 .01 0z"/><path d="m424.02 424h-.01a8.005 8.005 0 1 0 .01 0z"/><path d="m64.02 448h-.01a8.005 8.005 0 1 0 .01 0z"/><path d="m112.02 448h-.01a8.005 8.005 0 1 0 .01 0z"/><path d="m88.02 424h-.01a8.005 8.005 0 1 0 .01 0z"/></svg>