<svg id="Filled" height="512" viewBox="0 0 512 512" width="512" xmlns="http://www.w3.org/2000/svg"><path d="m272 24h80s8 48-40 48-40-48-40-48z" fill="#eb423f"/><path d="m120 184s8-64 64-64c64 0 104 64 200 64v16h-264z" fill="#b3947b"/><path d="m136 192s88-48 128-72c13.487-8.092 30.611-15.511 48-16 34.186-.961 80 24 80 80v16h-256z" fill="#d1ad8f"/><path d="m392 216-48 256h-176l-48-256z" fill="#eb423f"/><path d="m371 328-6 32h-218l-6-32z" fill="#ffb632"/><path d="m377 296-6 32h-230l-6-32z" fill="#ffd33a"/><path d="m120 192h272a16 16 0 0 1 16 16v16a0 0 0 0 1 0 0h-304a0 0 0 0 1 0 0v-16a16 16 0 0 1 16-16z" fill="#d13330"/><path d="m24 456 122.532-50.454a31.994 31.994 0 0 1 26.495.968l82.973 41.486v40h-232z" fill="#b3947b"/><path d="m200 488 106.044-77.766a32 32 0 0 1 30.16-4.157l47.796 17.923 38.829-22.188a32 32 0 0 1 33.627 1.158l31.544 21.03v64z" fill="#d1ad8f"/><g fill="#b3947b"><circle cx="336" cy="440" r="8"/><circle cx="296" cy="456" r="8"/><circle cx="392" cy="456" r="8"/></g><circle cx="152" cy="440" fill="#d1ad8f" r="8"/><circle cx="104" cy="456" fill="#d1ad8f" r="8"/><circle cx="192" cy="456" fill="#d1ad8f" r="8"/><path d="m492.437 417.344-31.544-21.03a39.781 39.781 0 0 0 -42.033-1.448l-35.568 20.324-19.154-7.182 12.71-67.788 42.941 26.58a8 8 0 1 0 8.422-13.6l-48.2-29.839 17.129-91.361h10.86a8 8 0 0 0 8-8v-16a24.039 24.039 0 0 0 -16-22.624v-1.376c0-25.266-8.755-47.132-25.318-63.236a89.136 89.136 0 0 0 -54.682-24.564v-16.644c12.641-1.417 22.6-6.314 29.645-14.636 14.28-16.856 10.417-41.207 10.247-42.235a8 8 0 0 0 -7.892-6.685h-80a8 8 0 0 0 -7.892 6.685c-.171 1.028-4.033 25.379 10.247 42.235 7.049 8.322 17 13.219 29.645 14.636v17.077c-17.293 2.261-33.226 9.973-44.116 16.507-6.11 3.666-13.376 7.911-21.293 12.469-14.441-6.684-33.113-13.609-54.591-13.609-25.958 0-46.7 12.476-59.973 36.078a105.487 105.487 0 0 0 -11.965 34.93 8.019 8.019 0 0 0 -.062.992v1.376a24.039 24.039 0 0 0 -16 22.624v16a8 8 0 0 0 8 8h10.86l30.988 165.27c-.793.269-1.582.557-2.362.878l-122.532 50.452a8 8 0 0 0 -4.954 7.4v32a8 8 0 0 0 8 8h464a8 8 0 0 0 8-8v-64a8 8 0 0 0 -3.563-6.656zm-153.424-18.758a39.873 39.873 0 0 0 -37.7 5.2l-46.97 34.445-77.739-38.87a39.981 39.981 0 0 0 -14.854-4.1l-5.11-27.261h198.72l-6.432 34.3zm-194.373-94.586h173.7l25.846 16h-196.546zm216.72 32-3 16h-204.72l-3-16zm-12.622-32h18.622l-1.937 10.329zm-62.123-249.36c-5.847-6.856-7.053-16.33-7.108-22.64h64.986c-.056 6.31-1.261 15.784-7.108 22.64-5.299 6.211-13.839 9.36-25.385 9.36s-20.086-3.149-25.385-9.36zm-18.5 72.22c10.867-6.521 27.341-14.392 44.109-14.863 18.26-.5 37.935 7.24 51.3 20.238 13.397 13.022 20.476 30.922 20.476 51.765h-216.813c29.358-16.195 75.222-41.716 100.929-57.14zm-129.915 28.666c10.418-18.265 25.828-27.526 45.8-27.526 11.96 0 23.6 2.323 37.15 7.563-36.367 20.608-78.134 43.485-87.193 48.437h-5.865a91.45 91.45 0 0 1 10.108-28.474zm-26.2 52.474a8.009 8.009 0 0 1 8-8h272a8.009 8.009 0 0 1 8 8v8h-288zm268.86 24-10.5 56h-47.469l-62.68-38.8a8 8 0 0 0 -8.422 13.6l40.7 25.2h-150.849l-10.5-56zm-348.86 229.357 117.578-48.414a24 24 0 0 1 19.871.726l70.391 35.195-42.458 31.136h-165.382zm448 18.643h-255.563l86.339-63.315a23.921 23.921 0 0 1 22.62-3.118l47.795 17.924c.043.016.087.025.13.04s.1.041.149.058l48 16a8 8 0 1 0 5.06-15.178l-31.03-10.342 23.3-13.311a23.872 23.872 0 0 1 25.22.868l27.98 18.655z"/><circle cx="312" cy="136" r="8"/><circle cx="272" cy="160" r="8"/><circle cx="352" cy="160" r="8"/><circle cx="336" cy="440" r="8"/><circle cx="296" cy="456" r="8"/><circle cx="392" cy="456" r="8"/><circle cx="152" cy="440" r="8"/><circle cx="104" cy="456" r="8"/><circle cx="192" cy="456" r="8"/></svg>