<?xml version="1.0"?>
<svg xmlns="http://www.w3.org/2000/svg" id="Filled" viewBox="0 0 512 512" width="512" height="512"><path d="M232,144a40,40,0,0,1-57.5,35.97,63.99,63.99,0,0,1-93,0,39.991,39.991,0,1,1-9.4-75.15,64.015,64.015,0,0,1,111.8,0A40.038,40.038,0,0,1,232,144Z" style="fill:#a3d4f7"/><path d="M203.955,381.648c-7.641-3.166-8.66-21.816-15.257-26.282s-23.4,2.355-28.865-3.2.4-23.487-3.844-29.919-22.7-7.105-25.637-14.2,9.63-20.619,8.085-28.171S120.063,263.793,120,256s16.64-14.849,18.148-22.672-10.961-21.732-7.8-29.373,21.816-8.66,26.282-15.257-2.355-23.4,3.2-28.865,23.487.4,29.919-3.844,7.1-22.7,14.2-25.637,20.619,9.63,28.171,8.085S248.207,120.063,256,120s14.849,16.64,22.672,18.148,21.732-10.961,29.373-7.8,8.66,21.816,15.257,26.282,23.4-2.355,28.865,3.2-.4,23.487,3.844,29.919,22.7,7.1,25.637,14.2-9.63,20.619-8.085,28.171S391.937,248.207,392,256s-16.64,14.849-18.148,22.672,10.961,21.732,7.8,29.373-21.816,8.66-26.282,15.257,2.355,23.4-3.2,28.865-23.487-.4-29.919,3.844-7.105,22.7-14.2,25.637-20.619-9.63-28.171-8.085S263.793,391.937,256,392s-14.849-16.64-22.672-18.148S211.6,384.813,203.955,381.648Z" style="fill:#ffb632"/><circle cx="256" cy="256" r="88" style="fill:#ffd33a"/><path d="M447.986,352.561c0-.187.014-.373.014-.561a40.01,40.01,0,0,0-57.506-35.972,48.014,48.014,0,0,0-92.988,0A40.01,40.01,0,0,0,240,352c0,.188.012.374.014.561C217.308,355.732,200,372.177,200,392c0,22.091,21.49,40,48,40,18.326,0,34.249-8.561,42.336-21.144a63.979,63.979,0,0,0,107.328,0C405.751,423.439,421.674,432,440,432c26.51,0,48-17.909,48-40C488,372.177,470.693,355.732,447.986,352.561Z" style="fill:#a3d4f7"/><path d="M455.613,345.888a48.06,48.06,0,0,0-60.247-40.211A56.272,56.272,0,0,0,386.1,291.09c-.329-.713-.655-1.425-.991-2.139-1.252-2.661-3.322-7.058-3.383-8.739.707-1.458,4.241-4.467,6.38-6.288,5.6-4.772,11.958-10.18,11.895-17.988-.062-7.6-6.144-13.176-12.025-18.566-2.172-1.989-5.746-5.265-6.535-6.829.16-1.676,2.216-5.815,3.466-8.332,3.313-6.669,7.068-14.228,4.133-21.315s-10.936-9.778-18-12.15c-2.663-.9-7.045-2.369-8.342-3.441-.549-1.663-.337-6.507-.208-9.45.348-7.969.708-16.21-4.625-21.631-5.478-5.567-13.794-4.9-21.131-4.309-2.8.226-7.427.6-8.957.065-1.145-1.231-2.791-5.8-3.786-8.568-2.6-7.222-5.548-15.408-12.889-18.448s-15.212.664-22.157,3.932c-2.66,1.252-7.058,3.321-8.737,3.38-1.458-.705-4.467-4.241-6.289-6.379C269.175,118.317,263.8,112,256.05,112h-.114c-7.6.062-13.176,6.143-18.565,12.024-.356.388-.753.822-1.173,1.275A48.227,48.227,0,0,0,192,96c-1.342,0-2.684.056-4.018.166a72.009,72.009,0,0,0-119.964,0C66.684,96.056,65.342,96,64,96a48,48,0,1,0,15.686,93.375,72.4,72.4,0,0,0,42.178,18.349c.283,5.231,2.759,10.5,5.03,15.329,1.251,2.659,3.32,7.055,3.38,8.735-.706,1.458-4.24,4.467-6.379,6.288-5.6,4.772-11.958,10.18-11.895,17.988.062,7.6,6.144,13.176,12.025,18.565,2.172,1.99,5.746,5.266,6.535,6.83-.159,1.676-2.216,5.815-3.466,8.332-3.313,6.669-7.068,14.228-4.133,21.315s10.936,9.778,17.995,12.15c2.663.9,7.045,2.369,8.342,3.441.549,1.663.337,6.507.208,9.45-.348,7.969-.708,16.21,4.625,21.631,5.478,5.567,13.794,4.9,21.131,4.309,2.8-.227,7.426-.6,8.957-.065,1.145,1.231,2.791,5.8,3.786,8.568a57.847,57.847,0,0,0,5.16,11.575A42.023,42.023,0,0,0,192,392c0,26.467,25.122,48,56,48,16.307,0,31.578-6.062,42.08-16.3a71.982,71.982,0,0,0,107.84,0c10.5,10.233,25.774,16.3,42.08,16.3,30.878,0,56-21.533,56-48C496,370.288,479.37,351.721,455.613,345.888ZM87.312,174.473a8,8,0,0,0-9.319-1.694A31.66,31.66,0,0,1,64,176a32,32,0,1,1,6.485-63.345,8,8,0,0,0,8.6-3.932,56.014,56.014,0,0,1,97.832,0,8,8,0,0,0,8.6,3.932,32.03,32.03,0,0,1,32.139,12.251c-5.445-2.457-11.244-4.227-16.76-1.945-7.088,2.935-9.777,10.936-12.15,17.995-.9,2.663-2.369,7.044-3.441,8.341-1.663.551-6.508.338-9.451.209-7.968-.348-16.209-.708-21.63,4.625-5.566,5.477-4.9,13.794-4.308,21.131.224,2.8.6,7.426.065,8.957-1.231,1.145-5.8,2.791-8.569,3.787a82.434,82.434,0,0,0-8.419,3.391l-5.419.6A55.474,55.474,0,0,1,87.312,174.473Zm105.87,174.268c-5.474-3.7-12.452-3.145-19.2-2.6-2.5.2-6.5.523-8.341.2-.474-2.023-.273-6.617-.148-9.489.3-6.79.6-13.811-2.826-19.006-3.535-5.354-10.183-7.588-16.611-9.749-2.469-.83-6.388-2.149-8.058-3.212.428-1.934,2.268-5.637,3.427-7.97,3.017-6.073,6.138-12.353,4.851-18.639-1.248-6.1-6.429-10.846-11.441-15.438-2.118-1.941-5.509-5.048-6.6-6.813,1.072-1.533,4.123-4.13,6.038-5.76,5.155-4.389,10.485-8.927,11.736-15.417,1.2-6.214-1.766-12.512-4.632-18.6-1.3-2.761-3.417-7.261-3.537-9.186,1.446-1.276,6.126-2.961,9-3.994,6.333-2.281,12.882-4.638,16.429-9.878,3.706-5.475,3.145-12.453,2.6-19.2-.2-2.5-.522-6.5-.2-8.341,2.024-.474,6.617-.274,9.488-.148,6.789.295,13.812.6,19.006-2.826,5.354-3.534,7.589-10.182,9.75-16.61.83-2.47,2.148-6.389,3.212-8.059,1.933.428,5.636,2.268,7.969,3.427,6.074,3.016,12.35,6.135,18.639,4.851,6.1-1.248,10.847-6.429,15.439-11.441,1.941-2.119,5.047-5.509,6.813-6.6,1.532,1.072,4.129,4.123,5.759,6.038,4.389,5.155,8.927,10.486,15.418,11.736,6.216,1.2,12.512-1.767,18.6-4.632,2.76-1.3,7.26-3.417,9.185-3.537,1.276,1.446,2.961,6.126,3.994,9,2.28,6.333,4.638,12.882,9.878,16.429,5.474,3.705,12.452,3.144,19.2,2.6,2.506-.2,6.5-.521,8.341-.2.474,2.023.273,6.617.148,9.489-.3,6.79-.6,13.811,2.826,19.006,3.535,5.354,10.183,7.588,16.611,9.749,2.469.83,6.388,2.149,8.058,3.212-.428,1.934-2.268,5.637-3.427,7.97-3.017,6.073-6.138,12.353-4.851,18.639,1.248,6.1,6.429,10.846,11.441,15.438,2.118,1.941,5.509,5.048,6.6,6.813-1.072,1.533-4.123,4.13-6.038,5.76-5,4.257-10.154,8.66-11.6,14.844a56.118,56.118,0,0,0-15.552-4.179,96,96,0,1,0-162.462,51.477A95.417,95.417,0,0,0,226.934,347.5a55.151,55.151,0,0,0-24.359,16.328C200.433,357.929,198.052,352.038,193.182,348.741Zm42.57-15.339a80,80,0,1,1,76.817-133.97A80.355,80.355,0,0,1,334.2,272.865a55.98,55.98,0,0,0-41.58,32.809,48.067,48.067,0,0,0-56.87,27.728ZM440,424c-15.037,0-28.68-6.693-35.606-17.469a8,8,0,0,0-6.707-3.675h-.023a8,8,0,0,0-6.7,3.636,55.979,55.979,0,0,1-93.918,0,8,8,0,0,0-6.7-3.636h-.023a8,8,0,0,0-6.707,3.675C276.681,417.307,263.037,424,248,424c-22.056,0-40-14.355-40-32,0-15.582,13.929-28.836,33.12-31.516a8,8,0,0,0,6.894-8.027L248,352a32.036,32.036,0,0,1,32-32,31.683,31.683,0,0,1,14,3.219,8,8,0,0,0,11.254-5.2,40.018,40.018,0,0,1,77.492,0,8,8,0,0,0,11.254,5.2A31.686,31.686,0,0,1,408,320a32.04,32.04,0,0,1,32,32.034l-.012.423a8,8,0,0,0,6.894,8.027C466.071,363.164,480,376.418,480,392,480,409.645,462.056,424,440,424Z"/></svg>
