<svg id="Filled" height="512" viewBox="0 0 512 512" width="512" xmlns="http://www.w3.org/2000/svg"><path d="m24 152h464v320h-464z" fill="#3397e8"/><path d="m72 200h368v224h-368z" fill="#a3d4f7"/><path d="m488 144h-168v-88a40 40 0 0 0 -80 0v16a8 8 0 0 0 16 0v-16a24 24 0 0 1 48 0v40h-96v-40a40 40 0 0 0 -80 0v16a8 8 0 0 0 16 0v-16a24 24 0 0 1 48 0v88h-168a8 8 0 0 0 -8 8v320a8 8 0 0 0 8 8h464a8 8 0 0 0 8-8v-320a8 8 0 0 0 -8-8zm-184 96h-96v-32h96zm-96-48v-32h96v32zm-8 88a8 8 0 0 0 8-8v-16h96v16a8 8 0 0 0 16 0v-64h112v208h-352v-208h112v64a8 8 0 0 0 8 8zm104-168v32h-96v-32zm176 352h-448v-304h160v32h-120a8 8 0 0 0 -8 8v224a8 8 0 0 0 8 8h368a8 8 0 0 0 8-8v-224a8 8 0 0 0 -8-8h-120v-32h160z"/><path d="m252.437 357.821a8 8 0 0 0 -8.875 13.313l8.549 5.7a40.085 40.085 0 0 0 40.076 2.495l15.678-7.84a23.894 23.894 0 0 1 23.082.888l9.874 5.923a39.814 39.814 0 0 0 38.469 1.478l16.288-8.144a8 8 0 0 0 -7.156-14.311l-16.287 8.145a23.889 23.889 0 0 1 -23.082-.888l-9.874-5.923a39.816 39.816 0 0 0 -38.469-1.478l-15.679 7.84a24.049 24.049 0 0 1 -24.045-1.5z"/><path d="m172.71 304.7-15.679 7.84a24.044 24.044 0 0 1 -24.045-1.5l-8.549-5.7a8 8 0 0 0 -8.875 13.312l8.549 5.7a40.083 40.083 0 0 0 40.076 2.5l15.678-7.84a23.892 23.892 0 0 1 23.082.887l9.874 5.923a39.811 39.811 0 0 0 38.469 1.478l16.288-8.145a8 8 0 1 0 -7.156-14.31l-16.287 8.144a23.884 23.884 0 0 1 -23.082-.887l-9.874-5.923a39.816 39.816 0 0 0 -38.469-1.479z"/></svg>